<svg width="19" height="20" viewBox="0 0 19 20" fill="none" xmlns="http://www.w3.org/2000/svg">
<path d="M16.6563 8.12872L16.6467 8.17695V8.18787L16.6224 8.20011L16.5666 8.25488L13.4279 11.3384L13.2407 11.5223L13.2858 11.7809L14.0509 16.1723C14.0785 16.3439 13.9794 16.4728 13.8673 16.514H13.8672H13.8669H13.8667H13.8665H13.8662H13.866H13.8658H13.8656H13.8653H13.8651H13.8649H13.8646H13.8644H13.8642H13.8639H13.8637H13.8635H13.8632H13.863H13.8628H13.8626H13.8623H13.8621H13.8619H13.8617H13.8614H13.8612H13.861H13.8607H13.8605H13.8603H13.8601H13.8598H13.8596H13.8594H13.8592H13.8589H13.8587H13.8585H13.8583H13.858H13.8578H13.8576H13.8574H13.8571H13.8569H13.8567H13.8565H13.8562H13.856H13.8558H13.8556H13.8553H13.8551H13.8549H13.8547H13.8544H13.8542H13.854H13.8538H13.8535H13.8533H13.8531H13.8529H13.8526H13.8524H13.8522H13.852H13.8517H13.8515H13.8513H13.8511H13.8508H13.8506H13.8504H13.8502H13.8499H13.8497H13.8495H13.8493H13.849H13.8488H13.8486H13.8484H13.8481H13.8479H13.8477H13.8475H13.8472H13.847H13.8468H13.8465H13.8463H13.8461H13.8458H13.8456H13.8454H13.8452H13.8449H13.8447H13.8445H13.8442H13.844H13.8438H13.8435H13.8433H13.8431H13.8428H13.8426H13.8424H13.8421H13.8419H13.8417H13.8414H13.8412H13.841H13.8407H13.8405H13.8402H13.84H13.8398H13.8395H13.8393H13.839H13.8388H13.8386H13.8383H13.8381H13.8378H13.8376H13.8373H13.8371H13.8369H13.8366H13.8364H13.8361H13.8359H13.8356H13.8354H13.8351H13.8349H13.8346H13.8344H13.8341H13.8339H13.8336H13.8334H13.8331H13.8329H13.8326H13.8324H13.8321H13.8318H13.8316H13.8313H13.8311H13.8308H13.8305H13.8303H13.83H13.8298H13.8295H13.8292H13.829H13.8287H13.8284H13.8282H13.8279H13.8276H13.8274H13.8271H13.8268H13.8266H13.8263H13.826H13.8257H13.8255H13.8252H13.8249H13.8246H13.8244H13.8241H13.8238H13.8235H13.8232H13.8229H13.8227H13.8224H13.8221H13.8218H13.8215H13.8212H13.8209H13.8207H13.8204H13.8201H13.8198H13.8195H13.8192H13.8189H13.8186H13.8183H13.818H13.8177H13.8174H13.8171H13.8168H13.8165H13.8162H13.8159H13.8156H13.8153H13.815H13.8146H13.8143H13.814H13.8137H13.8134H13.8131H13.8128H13.8124H13.8121H13.8118H13.8115H13.8112H13.8108H13.8105H13.8102H13.8099H13.8095H13.8092H13.8089H13.8085H13.8082H13.8079H13.8075H13.8072H13.8069H13.8065H13.8062H13.8058H13.8055H13.8051H13.8048H13.8045H13.8041H13.8038H13.8034H13.8031H13.8027H13.8023H13.802H13.8016H13.8013H13.8009H13.8005H13.8002H13.7998H13.7995H13.7991H13.7987H13.7983H13.798H13.7976H13.7972H13.7969H13.7965H13.7961H13.7957H13.7953H13.795H13.7946H13.7942H13.7938H13.7934H13.793H13.7926H13.7922H13.7918H13.7914H13.791H13.7906H13.7902H13.7898H13.7894H13.789H13.7886H13.7882H13.7878H13.7874H13.787H13.7866H13.7861H13.7857H13.7853H13.7849H13.7844H13.784H13.7836H13.7832H13.7827H13.7823H13.7819H13.7814H13.781H13.7806H13.7801H13.7797H13.7792H13.7788H13.7783C13.7385 16.514 13.7085 16.514 13.6809 16.5131C13.6738 16.5129 13.6675 16.5126 13.6618 16.5123L13.6308 16.4957L9.72654 14.4144L9.49132 14.289L9.25611 14.4144L5.35186 16.4957L5.34001 16.5021L5.32851 16.509C5.26185 16.5493 5.1983 16.5535 5.13837 16.5354C5.07841 16.5173 5.01019 16.472 4.95661 16.3914C4.94545 16.362 4.93997 16.3199 4.93895 16.2083L5.69689 11.8579L5.74194 11.5994L5.55471 11.4154L2.41867 8.33459C2.30779 8.22145 2.30836 8.07455 2.42038 7.96175L2.47743 7.90431L2.48972 7.87954C2.49919 7.87873 2.51085 7.87817 2.52492 7.87817H2.56008L2.59489 7.87325L6.95846 7.25655L7.22411 7.21901L7.3397 6.9769L9.24182 2.99293C9.29567 2.91052 9.36476 2.86446 9.42539 2.84614C9.48532 2.82804 9.54887 2.83227 9.61553 2.87255L9.63203 2.88252L9.64924 2.89118C9.6729 2.9031 9.68615 2.91129 9.69327 2.91617C9.69671 2.91852 9.6987 2.92009 9.69967 2.92089L9.70113 2.92219L9.70248 2.92373C9.70332 2.92476 9.70493 2.92683 9.70733 2.93038C9.7123 2.93774 9.72055 2.95129 9.73248 2.97531L11.7229 6.98384L11.84 7.2197L12.1007 7.25655L16.4643 7.87325L16.4991 7.87817H16.53C16.5342 7.87944 16.5642 7.88879 16.6033 7.94461C16.654 8.01691 16.6635 8.09224 16.6563 8.12872Z" stroke="#9F9B94"/>
</svg>
