<svg width="20" height="20" viewBox="0 0 20 20" fill="none" xmlns="http://www.w3.org/2000/svg">
<mask id="mask0_3175_52234" style="mask-type:alpha" maskUnits="userSpaceOnUse" x="0" y="0" width="20" height="20">
<rect width="20" height="20" fill="#D9D9D9"/>
</mask>
<g mask="url(#mask0_3175_52234)">
<path d="M5.0026 2.5H14.1693V13.3333L8.33594 19.1667L7.29427 18.125C7.19705 18.0278 7.11719 17.8958 7.05469 17.7292C6.99219 17.5625 6.96094 17.4028 6.96094 17.25V16.9583L7.8776 13.3333H2.5026C2.05816 13.3333 1.66927 13.1667 1.33594 12.8333C1.0026 12.5 0.835938 12.1111 0.835938 11.6667V10C0.835938 9.90278 0.849826 9.79861 0.877604 9.6875C0.905382 9.57639 0.93316 9.47222 0.960938 9.375L3.46094 3.5C3.58594 3.22222 3.79427 2.98611 4.08594 2.79167C4.3776 2.59722 4.68316 2.5 5.0026 2.5ZM12.5026 4.16667H5.0026L2.5026 10V11.6667H10.0026L8.8776 16.25L12.5026 12.625V4.16667ZM14.1693 13.3333V11.6667H16.6693V4.16667H14.1693V2.5H18.3359V13.3333H14.1693Z" fill="#5F5F5F"/>
</g>
</svg>
