<svg width="23" height="23" viewBox="0 0 23 23" fill="none" xmlns="http://www.w3.org/2000/svg">
<path d="M22.4425 14.3717L22.1835 14.3666V13.4716C22.397 13.3896 22.5488 13.1832 22.5488 12.9408C22.5488 12.6944 22.3918 12.4852 22.1727 12.4061C22.0516 10.7846 20.8459 9.45474 19.2156 9.19319L16.3731 8.73722L15.7473 7.89873C14.7335 6.54027 13.1811 5.71317 11.4881 5.62959C11.4787 5.62913 11.4694 5.62891 11.46 5.62891H8.57293C4.63723 5.62891 1.33769 8.40249 0.524756 12.0976C0.231284 12.1201 0 12.3649 0 12.6642V12.9345C0 13.0881 0.0611637 13.2273 0.160164 13.3296C0.111915 13.5864 0.0855723 13.8508 0.0855723 14.1214V14.5082C0.0855723 14.8225 0.340355 15.0772 0.654537 15.0772H0.89538L2.5674 15.1108C2.62003 16.3654 3.65674 17.3701 4.92411 17.3701C6.1595 17.3701 7.1755 16.4155 7.27473 15.2053L14.7654 15.3556C14.7709 15.3558 14.7765 15.3562 14.7819 15.3562C14.7829 15.3562 14.7839 15.356 14.7849 15.356L15.7308 15.375C15.9065 16.5036 16.8849 17.3701 18.062 17.3701C19.2063 17.3701 20.1627 16.551 20.3763 15.4683L22.4195 15.5093C22.4234 15.5094 22.4273 15.5094 22.4312 15.5094C22.7402 15.5094 22.9936 15.2622 22.9998 14.9519C23.0062 14.6378 22.7567 14.378 22.4425 14.3717ZM19.2834 15.0109C19.2834 15.6843 18.7354 16.2322 18.062 16.2322C17.3885 16.2322 16.8406 15.6843 16.8406 15.0109C16.8406 14.3375 17.3885 13.7896 18.062 13.7896C18.7354 13.7896 19.2834 14.3375 19.2834 15.0109ZM3.70897 15.1337L4.24209 15.1444C4.30439 15.4644 4.58591 15.706 4.92411 15.706C5.25257 15.706 5.52709 15.4779 5.59975 15.1717L6.13196 15.1824C6.04815 15.7747 5.53916 16.2322 4.92405 16.2322C4.29216 16.2322 3.77081 15.7497 3.70897 15.1337ZM8.57293 6.76678H11.4455C12.7931 6.83733 14.028 7.49739 14.8354 8.57927L15.5991 9.60267C15.6877 9.72124 15.8189 9.80072 15.965 9.82417L19.0354 10.3167C20.1354 10.4932 20.9502 11.3877 21.0375 12.4802C20.3218 11.6427 19.2593 11.1237 18.0856 11.1237C16.2311 11.1237 14.6573 12.4406 14.2878 14.2079L8.89371 14.0997V13.2328C8.89371 11.3609 7.37082 9.83794 5.49893 9.83794H4.36908C3.67255 9.83794 3.015 10.0061 2.43306 10.3023C3.66516 8.1897 5.95587 6.76678 8.57293 6.76678ZM1.22874 13.9393C1.32347 12.2893 2.69581 10.9759 4.36908 10.9759H5.49882C6.74326 10.9759 7.75567 11.9883 7.75567 13.2328V13.9393H1.22874ZM18.062 12.6516C17.0314 12.6516 16.1536 13.3162 15.833 14.239L15.4546 14.2314C15.79 13.0896 16.8493 12.2617 18.0856 12.2617C19.3576 12.2617 20.4451 13.1233 20.7459 14.3376L20.3204 14.3291C20.0272 13.3596 19.1259 12.6516 18.062 12.6516Z" fill="#4E4E4E"/>
<path d="M18.0623 15.7066C18.4462 15.7066 18.7574 15.3954 18.7574 15.0115C18.7574 14.6276 18.4462 14.3164 18.0623 14.3164C17.6784 14.3164 17.3672 14.6276 17.3672 15.0115C17.3672 15.3954 17.6784 15.7066 18.0623 15.7066Z" fill="#4E4E4E"/>
<path d="M9.74865 10.5597H14.3601C14.5754 10.5597 14.7722 10.4382 14.8687 10.2458C14.9651 10.0533 14.9448 9.82291 14.816 9.6504L14.3176 8.98255L14.3176 8.9826C13.6206 8.04865 12.5534 7.48002 11.3894 7.42256C11.38 7.4221 11.3707 7.42188 11.3613 7.42188H9.74865C9.43447 7.42188 9.17969 7.6766 9.17969 7.99084V9.99075C9.17969 10.305 9.43441 10.5597 9.74865 10.5597ZM10.3176 8.5598H11.3467C12.0596 8.59844 12.7205 8.90818 13.2033 9.42179H10.3176V8.5598Z" fill="#4E4E4E"/>
</svg>
