<svg width="23" height="23" viewBox="0 0 23 23" fill="none" xmlns="http://www.w3.org/2000/svg">
<g clip-path="url(#clip0_3246_101086)">
<path d="M22.2341 11.4176C21.4722 11.0773 20.6461 11.0454 19.8442 11.3256C19.4267 11.4715 19.0267 11.6978 18.659 11.9937V9.20872H20.9976L18.6545 4.83984H5.85089L3.50777 9.20872H5.84645V12.6743C5.59547 12.8458 5.44732 12.9984 5.38357 13.0716L4.58935 13.8838L4.16821 13.0774L0 15.2536L4.03933 22.9901L8.2075 20.8144L7.76843 19.9731H15.4237L19.9183 16.6907L23 11.7597L22.2341 11.4176ZM17.8486 6.18674L18.747 7.86183H14.2762L13.3778 6.18674H17.8486ZM13.4703 9.20872H17.3121V13.0649L16.0092 13.8865C15.6612 13.323 15.038 12.9473 14.3287 12.9473H12.9261V10.2508H11.5792V12.7021C11.0795 12.3272 10.1987 11.9061 8.76781 11.9061C8.14869 11.9061 7.62742 11.9788 7.1933 12.0888V9.20872H11.0351L12.2527 6.93788L13.4703 9.20872ZM5.7584 7.86183L6.65679 6.18674H11.1276L10.2292 7.86183H5.7584ZM4.60997 21.1732L1.8174 15.8238L3.59757 14.8949L6.39014 20.2439L4.60997 21.1732ZM18.9139 15.7564L14.9842 18.6262H7.06491L5.24481 15.1395L5.8464 14.5245L5.9667 14.4015L6.36224 13.9969L6.37751 13.9871L6.40267 13.9525C6.44445 13.9085 6.67791 13.6781 7.1933 13.4936C7.56233 13.3617 8.07596 13.253 8.76781 13.253C10.3724 13.253 10.93 13.9045 10.9956 13.9893L11.0701 14.1226L11.1657 14.2941H14.3287C14.4589 14.2941 14.5792 14.3337 14.6793 14.4015C14.8464 14.5146 14.9564 14.7059 14.9564 14.9222C14.9564 15.0731 14.9025 15.2118 14.8132 15.3205L14.5079 15.4695L14.3431 15.5499C14.3382 15.5503 14.3337 15.5503 14.3287 15.5503H10.1875V16.2238V16.8973H11.5815H14.3287C14.8266 16.8973 15.2823 16.7114 15.6298 16.4066C15.9099 16.1605 16.1201 15.8368 16.226 15.4696C16.2404 15.4202 16.2525 15.3703 16.2633 15.3196V15.3192L18.9216 13.6423L18.9912 13.5565C19.4549 12.9868 20.1607 12.4848 20.937 12.4848H20.9585L18.9139 15.7564Z" fill="#4E4E4E"/>
<path d="M12.925 0.0117188H11.5781V2.57083H12.925V0.0117188Z" fill="#4E4E4E"/>
<path d="M14.8882 0.452423L14.0078 2.85547L15.2725 3.3188L16.1529 0.915754L14.8882 0.452423Z" fill="#4E4E4E"/>
<path d="M9.62411 0.454638L8.35938 0.917969L9.23972 3.32101L10.5045 2.85768L9.62411 0.454638Z" fill="#4E4E4E"/>
</g>
<defs>
<clipPath id="clip0_3246_101086">
<rect width="23" height="23" fill="white"/>
</clipPath>
</defs>
</svg>
