<svg width="20" height="18" viewBox="0 0 20 18" fill="none" xmlns="http://www.w3.org/2000/svg">
<path d="M18.2162 3.01313H13.7377L13.5157 1.4893C13.4186 0.822891 12.8376 0.320312 12.1641 0.320312H7.8359C7.16242 0.320312 6.58137 0.822891 6.4843 1.48937L6.26238 3.01313H1.78387C0.800234 3.01313 0 3.81336 0 4.79695V15.8955C0 16.8791 0.800234 17.6793 1.78387 17.6793H18.2162C19.1998 17.6793 20 16.8791 20 15.8955V4.79695C20 3.81336 19.1998 3.01313 18.2162 3.01313ZM7.64852 1.65891C7.66195 1.56648 7.74254 1.4968 7.83594 1.4968H12.1642C12.2576 1.4968 12.3382 1.56652 12.3516 1.65891L12.5488 3.01313H7.45129L7.64852 1.65891ZM18.8236 15.8955C18.8236 16.2304 18.5511 16.5029 18.2162 16.5029H1.78387C1.44895 16.5029 1.17645 16.2304 1.17645 15.8955V10.2882C1.6941 10.6927 2.34453 10.9346 3.05086 10.9346H7.64695V11.5097C7.64695 11.727 7.76668 11.9266 7.95836 12.0288L9.72316 12.9699C9.80969 13.0161 9.9048 13.0391 10 13.0391C10.0952 13.0391 10.1903 13.0161 10.2768 12.9699L12.0416 12.0288C12.2333 11.9265 12.353 11.727 12.353 11.5097V10.9346H16.9491C17.6554 10.9346 18.3059 10.6927 18.8236 10.2883V15.8955ZM8.82344 11.1568V9.4575H11.1766V11.1568L10 11.7843L8.82344 11.1568ZM18.8236 7.88371C18.8236 8.91727 17.9827 9.75813 16.9491 9.75813H12.353V8.86922C12.353 8.54438 12.0897 8.28098 11.7648 8.28098H8.2352C7.91035 8.28098 7.64695 8.54434 7.64695 8.86922V9.75813H3.05086C2.0173 9.75816 1.17645 8.9173 1.17645 7.88375V4.79695C1.17645 4.50391 1.38508 4.25867 1.66156 4.20195C1.70105 4.19383 1.74195 4.18961 1.78383 4.18961H18.2161C18.258 4.18961 18.2989 4.19387 18.3384 4.20195C18.6149 4.25871 18.8235 4.50395 18.8235 4.79695V7.88371H18.8236Z" fill="#434343"/>
</svg>
