<svg width="80" height="80" viewBox="0 0 80 80" fill="none" xmlns="http://www.w3.org/2000/svg">
<g clip-path="url(#clip0_3175_50879)">
<path d="M34.1143 23.1714L37.8585 19.3328C38.9412 18.2195 38.9412 16.4468 37.8585 15.3328C37.3416 14.8035 36.6332 14.5054 35.8936 14.5054C35.1541 14.5054 34.4457 14.8035 33.9288 15.3328L37.8585 11.3328C38.9425 10.2196 38.9425 8.44612 37.8585 7.33284C37.3416 6.80354 36.6332 6.50537 35.8936 6.50537C35.1541 6.50537 34.4457 6.80354 33.9288 7.33284L31.9568 9.33284V3.99951C31.9783 3.04964 31.4841 2.16292 30.6645 1.68115C29.8455 1.20003 28.8298 1.20003 28.0108 1.68115C27.1918 2.16292 26.697 3.04964 26.7185 3.99951V9.33284L24.7608 7.33935C24.2426 6.8081 23.5323 6.50862 22.7895 6.50862C22.0473 6.50862 21.3364 6.8081 20.8181 7.33935C19.7335 8.44937 19.7263 10.2209 20.8025 11.3393L24.3305 14.9832C23.2276 14.2365 21.7485 14.3869 20.8181 15.3406C20.4249 15.743 20.1612 16.2541 20.0623 16.8074C19.8845 17.7195 20.1599 18.661 20.8012 19.3328L25.3155 23.9995C25.1222 23.8022 24.9158 23.59 24.712 23.3758C24.2042 22.8426 23.5011 22.5386 22.7647 22.534C22.0284 22.5294 21.322 22.825 20.8077 23.3517C19.7329 24.4513 19.7329 26.2091 20.8077 27.3087L29.4041 35.9995L37.8585 27.3328C38.9412 26.2195 38.9412 24.4468 37.8585 23.3328C36.8481 22.3003 35.2094 22.2293 34.1143 23.1714Z" fill="#70942D"/>
<path d="M33.3359 16H48.0026V57.3333H33.3359V16Z" fill="#63A6D3"/>
<path d="M48 57.332H61.3333V15.9987L54.6667 9.33203L48 15.9987V57.332Z" fill="#4092C9"/>
<path d="M33.3359 15.9987L40.0026 9.33203H54.6693L48.0026 15.9987H33.3359Z" fill="#579FD0"/>
<path d="M40 4H54.6667V9.33333H40V4Z" fill="#D6D9DB"/>
<path d="M33.3359 40.6667V57.3333H48.0026V26L33.3359 40.6667Z" fill="#579FD0"/>
<path d="M68.6554 1.33203C71.1053 1.3763 73.3794 2.61523 74.7446 4.65104C76.1098 6.68619 76.3937 9.26041 75.5044 11.5443L61.6151 48.5162C60.5604 51.3932 57.8299 53.3131 54.7661 53.332C52.3156 53.2877 50.0415 52.0488 48.6763 50.013C47.3117 47.9778 47.0278 45.4036 47.9165 43.1198L61.8045 6.14778C62.8599 3.27083 65.591 1.35156 68.6554 1.33203Z" fill="#D68033"/>
<path d="M47.9165 43.1191C47.0278 45.403 47.3117 47.9772 48.6763 50.0123C50.0415 52.0482 52.3156 53.2871 54.7661 53.3314C57.8299 53.3125 60.5604 51.3926 61.6151 48.5156L70.6261 24.5312C65.1437 28.7318 58.6997 31.4961 51.8781 32.5742L47.9165 43.1191Z" fill="#D17726"/>
<path d="M63.9766 12.4115L66.5124 11.5859L69.1165 19.5866L66.5807 20.4115L63.9766 12.4115Z" fill="#C96E23"/>
<path d="M60.0625 21.7474L62.5983 20.9219L65.2031 28.9212L62.6673 29.7474L60.0625 21.7474Z" fill="#C96E23"/>
<path d="M15.2266 13.957L17.5846 12.7109L22.5156 22.0449L20.1575 23.2904L15.2266 13.957Z" fill="#88B337"/>
<path d="M11.1094 17.9349L12.8984 15.957L20.4531 22.7904L18.6647 24.7682L11.1094 17.9349Z" fill="#88B337"/>
<path d="M38.0604 51.9585C36.8931 52.7359 35.3248 52.4904 34.4498 51.3941L17.7831 30.4781C16.6907 29.1923 16.1952 27.5035 16.4205 25.8309C16.6457 24.1591 17.5709 22.661 18.9647 21.7105C20.3567 20.7698 22.0871 20.4755 23.7115 20.9026C25.3365 21.3297 26.6978 22.4371 27.4472 23.941L39.0083 48.562C39.578 49.7723 39.175 51.217 38.0617 51.9585H38.0604Z" fill="#FF7230"/>
<path d="M22.5599 27.3008L18.0391 30.7982L19.6999 32.8835L24.1921 29.4102L22.5599 27.3008Z" fill="#DE5718"/>
<path d="M26.2324 32.8438L22.1953 36.0091L23.8581 38.0963L27.8796 34.944L26.2324 32.8438Z" fill="#DE5718"/>
<path d="M45.3307 34.0013C45.3307 38.0514 42.0475 41.3346 37.9974 41.3346C33.9473 41.3346 30.6641 38.0514 30.6641 34.0013C30.6641 29.9512 33.9473 26.668 37.9974 26.668C42.0475 26.668 45.3307 29.9512 45.3307 34.0013Z" fill="#FF9B30"/>
<path d="M41.3112 27.4648C41.916 30.2148 41.1029 33.0846 39.1458 35.1087C37.1881 37.1328 34.3464 38.0417 31.5781 37.5286C33.0898 40.2988 36.2051 41.791 39.3112 41.2331C42.4173 40.6758 44.8183 38.1927 45.2721 35.0697C45.7259 31.9466 44.1302 28.8835 41.3112 27.4648Z" fill="#F28E22"/>
<path d="M52 33.332L48 35.9987L44 33.332L40 35.9987L36 33.332L32 35.9987L28 33.332L24 35.9987L20 33.332V73.332C20 76.2773 22.388 78.6653 25.3333 78.6653H56V35.9987L52 33.332Z" fill="#F0AE62"/>
<path d="M64 35.9987L60 33.332L56 35.9987V78.6653H62.6667C65.612 78.6653 68 76.2773 68 73.332V33.332L64 35.9987Z" fill="#E6994E"/>
<path d="M25.2949 76.0773L25.7598 75.1437C27.2324 72.1984 27.9993 68.9503 28 65.6573C28.0104 63.7296 27.0338 61.9314 25.4115 60.8911C23.7891 59.8501 21.7474 59.712 20 60.5252V73.3331C20.002 75.4301 21.2344 77.3305 23.1478 78.1879C24.0768 77.74 24.8314 76.9985 25.2949 76.0773Z" fill="#EDA047"/>
<path d="M15.9974 63.9987H13.3307V58.6654C13.3307 57.1927 12.1367 55.9987 10.6641 55.9987V53.332C13.6094 53.332 15.9974 55.72 15.9974 58.6654V63.9987Z" fill="#965735"/>
<path d="M18.4388 78.6666C17.7116 78.6666 16.9941 78.4974 16.3437 78.1719L14.6667 77.3333L12.9896 78.1719C12.3392 78.4974 11.6217 78.6666 10.8945 78.6666C9.12044 78.6666 7.49869 77.664 6.70508 76.0775L6.24023 75.1439C4.76758 72.1986 4.00065 68.9505 4 65.6575C3.99935 62.5325 6.53255 59.9993 9.65755 60C11.1575 60 12.5963 60.5964 13.6575 61.6576L14.6667 62.6667L15.6758 61.6576C16.737 60.5964 18.1758 60 19.6758 60C22.8008 59.9993 25.334 62.5325 25.3333 65.6575C25.3333 68.9518 24.5664 72.2012 23.0931 75.1478L22.6282 76.0814C21.8333 77.6666 20.2122 78.6673 18.4388 78.6666Z" fill="#E3584B"/>
<path d="M22.7591 60.9219C19.6152 69.9766 11.2754 74.5006 6.85156 76.3222C8.08268 78.47 10.778 79.2825 12.9915 78.1725L14.6686 77.334L16.3457 78.1725C18.6595 79.3301 21.4733 78.3919 22.6302 76.0781L23.095 75.1445C24.5677 72.1992 25.3346 68.9512 25.3353 65.6582C25.3346 63.7448 24.3652 61.9622 22.7591 60.9219Z" fill="#D64740"/>
<path d="M63.9766 12.4115L66.5124 11.5859L69.1165 19.5866L66.5807 20.4115L63.9766 12.4115Z" fill="#222124"/>
<path d="M60.0625 21.7474L62.5983 20.9219L65.2031 28.9212L62.6673 29.7474L60.0625 21.7474Z" fill="#222124"/>
<path d="M15.1016 25.6361C14.8203 27.6732 15.4147 29.7344 16.7389 31.308L18.6641 33.7227V56H21.3307V35.8255L23.2571 37.1094C23.7057 37.4082 24.2891 37.4082 24.7376 37.1094L27.9974 34.9336L31.2571 37.1068C31.7057 37.4056 32.289 37.4056 32.7376 37.1068L35.9974 34.9336L39.2571 37.1068C39.7057 37.4056 40.289 37.4056 40.7376 37.1068L43.9974 34.9336L47.2571 37.1068C47.7057 37.4056 48.289 37.4056 48.7376 37.1068L51.9974 34.9336L54.664 36.7109V77.3333H25.3307V80H62.664C66.3443 79.9954 69.3261 77.0136 69.3307 73.3333V33.3333C69.3274 33.0404 69.2265 32.7565 69.0442 32.5267L76.7493 12.0137C77.7864 9.25784 77.4068 6.1693 75.7337 3.74678C74.1438 1.39652 71.4889 -0.0084255 68.6523 3.80224e-05C65.0364 0.0338922 61.8157 2.293 60.5533 5.68167L58.4628 11.2468L55.9974 8.78128V4.00003C55.9974 3.26371 55.4003 2.6667 54.664 2.6667H39.9974C39.261 2.6667 38.664 3.26371 38.664 4.00003V6.28779C37.1569 4.92191 34.8834 4.84443 33.2864 6.1055V4.00003C33.2864 1.81774 31.5176 0.048215 29.3346 0.048215C27.1523 0.048215 25.3828 1.81774 25.3828 4.00003V6.1068C24.653 5.50199 23.7344 5.17126 22.7864 5.17321C21.6862 5.17061 20.6315 5.61462 19.8639 6.40433C18.2825 8.03389 18.2728 10.6224 19.8411 12.2643L21.0827 13.5456C20.6308 13.7526 20.2207 14.0404 19.8724 14.3946L19.8639 14.3998L19.8509 14.4134C19.5404 14.7324 19.2832 15.0996 19.0905 15.5013L17.571 12.6947L15.2253 13.9642L18.6732 20.3281C18.5189 20.416 18.3639 20.5013 18.2174 20.6016C18.1628 20.6387 18.1146 20.6817 18.0612 20.7188L12.9017 15.9642L11.0938 17.9252L16.2187 22.6504C15.6302 23.5508 15.2487 24.5703 15.1016 25.6361ZM43.2571 32.224L39.9974 34.3997L36.7376 32.2266C36.289 31.9277 35.7057 31.9277 35.2571 32.2266L32.028 34.3802C32.0202 34.2467 31.9974 34.1309 31.9974 34.0026C31.9889 31.0723 34.1041 28.5664 36.9941 28.0833C39.8847 27.5996 42.6998 29.2806 43.6452 32.0547C43.5078 32.0905 43.3769 32.1471 43.2571 32.224ZM46.664 33.5091L46.6386 33.4922C46.4785 30.6895 44.9687 28.1387 42.5885 26.6498C40.209 25.1608 37.2545 24.9186 34.664 26V17.3334H46.664V33.5091ZM66.664 73.3333C66.664 75.5423 64.873 77.3333 62.664 77.3333H57.3307V36.7135L59.9973 34.9336L63.2571 37.1068C63.7057 37.4056 64.289 37.4056 64.7376 37.1068L66.664 35.8255V73.3333ZM63.0494 6.61852C63.9186 4.26826 66.1464 2.6973 68.6523 2.6667C70.6119 2.6628 72.4446 3.6348 73.5416 5.2585C74.7187 6.96357 74.9843 9.1374 74.2532 11.0762L65.9973 33.0664L63.9973 34.3997L60.7376 32.2266C60.289 31.9277 59.7057 31.9277 59.2571 32.2266L55.9974 34.3997L53.2923 32.5964L63.0494 6.61852ZM57.4335 13.9883L50.3574 32.8242L49.3307 33.5091V16.5521L54.664 11.2188L57.4335 13.9883ZM41.3307 5.33337H53.3307V8.00003H41.3307V5.33337ZM40.5495 10.6667H51.4453L47.4453 14.6667H36.5495L40.5495 10.6667ZM21.7669 8.27477C22.0345 7.99873 22.4023 7.84248 22.7864 7.84248C23.1712 7.84313 23.5391 7.99873 23.8066 8.27477L25.7643 10.2748C26.1445 10.6628 26.722 10.7806 27.2239 10.5742C27.7259 10.3672 28.0527 9.87633 28.0495 9.33336V4.00003C28.028 3.52673 28.2682 3.08011 28.6745 2.83728C29.0814 2.59379 29.5885 2.59379 29.9948 2.83728C30.4017 3.08011 30.6419 3.52673 30.6198 4.00003V9.33336C30.6204 9.87438 30.9479 10.3614 31.4492 10.5658C31.9499 10.7709 32.5247 10.6524 32.9043 10.267L34.8678 8.26696C35.4303 7.71292 36.3327 7.71292 36.8945 8.26696C37.4739 8.86006 37.4739 9.80667 36.8945 10.3998L32.9668 14.3998L33.0065 14.4401L32.388 15.0586C32.2806 15.1693 32.194 15.2982 32.1308 15.4388C32.112 15.4798 32.1015 15.5215 32.0866 15.5638C32.0469 15.6778 32.0228 15.7962 32.015 15.916C32.015 15.9453 31.9987 15.9694 31.9987 15.9987V27.7598C31.6953 28.0501 31.4134 28.362 31.1562 28.6934L28.6374 23.3333C27.7077 21.4837 26.0273 20.1231 24.0241 19.6003C23.5579 19.4798 23.0801 19.4069 22.5989 19.3841L22.2572 18.9837C21.9909 18.6784 21.7897 18.4401 21.7572 18.4069C21.4128 18.0462 21.2637 17.541 21.3574 17.0508C21.4069 16.7722 21.5351 16.5143 21.7266 16.3067L21.7506 16.2839L21.7838 16.2481C22.2669 15.7748 23.015 15.7051 23.5775 16.0801C24.1432 16.4584 24.9023 16.3496 25.3398 15.8288C25.7773 15.3073 25.7519 14.541 25.2812 14.0495L21.7572 10.4121C21.1849 9.81318 21.1894 8.86852 21.7669 8.27477ZM17.7441 26C17.918 24.7077 18.6335 23.5501 19.7122 22.8171C20.7819 22.0938 22.1107 21.8646 23.3613 22.1882C24.6113 22.5124 25.6621 23.3581 26.2454 24.5104L29.6439 31.7494C29.5599 32.0612 29.4935 32.3776 29.4453 32.6973L28.7428 32.2279C28.2949 31.929 27.7109 31.929 27.263 32.2279L23.9974 34.3997L21.0404 32.4264L20.7545 32.0684L24.192 29.4108L22.5599 27.3014L19.0937 29.9824L18.7975 29.6133C17.9492 28.6133 17.5664 27.2995 17.7441 26Z" fill="#222124"/>
<path d="M5.51107 76.6732C6.52409 78.7168 8.61132 80.0065 10.8919 79.9987C11.8262 79.9974 12.7467 79.7799 13.5827 79.3639L14.6641 78.8229L15.7467 79.3639C16.582 79.7799 17.5026 79.9974 18.4362 79.9987C20.7174 80.0065 22.804 78.7168 23.8177 76.6732L24.2825 75.7402C25.8437 72.6074 26.6588 69.1562 26.664 65.6562C26.6595 61.7969 23.5325 58.6699 19.6732 58.6654C18.3724 58.6693 17.0983 59.0384 15.9974 59.7318V58.6654C15.9974 55.72 13.6094 53.332 10.6641 53.332V55.9987C12.1367 55.9987 13.3307 57.1927 13.3307 58.6654V59.7318C12.2298 59.0384 10.9557 58.6693 9.65494 58.6654C5.79557 58.6699 2.66862 61.7969 2.66406 65.6562C2.66862 69.1569 3.48372 72.6094 5.04557 75.7428L5.51107 76.6732ZM9.65494 61.332C10.8021 61.3288 11.903 61.7851 12.7122 62.5989L13.7213 63.6081C14.2422 64.1282 15.0859 64.1282 15.6068 63.6081L16.6159 62.5989C17.8529 61.362 19.7122 60.9922 21.3281 61.6614C22.944 62.3307 23.9974 63.9075 23.9974 65.6562C23.9941 68.7435 23.2754 71.7877 21.8971 74.5508L21.4323 75.4844C20.8665 76.6204 19.7051 77.3366 18.4362 77.332C17.9167 77.3314 17.4043 77.2103 16.9388 76.9785L15.2604 76.1386C14.8848 75.9511 14.4433 75.9511 14.0683 76.1386L12.3906 76.9785C11.9251 77.2103 11.4121 77.3314 10.8919 77.332C9.62239 77.3359 8.46028 76.6178 7.89583 75.4798L7.43099 74.5469C6.05338 71.7851 5.33463 68.7422 5.33073 65.6562C5.33398 63.2695 7.26823 61.3353 9.65494 61.332Z" fill="#222124"/>
</g>
<defs>
<clipPath id="clip0_3175_50879">
<rect width="80" height="80" fill="white"/>
</clipPath>
</defs>
</svg>
