<svg width="22" height="22" viewBox="0 0 22 22" fill="none" xmlns="http://www.w3.org/2000/svg">
<mask id="mask0_1102_29949" style="mask-type:luminance" maskUnits="userSpaceOnUse" x="0" y="0" width="22" height="22">
<rect width="22.0001" height="22.0001" fill="white"/>
</mask>
<g mask="url(#mask0_1102_29949)">
<path fill-rule="evenodd" clip-rule="evenodd" d="M19.9881 9.20442H19.2498V9.16638H10.9997V12.8331H16.1803C15.4245 14.9675 13.3936 16.4998 10.9997 16.4998C7.96233 16.4998 5.49969 14.0371 5.49969 10.9997C5.49969 7.96233 7.96233 5.49969 10.9997 5.49969C12.4018 5.49969 13.6773 6.02861 14.6485 6.89258L17.2413 4.29977C15.6042 2.77397 13.4142 1.83301 10.9997 1.83301C5.93741 1.83301 1.83301 5.93741 1.83301 10.9997C1.83301 16.062 5.93741 20.1664 10.9997 20.1664C16.062 20.1664 20.1664 16.062 20.1664 10.9997C20.1664 10.3851 20.1032 9.78513 19.9881 9.20442Z" fill="#FFC107"/>
<path fill-rule="evenodd" clip-rule="evenodd" d="M2.88818 6.73308L5.89991 8.9418C6.71483 6.9242 8.68843 5.49969 10.998 5.49969C12.4 5.49969 13.6756 6.02861 14.6468 6.89258L17.2396 4.29977C15.6024 2.77397 13.4125 1.83301 10.998 1.83301C7.47704 1.83301 4.42361 3.82081 2.88818 6.73308Z" fill="#FF3D00"/>
<path fill-rule="evenodd" clip-rule="evenodd" d="M11.0015 20.167C13.3693 20.167 15.5207 19.2609 17.1473 17.7873L14.3102 15.3866C13.3899 16.0837 12.2459 16.5003 11.0015 16.5003C8.61723 16.5003 6.59276 14.98 5.83009 12.8584L2.84082 15.1615C4.35791 18.1302 7.43885 20.167 11.0015 20.167Z" fill="#4CAF50"/>
<path fill-rule="evenodd" clip-rule="evenodd" d="M19.9884 9.20503H19.25V9.16699H11V12.8337H16.1806C15.8176 13.859 15.158 14.7431 14.3074 15.3871C14.3078 15.3866 14.3083 15.3866 14.3087 15.3862L17.1458 17.7869C16.9451 17.9693 20.1667 15.5837 20.1667 11.0003C20.1667 10.3857 20.1035 9.78575 19.9884 9.20503Z" fill="#1159E5"/>
</g>
</svg>
