<svg width="73" height="69" viewBox="0 0 73 69" fill="none" xmlns="http://www.w3.org/2000/svg">
<path d="M2.29181 40.1955C4.96187 49.321 12.6582 67.9361 25.6635 66.2652C38.7074 64.5892 33.6135 47.7693 45.5543 45.464C50.8107 44.4491 54.3737 53.5466 59.6419 53.2635C66.4269 52.899 69.8804 46.1827 71.7764 40.5365C75.7967 28.5645 69.7762 8.26361 55.6852 4.74763C43.3887 1.67949 41.9503 16.7035 31.2584 12.3396C25.2489 9.88686 25.8493 2.5622 18.5302 1.08423C-3.61192 -3.38688 -1.26109 28.0529 2.29181 40.1955Z" fill="url(#paint0_linear_3250_102449)"/>
<path opacity="0.1" d="M49.9294 68.3468H23.0586C20.6962 68.3468 18.7812 66.4319 18.7812 64.0695V9.79297C18.7812 7.43059 20.6962 5.51562 23.0586 5.51562H49.9294C52.2918 5.51562 54.2068 7.43059 54.2068 9.79297V64.0693C54.2068 66.4317 52.2918 68.3468 49.9294 68.3468Z" fill="#2626BC"/>
<path d="M49.9294 64.925H23.0586C20.6962 64.925 18.7812 63.01 18.7812 60.6476V6.3711C18.7812 4.00872 20.6962 2.09375 23.0586 2.09375H49.9294C52.2918 2.09375 54.2068 4.00872 54.2068 6.3711V60.6475C54.2068 63.0098 52.2918 64.925 49.9294 64.925Z" fill="#6583FE"/>
<path d="M18.7812 8.21484H54.2062V58.8101H18.7812V8.21484Z" fill="#2D58E0"/>
<path d="M34.1032 26.7887H26.8398C26.0524 26.7887 25.4141 26.1504 25.4141 25.3629V18.6602C25.4141 17.8727 26.0524 17.2344 26.8398 17.2344H34.1032C34.8907 17.2344 35.529 17.8727 35.529 18.6602V25.3629C35.529 26.1504 34.8907 26.7887 34.1032 26.7887Z" fill="#1F50C9"/>
<path d="M46.2126 26.7496H38.9492C38.1618 26.7496 37.5234 26.1113 37.5234 25.3238V18.6211C37.5234 17.8336 38.1618 17.1953 38.9492 17.1953H46.2126C47 17.1953 47.6384 17.8336 47.6384 18.6211V25.3238C47.6384 26.1113 47 26.7496 46.2126 26.7496Z" fill="#1F50C9"/>
<path d="M54.1702 17.1953V26.7495H51.0977C50.3106 26.7495 49.6719 26.1107 49.6719 25.3237V18.6211C49.6719 17.8341 50.3106 17.1953 51.0977 17.1953H54.1702Z" fill="#1F50C9"/>
<path d="M44.1751 11.2695H28.8223C28.4286 11.2695 28.1094 11.5888 28.1094 11.9824C28.1094 12.3761 28.4286 12.6953 28.8223 12.6953H44.1751C44.5687 12.6953 44.888 12.3761 44.888 11.9824C44.888 11.5888 44.5689 11.2695 44.1751 11.2695Z" fill="white"/>
<path d="M34.1032 25.2887H26.8398C26.0524 25.2887 25.4141 24.6504 25.4141 23.8629V17.1602C25.4141 16.3727 26.0524 15.7344 26.8398 15.7344H34.1032C34.8907 15.7344 35.529 16.3727 35.529 17.1602V23.8629C35.529 24.6504 34.8907 25.2887 34.1032 25.2887Z" fill="#FF7EB8"/>
<path d="M32.5912 22.3086H29.6426C29.2489 22.3086 28.9297 22.6278 28.9297 23.0215C28.9297 23.4151 29.2489 23.7344 29.6426 23.7344H32.5912C32.9849 23.7344 33.3041 23.4151 33.3041 23.0215C33.3041 22.6278 32.9849 22.3086 32.5912 22.3086Z" fill="white"/>
<path d="M32.5932 19.9805H31.7832C31.3895 19.9805 31.0703 20.2997 31.0703 20.6934C31.0703 21.087 31.3895 21.4062 31.7832 21.4062H32.5932C32.9868 21.4062 33.3061 21.087 33.3061 20.6934C33.3061 20.2997 32.9868 19.9805 32.5932 19.9805Z" fill="white"/>
<path d="M46.2126 25.2498H38.9492C38.1618 25.2498 37.5234 24.6114 37.5234 23.824V17.1211C37.5234 16.3336 38.1618 15.6953 38.9492 15.6953H46.2126C47 15.6953 47.6384 16.3336 47.6384 17.1211V23.8238C47.6384 24.6113 47 25.2498 46.2126 25.2498Z" fill="#02FFB3"/>
<path d="M44.7006 22.2695H41.752C41.3583 22.2695 41.0391 22.5888 41.0391 22.9824C41.0391 23.3761 41.3583 23.6953 41.752 23.6953H44.7006C45.0943 23.6953 45.4135 23.3761 45.4135 22.9824C45.4135 22.5888 45.0943 22.2695 44.7006 22.2695Z" fill="white"/>
<path d="M44.7026 19.9414H43.8926C43.4989 19.9414 43.1797 20.2606 43.1797 20.6543C43.1797 21.048 43.4989 21.3672 43.8926 21.3672H44.7026C45.0962 21.3672 45.4155 21.048 45.4155 20.6543C45.4155 20.2606 45.0962 19.9414 44.7026 19.9414Z" fill="white"/>
<path d="M54.1702 15.6953V25.2495H51.0977C50.3106 25.2495 49.6719 24.6107 49.6719 23.8237V17.1211C49.6719 16.3341 50.3106 15.6953 51.0977 15.6953H54.1702Z" fill="#9FB0FE"/>
<path d="M18.7812 58.8106V32.4707C18.7812 30.5031 20.3767 28.9062 22.3457 28.9062H50.6418C52.6108 28.9062 54.2062 30.5031 54.2062 32.4707V58.8106H18.7812Z" fill="white"/>
<path d="M49.9314 65.6395H23.0605C20.3089 65.6395 18.0703 63.4009 18.0703 60.6493V6.37305C18.0703 3.62143 20.3089 1.38281 23.0605 1.38281H49.9314C52.683 1.38281 54.9216 3.62143 54.9216 6.37305V60.6494C54.9216 63.4009 52.683 65.6395 49.9314 65.6395ZM23.0605 2.80859C21.0951 2.80859 19.4961 4.40761 19.4961 6.37305V60.6494C19.4961 62.6148 21.0951 64.2139 23.0605 64.2139H49.9314C51.8968 64.2139 53.4958 62.6148 53.4958 60.6494V6.37305C53.4958 4.40761 51.8968 2.80859 49.9314 2.80859H23.0605Z" fill="#2626BC"/>
<path d="M38.9873 6H34.002C33.6083 6 33.2891 5.68077 33.2891 5.28711C33.2891 4.89345 33.6083 4.57422 34.002 4.57422H38.9873C39.381 4.57422 39.7002 4.89345 39.7002 5.28711C39.7002 5.68077 39.381 6 38.9873 6Z" fill="#B7C5FF"/>
<path d="M42.3147 5.99666C42.7086 5.99666 43.0279 5.67736 43.0279 5.28349C43.0279 4.88961 42.7086 4.57031 42.3147 4.57031C41.9209 4.57031 41.6016 4.88961 41.6016 5.28349C41.6016 5.67736 41.9209 5.99666 42.3147 5.99666Z" fill="#B7C5FF"/>
<path d="M33.4428 33.5117H30.4941C30.1005 33.5117 29.7812 33.831 29.7812 34.2246C29.7812 34.6183 30.1005 34.9375 30.4941 34.9375H33.4428C33.8365 34.9375 34.1557 34.6183 34.1557 34.2246C34.1557 33.831 33.8365 33.5117 33.4428 33.5117Z" fill="#00D890"/>
<path d="M47.9858 36.4023H30.4941C30.1005 36.4023 29.7812 36.7216 29.7812 37.1152C29.7812 37.5089 30.1005 37.8281 30.4941 37.8281H47.9858C48.3794 37.8281 48.6987 37.5089 48.6987 37.1152C48.6987 36.7216 48.3794 36.4023 47.9858 36.4023Z" fill="#9FB0FE"/>
<path d="M26.361 37.8278H23.4707C23.077 37.8278 22.7578 37.5086 22.7578 37.115V34.2246C22.7578 33.831 23.077 33.5117 23.4707 33.5117H26.361C26.7547 33.5117 27.0739 33.831 27.0739 34.2246V37.115C27.0739 37.5086 26.7547 37.8278 26.361 37.8278Z" fill="#02FFB3"/>
<path d="M33.4428 42.3438H30.4941C30.1005 42.3438 29.7812 42.663 29.7812 43.0566C29.7812 43.4503 30.1005 43.7695 30.4941 43.7695H33.4428C33.8365 43.7695 34.1557 43.4503 34.1557 43.0566C34.1557 42.663 33.8365 42.3438 33.4428 42.3438Z" fill="#FF5BA8"/>
<path d="M47.9858 45.2344H30.4941C30.1005 45.2344 29.7812 45.5536 29.7812 45.9473C29.7812 46.3409 30.1005 46.6602 30.4941 46.6602H47.9858C48.3794 46.6602 48.6987 46.3409 48.6987 45.9473C48.6987 45.5536 48.3794 45.2344 47.9858 45.2344Z" fill="#9FB0FE"/>
<path d="M26.361 46.6599H23.4707C23.077 46.6599 22.7578 46.3406 22.7578 45.947V43.0566C22.7578 42.663 23.077 42.3438 23.4707 42.3438H26.361C26.7547 42.3438 27.0739 42.663 27.0739 43.0566V45.947C27.0739 46.3406 26.7547 46.6599 26.361 46.6599Z" fill="#FF7EB8"/>
<path d="M33.4428 51.1758H30.4941C30.1005 51.1758 29.7812 51.495 29.7812 51.8887C29.7812 52.2823 30.1005 52.6016 30.4941 52.6016H33.4428C33.8365 52.6016 34.1557 52.2823 34.1557 51.8887C34.1557 51.495 33.8365 51.1758 33.4428 51.1758Z" fill="#6583FE"/>
<path d="M47.9858 54.0664H30.4941C30.1005 54.0664 29.7812 54.3856 29.7812 54.7793C29.7812 55.173 30.1005 55.4922 30.4941 55.4922H47.9858C48.3794 55.4922 48.6987 55.173 48.6987 54.7793C48.6987 54.3856 48.3794 54.0664 47.9858 54.0664Z" fill="#9FB0FE"/>
<path d="M26.361 55.4919H23.4707C23.077 55.4919 22.7578 55.1727 22.7578 54.779V51.8887C22.7578 51.495 23.077 51.1758 23.4707 51.1758H26.361C26.7547 51.1758 27.0739 51.495 27.0739 51.8887V54.779C27.0739 55.1727 26.7547 55.4919 26.361 55.4919Z" fill="#9FB0FE"/>
<path d="M59.6391 54.638C58.5156 54.638 57.6016 53.7239 57.6016 52.6002C57.6016 51.4766 58.5156 50.5625 59.6391 50.5625C60.7627 50.5625 61.6767 51.4766 61.6767 52.6002C61.6767 53.7239 60.7627 54.638 59.6391 54.638ZM59.6391 51.9884C59.3018 51.9884 59.0273 52.2629 59.0273 52.6004C59.0273 52.9379 59.3018 53.2123 59.6391 53.2123C59.9765 53.2123 60.2509 52.9379 60.2509 52.6004C60.2509 52.2629 59.9765 51.9884 59.6391 51.9884Z" fill="#6583FE"/>
<path d="M11.8203 24.293C11.4267 24.293 11.1074 23.9737 11.1074 23.5801C11.1074 23.1083 10.7237 22.7246 10.252 22.7246C9.85829 22.7246 9.53906 22.4054 9.53906 22.0117C9.53906 21.6181 9.85829 21.2988 10.252 21.2988C10.7237 21.2988 11.1074 20.9152 11.1074 20.4434C11.1074 20.0497 11.4267 19.7305 11.8203 19.7305C12.214 19.7305 12.5332 20.0497 12.5332 20.4434C12.5332 20.9152 12.9169 21.2988 13.3887 21.2988C13.7823 21.2988 14.1016 21.6181 14.1016 22.0117C14.1016 22.4054 13.7823 22.7246 13.3887 22.7246C12.9169 22.7246 12.5332 23.1083 12.5332 23.5801C12.5332 23.9737 12.214 24.293 11.8203 24.293Z" fill="#01ECA5"/>
<path d="M61.6797 61.0898C61.2859 61.0898 60.9668 60.7706 60.9668 60.377C60.9668 59.9052 60.5831 59.5215 60.1113 59.5215C59.7175 59.5215 59.3984 59.2023 59.3984 58.8086C59.3984 58.4149 59.7175 58.0957 60.1113 58.0957C60.5831 58.0957 60.9668 57.712 60.9668 57.2402C60.9668 56.8466 61.2859 56.5273 61.6797 56.5273C62.0735 56.5273 62.3926 56.8466 62.3926 57.2402C62.3926 57.712 62.7763 58.0957 63.248 58.0957C63.6418 58.0957 63.9609 58.4149 63.9609 58.8086C63.9609 59.2023 63.6418 59.5215 63.248 59.5215C62.7763 59.5215 62.3926 59.9052 62.3926 60.377C62.3926 60.7706 62.0735 61.0898 61.6797 61.0898Z" fill="#01ECA5"/>
<path d="M63.25 19.4766C62.8562 19.4766 62.5371 19.1573 62.5371 18.7637C62.5371 18.2919 62.1534 17.9082 61.6816 17.9082C61.2878 17.9082 60.9688 17.589 60.9688 17.1953C60.9688 16.8017 61.2878 16.4824 61.6816 16.4824C62.1534 16.4824 62.5371 16.0987 62.5371 15.627C62.5371 15.2333 62.8562 14.9141 63.25 14.9141C63.6438 14.9141 63.9629 15.2333 63.9629 15.627C63.9629 16.0987 64.3466 16.4824 64.8184 16.4824C65.2122 16.4824 65.5312 16.8017 65.5312 17.1953C65.5312 17.589 65.2122 17.9082 64.8184 17.9082C64.3466 17.9082 63.9629 18.2919 63.9629 18.7637C63.9629 19.1573 63.6438 19.4766 63.25 19.4766Z" fill="#FF5BA8"/>
<path d="M10.3516 31.3242C9.9579 31.3242 9.63867 31.005 9.63867 30.6113C9.63867 30.1395 9.25499 29.7559 8.7832 29.7559C8.38954 29.7559 8.07031 29.4366 8.07031 29.043C8.07031 28.6493 8.38954 28.3301 8.7832 28.3301C9.25499 28.3301 9.63867 27.9464 9.63867 27.4746C9.63867 27.081 9.9579 26.7617 10.3516 26.7617C10.7452 26.7617 11.0645 27.081 11.0645 27.4746C11.0645 27.9464 11.4481 28.3301 11.9199 28.3301C12.3136 28.3301 12.6328 28.6493 12.6328 29.043C12.6328 29.4366 12.3136 29.7559 11.9199 29.7559C11.4481 29.7559 11.0645 30.1395 11.0645 30.6113C11.0645 31.005 10.7454 31.3242 10.3516 31.3242Z" fill="#FF5BA8"/>
<defs>
<linearGradient id="paint0_linear_3250_102449" x1="3.39636" y1="45.954" x2="65.5191" y2="10.0875" gradientUnits="userSpaceOnUse">
<stop stop-color="#DCFDEE" stop-opacity="0"/>
<stop offset="0.6288" stop-color="#D2F3E4"/>
</linearGradient>
</defs>
</svg>
