<svg width="82" height="104" viewBox="0 0 82 104" fill="none" xmlns="http://www.w3.org/2000/svg">
<g clip-path="url(#clip0_3175_50695)">
<path d="M24.4202 24.533C23.6013 30.9651 18.3396 47.0116 4.90764 50.1759C0.999077 47.0474 -3.68596 40.7036 6.46696 32.1999C17.8806 22.6396 17.0926 21.1865 18.9129 17.8716C20.0423 15.8158 23.9475 16.2829 24.4202 24.533Z" fill="#EB8F65"/>
<path d="M53.0773 19.8296C52.3251 21.2222 52.0774 22.7695 52.0026 23.8289C43.1481 28.0283 36.543 26.7419 33.2266 21.9209C35.1778 19.6242 38.6702 17.4673 44.8617 17.8244C46.3698 17.9102 47.7108 17.7299 48.9006 17.3398C48.2745 19.6016 50.924 17.8335 51.53 19.5713C51.8159 20.3897 52.5698 20.1261 53.0773 19.8296Z" fill="#EB8F65"/>
<path d="M67.651 41.832C67.6035 41.8818 68.686 43.4015 68.5933 47.0456C68.4183 53.9001 63.9684 63.6271 52.3531 67.4954C48.8382 68.665 45.5543 69.4778 42.3695 70.0129C11.3761 55.8763 48.2988 25.1349 55.0757 25.5705C59.468 24.2344 61.3948 24.8212 67.2921 23.6328C67.1737 23.6892 65.6973 24.4247 67.7978 25.5917C69.9847 26.8063 68.733 28.2328 69.6117 28.9418C70.4727 29.6383 72.1115 28.97 72.1752 28.9418C71.6643 29.9795 71.2541 31.1695 70.9677 32.5342C70.1668 36.316 69.0053 39.3692 67.651 41.832Z" fill="#FFB48D"/>
<path d="M68.5949 47.0459C62.324 54.0628 52.3281 52.1393 52.3281 52.1393C52.3281 52.1393 61.8096 52.4365 67.6508 41.8359C68.3067 43.144 68.648 44.9615 68.5949 47.0459Z" fill="#F5A27E"/>
<path d="M42.4582 35.4118C43.229 38.2193 42.8719 42.4906 41.0898 46.1821C39.6436 49.1876 37.2498 51.8075 33.7528 52.9445C33.735 52.9529 35.2002 53.3166 36.9616 54.0088C48.8675 58.6713 49.0662 68.0142 40.3932 70.8484C34.6633 72.7118 29.8581 71.8244 26.1277 70.0475C26.1259 70.0475 26.1242 70.0475 26.1224 70.0457C13.1774 67.5885 5.85812 59.1448 4.90538 50.1759C2.71844 29.4309 36.6876 13.3126 55.0759 25.5715C49.8131 27.1973 45.0132 30.48 42.4582 35.4118Z" fill="#F5A27E"/>
<path d="M26.1239 70.0455C22.8267 69.4196 19.8671 68.3942 17.2806 67.0559C16.8616 64.8743 17.0649 62.2773 17.0649 62.2773C17.0649 62.2773 20.2738 67.2557 26.1239 70.0455Z" fill="#EB8F65"/>
<path d="M36.9595 54.0078C32.4283 55.9367 29.2266 53.534 29.2266 53.534C30.9008 53.5975 32.4035 53.382 33.7436 52.9453C34.8981 53.2635 35.9695 53.6189 36.9595 54.0078Z" fill="#EB8F65"/>
<path d="M55.0777 25.5707C49.8149 27.1967 45.0149 30.4792 42.4599 35.4111H42.4581C41.979 33.652 41.0544 32.4675 39.7657 32.3561C36.3958 32.0662 37.7803 38.2663 27.5015 42.1805C17.3253 46.0539 19.4486 54.3864 19.4486 54.3864C19.4486 54.3864 14.3074 45.2141 25.532 40.0429C32.4677 36.8484 34.6882 33.9347 35.8639 32.0359C38.3779 27.9787 41.9756 30.8991 42.4583 32.3206C42.4583 32.3206 44.3774 26.1351 53.6343 24.6836C54.1956 25.0039 54.6116 25.2599 55.0777 25.5707Z" fill="#EB8F65"/>
<path d="M59.7058 17.512C59.2532 19.7661 57.4304 20.0242 55.8411 19.7803C54.851 19.6282 53.9513 19.2817 53.5304 19.1032C53.3606 19.3363 53.2104 19.5823 53.076 19.8296C52.5686 20.1268 51.8155 20.3883 51.5291 19.5697C50.9227 17.8318 48.2725 19.6015 48.9001 17.3386C49.3315 17.2024 49.7399 17.0345 50.1342 16.8435C49.5596 15.4981 47.6643 10.4719 51.255 10.1413C54.6707 9.8266 55.0367 12.2363 55.3425 13.7108C55.7049 13.7037 56.4793 13.7159 57.2837 13.9139C58.6874 14.2606 60.176 15.1675 59.7058 17.512Z" fill="#F0E3E7"/>
<path d="M55.8419 19.7814C54.8519 19.6294 53.9522 19.2828 53.5312 19.1043C53.9114 18.5702 54.3852 18.0806 54.9739 17.6758L55.8419 19.7814Z" fill="#E4D1D7"/>
<path d="M57.2849 13.9156C56.6573 14.3063 55.9926 15.1143 55.9926 15.1143C55.6673 14.8896 55.4268 14.2321 55.3438 13.7123C55.7062 13.7054 56.4805 13.7176 57.2849 13.9156Z" fill="#E4D1D7"/>
<path d="M81.4331 26.6519C80.5261 29.7688 78.0598 29.3091 76.1399 28.3633C74.7343 27.674 73.6188 26.7228 73.6188 26.7228C73.0778 27.3663 72.5934 28.1052 72.1797 28.9449C71.4018 29.2483 70.2653 29.4702 69.6162 28.9449C68.7375 28.236 69.9892 26.8094 67.8023 25.5949C65.9254 24.5521 66.8983 23.8549 67.2121 23.6798C67.2528 23.6572 67.2855 23.6413 67.2966 23.636C68.642 23.362 69.7258 23.0703 70.5779 22.7998C70.0475 20.9717 69.16 16.5572 72.9434 16.543C76.5871 16.5289 76.4846 18.9846 76.7551 20.7843V20.7861C77.6177 22.07 82.7406 22.1642 81.4331 26.6519Z" fill="#FCF4F6"/>
<path d="M76.1383 28.3608C74.7328 27.6715 73.6172 26.7203 73.6172 26.7203C74.1352 26.1016 74.7062 25.5675 75.3232 25.1133C75.3232 25.1133 75.7617 27.0384 76.1383 28.3608Z" fill="#F0E3E7"/>
<path d="M78.0459 21.6196C77.7065 22.1465 77.4766 22.8978 77.4766 22.8978C76.8508 22.4293 76.8349 21.4605 76.75 20.7852C76.9675 21.1089 77.4572 21.3581 78.0459 21.6196Z" fill="#F0E3E7"/>
<mask id="path-15-outside-1_3175_50695" maskUnits="userSpaceOnUse" x="-1" y="8.75781" width="84" height="64" fill="black">
<rect fill="white" x="-1" y="8.75781" width="84" height="64"/>
<path d="M77.092 20.6422C76.8356 18.8474 76.8259 16.1863 72.973 16.1863C69.6039 16.1863 69.2871 19.3211 70.1451 22.5608C63.9951 24.4166 59.9944 23.7448 55.137 25.1855C54.2621 24.6026 53.3417 24.0775 52.3789 23.6133C52.5056 22.207 52.8905 20.7239 53.6643 19.5367C56.5141 20.6617 59.4508 20.5966 60.057 17.5811C60.057 17.4741 60.5008 15.9627 59.5019 14.7691C58.4984 13.5701 56.6368 13.3702 55.634 13.356C55.3219 11.8395 54.738 9.46286 51.2262 9.78798C48.0393 10.0804 48.4627 13.6311 49.6813 16.6646C48.1671 17.3346 46.5378 17.5636 44.8847 17.469C38.4132 17.0958 34.8802 19.4828 33.0424 21.5948C30.2365 22.1091 27.4322 22.9337 24.7423 24.0245C24.1214 15.8568 19.8886 15.3641 18.6045 17.7015C16.7802 21.0248 17.601 22.4137 6.24096 31.9279C2.06279 35.4279 -0.0368151 38.9213 0.000488438 42.3113C0.0400903 45.9033 2.48232 48.657 4.57432 50.3595C5.59036 59.3162 12.9116 67.8832 26.0203 70.3864C28.6296 71.6216 31.3346 72.2399 34.1111 72.2397C37.3052 72.2397 40.5609 71.3678 42.4871 70.3517C45.7183 69.8088 49.076 68.9611 52.4685 67.8308C61.8568 64.7042 65.8079 58.0767 67.3278 54.4046C69.1946 49.8938 69.4752 44.8748 68.0447 41.8329C69.6315 38.8685 70.6181 35.9109 71.3175 32.6071C71.7235 30.673 72.4515 28.7815 73.6707 27.2169C76.9267 29.7604 80.6229 30.6963 81.7728 26.748C83.1332 22.0799 77.9844 21.6876 77.092 20.6422ZM50.4629 16.7036C49.3985 14.2082 48.5895 10.7405 51.291 10.4918C54.2707 10.2204 54.6579 12.1068 54.9673 13.6248C55.0886 14.2172 55.2756 15.0421 55.7942 15.4026C55.8557 15.4454 55.926 15.4659 55.9957 15.4659C56.3405 15.4659 56.4821 15.0193 56.198 14.822C56.0572 14.7241 55.9006 14.4207 55.7929 14.0675C56.6481 14.0989 58.1821 14.2932 58.9598 15.2226C59.8304 16.2632 59.498 18.5064 58.195 19.1931C56.9513 19.8479 55.0698 19.3059 54.1026 18.9459C54.4201 18.5676 54.7801 18.2377 55.1779 17.9636C55.3386 17.8528 55.3792 17.6327 55.2686 17.4718C55.1575 17.3109 54.9376 17.2703 54.7767 17.3811C54.0241 17.8996 53.3472 18.6211 52.821 19.5675C52.4033 19.7922 52.0244 19.9001 51.8679 19.4522C51.4067 18.13 50.005 18.4054 49.3942 18.2387C49.12 18.1636 49.1289 17.9539 49.2013 17.6116C49.5659 17.4868 49.932 17.3353 50.2925 17.1601C50.4619 17.0781 50.5368 16.8771 50.4629 16.7036ZM44.8443 18.1749C46.1211 18.2474 47.3335 18.135 48.4569 17.8383C48.448 18.0144 48.4676 18.1993 48.5348 18.3643C48.992 19.5003 50.793 18.5214 51.1993 19.6854C51.3899 20.2301 51.8099 20.5328 52.3934 20.46C51.9857 21.4626 51.7919 22.4752 51.7009 23.3002C46.699 21.0759 40.6521 20.4059 34.2087 21.3982C36.6889 18.9966 40.2575 17.9094 44.8443 18.1749ZM40.2872 70.511C35.4157 72.0961 30.7039 71.8329 26.2832 69.7282C26.2828 69.728 26.2825 69.728 26.2821 69.7278C20.5945 67.0163 17.3958 62.1342 17.3643 62.0852C17.2582 61.921 17.0394 61.8738 16.8755 61.9798C16.7114 62.0857 16.6642 62.3042 16.7699 62.4685C16.8854 62.6478 19.3039 66.3415 23.7688 69.1472C13.3765 66.3839 6.21249 59.119 5.26187 50.1376C5.25021 50.0289 5.19823 49.9548 5.11779 49.8891C3.12355 48.2889 0.745321 45.677 0.708194 42.3034C0.673366 39.1356 2.68775 35.8271 6.6955 32.4699C18.1793 22.8522 17.397 21.3715 19.2247 18.0418C20.2186 16.2337 23.5588 16.9 24.0538 24.3105C16.2183 27.6449 8.53574 33.6824 5.62501 41.7155C5.55853 41.8992 5.65347 42.102 5.83698 42.1685C6.02103 42.235 6.22346 42.1402 6.28993 41.9565C12.0874 25.9547 38.7857 15.7359 54.2622 25.4593C49.119 27.1827 44.9159 30.438 42.5424 34.5285C41.9477 32.9959 40.9916 32.1071 39.7975 32.0041C36.0148 31.6736 37.712 37.915 27.3772 41.8503C21.9846 43.9028 20.0201 47.2179 19.3216 49.6375C18.5626 52.2668 19.0857 54.3842 19.1084 54.4732C19.1572 54.6648 19.3518 54.7757 19.538 54.7283C19.727 54.6804 19.8415 54.4882 19.7938 54.2988C19.7889 54.2787 19.2936 52.2517 20.0105 49.8014C20.9697 46.5231 23.5328 44.0704 27.6291 42.5113C37.8742 38.6102 36.7667 32.4522 39.7369 32.7086C41.1798 32.8332 41.8494 34.5133 42.1199 35.5039C42.1199 35.5041 42.12 35.5041 42.12 35.5046C43.714 41.3036 40.3585 53.6021 29.2452 53.1819C29.0424 53.1739 28.886 53.3266 28.8785 53.522C28.8713 53.7172 29.0235 53.8813 29.2187 53.8887C30.7727 53.9458 32.2979 53.7729 33.7519 53.3145C42.7325 55.8126 46.0228 60.3798 46.103 63.8303C46.1718 66.8038 43.9978 69.3014 40.2872 70.511ZM70.6256 32.4613C68.9685 40.2886 65.1146 47.6139 57.7009 50.6222C54.6991 51.8405 52.3638 51.7866 52.3405 51.7864C52.1474 51.7723 51.9827 51.9335 51.9763 52.1289C51.9703 52.3241 52.1234 52.4872 52.3187 52.4934C53.4686 52.5323 55.7013 52.1916 57.9332 51.2912C60.7062 50.1727 64.587 47.7644 67.6096 42.626C68.5516 45.1393 68.6092 49.4593 66.6746 54.1344C65.201 57.6952 61.3669 64.1226 52.2454 67.1602C49.4704 68.0847 46.7213 68.8149 44.0467 69.3449C49.3467 65.1485 47.383 56.748 34.8694 52.9031C38.3564 51.4113 40.3408 48.5606 41.4127 46.3359C43.0717 42.897 43.638 38.5462 42.838 35.4521C45.1512 31.0596 49.6391 27.5865 55.1745 25.9107C55.1772 25.91 55.1796 25.9098 55.1821 25.9091C59.2261 24.6827 61.3575 25.0784 66.3551 24.1732C66.1737 24.9392 66.9421 25.5189 67.63 25.901C69.6916 27.0462 68.2705 28.3441 69.4161 29.2337C69.9918 29.6835 70.8139 29.6736 71.5304 29.5136C71.1508 30.4172 70.8473 31.4055 70.6256 32.4613ZM81.0939 26.5502C80.7645 27.6811 80.1942 28.3754 79.399 28.6135C77.5692 29.1602 74.9782 27.3309 74.1296 26.6759C74.5569 26.2026 75.0262 25.7719 75.5336 25.3976C75.6907 25.2818 75.7241 25.0605 75.6082 24.9032C75.4925 24.746 75.271 24.7124 75.1137 24.8285C73.7571 25.8292 72.7024 27.1308 71.9277 28.6583C71.2677 28.8909 70.129 29.1009 69.7398 28.5628C69.3207 27.9928 70.1364 26.4839 67.9735 25.2827C67.2366 24.8735 66.6489 24.4012 67.3828 23.9865C67.5511 23.8914 68.6734 23.7715 70.6839 23.1341C70.8667 23.0763 70.97 22.8829 70.9166 22.6987C70.6091 21.6372 69.9997 19.0265 70.9827 17.7133C71.4569 17.0798 72.1858 16.8935 72.9739 16.8935C75.0686 16.8935 75.7719 17.7281 76.0818 18.8361C76.5418 20.481 76.2047 22.3837 77.2698 23.1794C77.3333 23.227 77.4076 23.2496 77.4811 23.2496C77.8223 23.2496 77.9632 22.8145 77.6931 22.6126C77.4058 22.3982 77.2827 22.0136 77.2124 21.6017C78.925 22.5597 82.114 23.05 81.0939 26.5502Z"/>
</mask>
<path d="M77.092 20.6422C76.8356 18.8474 76.8259 16.1863 72.973 16.1863C69.6039 16.1863 69.2871 19.3211 70.1451 22.5608C63.9951 24.4166 59.9944 23.7448 55.137 25.1855C54.2621 24.6026 53.3417 24.0775 52.3789 23.6133C52.5056 22.207 52.8905 20.7239 53.6643 19.5367C56.5141 20.6617 59.4508 20.5966 60.057 17.5811C60.057 17.4741 60.5008 15.9627 59.5019 14.7691C58.4984 13.5701 56.6368 13.3702 55.634 13.356C55.3219 11.8395 54.738 9.46286 51.2262 9.78798C48.0393 10.0804 48.4627 13.6311 49.6813 16.6646C48.1671 17.3346 46.5378 17.5636 44.8847 17.469C38.4132 17.0958 34.8802 19.4828 33.0424 21.5948C30.2365 22.1091 27.4322 22.9337 24.7423 24.0245C24.1214 15.8568 19.8886 15.3641 18.6045 17.7015C16.7802 21.0248 17.601 22.4137 6.24096 31.9279C2.06279 35.4279 -0.0368151 38.9213 0.000488438 42.3113C0.0400903 45.9033 2.48232 48.657 4.57432 50.3595C5.59036 59.3162 12.9116 67.8832 26.0203 70.3864C28.6296 71.6216 31.3346 72.2399 34.1111 72.2397C37.3052 72.2397 40.5609 71.3678 42.4871 70.3517C45.7183 69.8088 49.076 68.9611 52.4685 67.8308C61.8568 64.7042 65.8079 58.0767 67.3278 54.4046C69.1946 49.8938 69.4752 44.8748 68.0447 41.8329C69.6315 38.8685 70.6181 35.9109 71.3175 32.6071C71.7235 30.673 72.4515 28.7815 73.6707 27.2169C76.9267 29.7604 80.6229 30.6963 81.7728 26.748C83.1332 22.0799 77.9844 21.6876 77.092 20.6422ZM50.4629 16.7036C49.3985 14.2082 48.5895 10.7405 51.291 10.4918C54.2707 10.2204 54.6579 12.1068 54.9673 13.6248C55.0886 14.2172 55.2756 15.0421 55.7942 15.4026C55.8557 15.4454 55.926 15.4659 55.9957 15.4659C56.3405 15.4659 56.4821 15.0193 56.198 14.822C56.0572 14.7241 55.9006 14.4207 55.7929 14.0675C56.6481 14.0989 58.1821 14.2932 58.9598 15.2226C59.8304 16.2632 59.498 18.5064 58.195 19.1931C56.9513 19.8479 55.0698 19.3059 54.1026 18.9459C54.4201 18.5676 54.7801 18.2377 55.1779 17.9636C55.3386 17.8528 55.3792 17.6327 55.2686 17.4718C55.1575 17.3109 54.9376 17.2703 54.7767 17.3811C54.0241 17.8996 53.3472 18.6211 52.821 19.5675C52.4033 19.7922 52.0244 19.9001 51.8679 19.4522C51.4067 18.13 50.005 18.4054 49.3942 18.2387C49.12 18.1636 49.1289 17.9539 49.2013 17.6116C49.5659 17.4868 49.932 17.3353 50.2925 17.1601C50.4619 17.0781 50.5368 16.8771 50.4629 16.7036ZM44.8443 18.1749C46.1211 18.2474 47.3335 18.135 48.4569 17.8383C48.448 18.0144 48.4676 18.1993 48.5348 18.3643C48.992 19.5003 50.793 18.5214 51.1993 19.6854C51.3899 20.2301 51.8099 20.5328 52.3934 20.46C51.9857 21.4626 51.7919 22.4752 51.7009 23.3002C46.699 21.0759 40.6521 20.4059 34.2087 21.3982C36.6889 18.9966 40.2575 17.9094 44.8443 18.1749ZM40.2872 70.511C35.4157 72.0961 30.7039 71.8329 26.2832 69.7282C26.2828 69.728 26.2825 69.728 26.2821 69.7278C20.5945 67.0163 17.3958 62.1342 17.3643 62.0852C17.2582 61.921 17.0394 61.8738 16.8755 61.9798C16.7114 62.0857 16.6642 62.3042 16.7699 62.4685C16.8854 62.6478 19.3039 66.3415 23.7688 69.1472C13.3765 66.3839 6.21249 59.119 5.26187 50.1376C5.25021 50.0289 5.19823 49.9548 5.11779 49.8891C3.12355 48.2889 0.745321 45.677 0.708194 42.3034C0.673366 39.1356 2.68775 35.8271 6.6955 32.4699C18.1793 22.8522 17.397 21.3715 19.2247 18.0418C20.2186 16.2337 23.5588 16.9 24.0538 24.3105C16.2183 27.6449 8.53574 33.6824 5.62501 41.7155C5.55853 41.8992 5.65347 42.102 5.83698 42.1685C6.02103 42.235 6.22346 42.1402 6.28993 41.9565C12.0874 25.9547 38.7857 15.7359 54.2622 25.4593C49.119 27.1827 44.9159 30.438 42.5424 34.5285C41.9477 32.9959 40.9916 32.1071 39.7975 32.0041C36.0148 31.6736 37.712 37.915 27.3772 41.8503C21.9846 43.9028 20.0201 47.2179 19.3216 49.6375C18.5626 52.2668 19.0857 54.3842 19.1084 54.4732C19.1572 54.6648 19.3518 54.7757 19.538 54.7283C19.727 54.6804 19.8415 54.4882 19.7938 54.2988C19.7889 54.2787 19.2936 52.2517 20.0105 49.8014C20.9697 46.5231 23.5328 44.0704 27.6291 42.5113C37.8742 38.6102 36.7667 32.4522 39.7369 32.7086C41.1798 32.8332 41.8494 34.5133 42.1199 35.5039C42.1199 35.5041 42.12 35.5041 42.12 35.5046C43.714 41.3036 40.3585 53.6021 29.2452 53.1819C29.0424 53.1739 28.886 53.3266 28.8785 53.522C28.8713 53.7172 29.0235 53.8813 29.2187 53.8887C30.7727 53.9458 32.2979 53.7729 33.7519 53.3145C42.7325 55.8126 46.0228 60.3798 46.103 63.8303C46.1718 66.8038 43.9978 69.3014 40.2872 70.511ZM70.6256 32.4613C68.9685 40.2886 65.1146 47.6139 57.7009 50.6222C54.6991 51.8405 52.3638 51.7866 52.3405 51.7864C52.1474 51.7723 51.9827 51.9335 51.9763 52.1289C51.9703 52.3241 52.1234 52.4872 52.3187 52.4934C53.4686 52.5323 55.7013 52.1916 57.9332 51.2912C60.7062 50.1727 64.587 47.7644 67.6096 42.626C68.5516 45.1393 68.6092 49.4593 66.6746 54.1344C65.201 57.6952 61.3669 64.1226 52.2454 67.1602C49.4704 68.0847 46.7213 68.8149 44.0467 69.3449C49.3467 65.1485 47.383 56.748 34.8694 52.9031C38.3564 51.4113 40.3408 48.5606 41.4127 46.3359C43.0717 42.897 43.638 38.5462 42.838 35.4521C45.1512 31.0596 49.6391 27.5865 55.1745 25.9107C55.1772 25.91 55.1796 25.9098 55.1821 25.9091C59.2261 24.6827 61.3575 25.0784 66.3551 24.1732C66.1737 24.9392 66.9421 25.5189 67.63 25.901C69.6916 27.0462 68.2705 28.3441 69.4161 29.2337C69.9918 29.6835 70.8139 29.6736 71.5304 29.5136C71.1508 30.4172 70.8473 31.4055 70.6256 32.4613ZM81.0939 26.5502C80.7645 27.6811 80.1942 28.3754 79.399 28.6135C77.5692 29.1602 74.9782 27.3309 74.1296 26.6759C74.5569 26.2026 75.0262 25.7719 75.5336 25.3976C75.6907 25.2818 75.7241 25.0605 75.6082 24.9032C75.4925 24.746 75.271 24.7124 75.1137 24.8285C73.7571 25.8292 72.7024 27.1308 71.9277 28.6583C71.2677 28.8909 70.129 29.1009 69.7398 28.5628C69.3207 27.9928 70.1364 26.4839 67.9735 25.2827C67.2366 24.8735 66.6489 24.4012 67.3828 23.9865C67.5511 23.8914 68.6734 23.7715 70.6839 23.1341C70.8667 23.0763 70.97 22.8829 70.9166 22.6987C70.6091 21.6372 69.9997 19.0265 70.9827 17.7133C71.4569 17.0798 72.1858 16.8935 72.9739 16.8935C75.0686 16.8935 75.7719 17.7281 76.0818 18.8361C76.5418 20.481 76.2047 22.3837 77.2698 23.1794C77.3333 23.227 77.4076 23.2496 77.4811 23.2496C77.8223 23.2496 77.9632 22.8145 77.6931 22.6126C77.4058 22.3982 77.2827 22.0136 77.2124 21.6017C78.925 22.5597 82.114 23.05 81.0939 26.5502Z" fill="#222124"/>
<path d="M77.092 20.6422C76.8356 18.8474 76.8259 16.1863 72.973 16.1863C69.6039 16.1863 69.2871 19.3211 70.1451 22.5608C63.9951 24.4166 59.9944 23.7448 55.137 25.1855C54.2621 24.6026 53.3417 24.0775 52.3789 23.6133C52.5056 22.207 52.8905 20.7239 53.6643 19.5367C56.5141 20.6617 59.4508 20.5966 60.057 17.5811C60.057 17.4741 60.5008 15.9627 59.5019 14.7691C58.4984 13.5701 56.6368 13.3702 55.634 13.356C55.3219 11.8395 54.738 9.46286 51.2262 9.78798C48.0393 10.0804 48.4627 13.6311 49.6813 16.6646C48.1671 17.3346 46.5378 17.5636 44.8847 17.469C38.4132 17.0958 34.8802 19.4828 33.0424 21.5948C30.2365 22.1091 27.4322 22.9337 24.7423 24.0245C24.1214 15.8568 19.8886 15.3641 18.6045 17.7015C16.7802 21.0248 17.601 22.4137 6.24096 31.9279C2.06279 35.4279 -0.0368151 38.9213 0.000488438 42.3113C0.0400903 45.9033 2.48232 48.657 4.57432 50.3595C5.59036 59.3162 12.9116 67.8832 26.0203 70.3864C28.6296 71.6216 31.3346 72.2399 34.1111 72.2397C37.3052 72.2397 40.5609 71.3678 42.4871 70.3517C45.7183 69.8088 49.076 68.9611 52.4685 67.8308C61.8568 64.7042 65.8079 58.0767 67.3278 54.4046C69.1946 49.8938 69.4752 44.8748 68.0447 41.8329C69.6315 38.8685 70.6181 35.9109 71.3175 32.6071C71.7235 30.673 72.4515 28.7815 73.6707 27.2169C76.9267 29.7604 80.6229 30.6963 81.7728 26.748C83.1332 22.0799 77.9844 21.6876 77.092 20.6422ZM50.4629 16.7036C49.3985 14.2082 48.5895 10.7405 51.291 10.4918C54.2707 10.2204 54.6579 12.1068 54.9673 13.6248C55.0886 14.2172 55.2756 15.0421 55.7942 15.4026C55.8557 15.4454 55.926 15.4659 55.9957 15.4659C56.3405 15.4659 56.4821 15.0193 56.198 14.822C56.0572 14.7241 55.9006 14.4207 55.7929 14.0675C56.6481 14.0989 58.1821 14.2932 58.9598 15.2226C59.8304 16.2632 59.498 18.5064 58.195 19.1931C56.9513 19.8479 55.0698 19.3059 54.1026 18.9459C54.4201 18.5676 54.7801 18.2377 55.1779 17.9636C55.3386 17.8528 55.3792 17.6327 55.2686 17.4718C55.1575 17.3109 54.9376 17.2703 54.7767 17.3811C54.0241 17.8996 53.3472 18.6211 52.821 19.5675C52.4033 19.7922 52.0244 19.9001 51.8679 19.4522C51.4067 18.13 50.005 18.4054 49.3942 18.2387C49.12 18.1636 49.1289 17.9539 49.2013 17.6116C49.5659 17.4868 49.932 17.3353 50.2925 17.1601C50.4619 17.0781 50.5368 16.8771 50.4629 16.7036ZM44.8443 18.1749C46.1211 18.2474 47.3335 18.135 48.4569 17.8383C48.448 18.0144 48.4676 18.1993 48.5348 18.3643C48.992 19.5003 50.793 18.5214 51.1993 19.6854C51.3899 20.2301 51.8099 20.5328 52.3934 20.46C51.9857 21.4626 51.7919 22.4752 51.7009 23.3002C46.699 21.0759 40.6521 20.4059 34.2087 21.3982C36.6889 18.9966 40.2575 17.9094 44.8443 18.1749ZM40.2872 70.511C35.4157 72.0961 30.7039 71.8329 26.2832 69.7282C26.2828 69.728 26.2825 69.728 26.2821 69.7278C20.5945 67.0163 17.3958 62.1342 17.3643 62.0852C17.2582 61.921 17.0394 61.8738 16.8755 61.9798C16.7114 62.0857 16.6642 62.3042 16.7699 62.4685C16.8854 62.6478 19.3039 66.3415 23.7688 69.1472C13.3765 66.3839 6.21249 59.119 5.26187 50.1376C5.25021 50.0289 5.19823 49.9548 5.11779 49.8891C3.12355 48.2889 0.745321 45.677 0.708194 42.3034C0.673366 39.1356 2.68775 35.8271 6.6955 32.4699C18.1793 22.8522 17.397 21.3715 19.2247 18.0418C20.2186 16.2337 23.5588 16.9 24.0538 24.3105C16.2183 27.6449 8.53574 33.6824 5.62501 41.7155C5.55853 41.8992 5.65347 42.102 5.83698 42.1685C6.02103 42.235 6.22346 42.1402 6.28993 41.9565C12.0874 25.9547 38.7857 15.7359 54.2622 25.4593C49.119 27.1827 44.9159 30.438 42.5424 34.5285C41.9477 32.9959 40.9916 32.1071 39.7975 32.0041C36.0148 31.6736 37.712 37.915 27.3772 41.8503C21.9846 43.9028 20.0201 47.2179 19.3216 49.6375C18.5626 52.2668 19.0857 54.3842 19.1084 54.4732C19.1572 54.6648 19.3518 54.7757 19.538 54.7283C19.727 54.6804 19.8415 54.4882 19.7938 54.2988C19.7889 54.2787 19.2936 52.2517 20.0105 49.8014C20.9697 46.5231 23.5328 44.0704 27.6291 42.5113C37.8742 38.6102 36.7667 32.4522 39.7369 32.7086C41.1798 32.8332 41.8494 34.5133 42.1199 35.5039C42.1199 35.5041 42.12 35.5041 42.12 35.5046C43.714 41.3036 40.3585 53.6021 29.2452 53.1819C29.0424 53.1739 28.886 53.3266 28.8785 53.522C28.8713 53.7172 29.0235 53.8813 29.2187 53.8887C30.7727 53.9458 32.2979 53.7729 33.7519 53.3145C42.7325 55.8126 46.0228 60.3798 46.103 63.8303C46.1718 66.8038 43.9978 69.3014 40.2872 70.511ZM70.6256 32.4613C68.9685 40.2886 65.1146 47.6139 57.7009 50.6222C54.6991 51.8405 52.3638 51.7866 52.3405 51.7864C52.1474 51.7723 51.9827 51.9335 51.9763 52.1289C51.9703 52.3241 52.1234 52.4872 52.3187 52.4934C53.4686 52.5323 55.7013 52.1916 57.9332 51.2912C60.7062 50.1727 64.587 47.7644 67.6096 42.626C68.5516 45.1393 68.6092 49.4593 66.6746 54.1344C65.201 57.6952 61.3669 64.1226 52.2454 67.1602C49.4704 68.0847 46.7213 68.8149 44.0467 69.3449C49.3467 65.1485 47.383 56.748 34.8694 52.9031C38.3564 51.4113 40.3408 48.5606 41.4127 46.3359C43.0717 42.897 43.638 38.5462 42.838 35.4521C45.1512 31.0596 49.6391 27.5865 55.1745 25.9107C55.1772 25.91 55.1796 25.9098 55.1821 25.9091C59.2261 24.6827 61.3575 25.0784 66.3551 24.1732C66.1737 24.9392 66.9421 25.5189 67.63 25.901C69.6916 27.0462 68.2705 28.3441 69.4161 29.2337C69.9918 29.6835 70.8139 29.6736 71.5304 29.5136C71.1508 30.4172 70.8473 31.4055 70.6256 32.4613ZM81.0939 26.5502C80.7645 27.6811 80.1942 28.3754 79.399 28.6135C77.5692 29.1602 74.9782 27.3309 74.1296 26.6759C74.5569 26.2026 75.0262 25.7719 75.5336 25.3976C75.6907 25.2818 75.7241 25.0605 75.6082 24.9032C75.4925 24.746 75.271 24.7124 75.1137 24.8285C73.7571 25.8292 72.7024 27.1308 71.9277 28.6583C71.2677 28.8909 70.129 29.1009 69.7398 28.5628C69.3207 27.9928 70.1364 26.4839 67.9735 25.2827C67.2366 24.8735 66.6489 24.4012 67.3828 23.9865C67.5511 23.8914 68.6734 23.7715 70.6839 23.1341C70.8667 23.0763 70.97 22.8829 70.9166 22.6987C70.6091 21.6372 69.9997 19.0265 70.9827 17.7133C71.4569 17.0798 72.1858 16.8935 72.9739 16.8935C75.0686 16.8935 75.7719 17.7281 76.0818 18.8361C76.5418 20.481 76.2047 22.3837 77.2698 23.1794C77.3333 23.227 77.4076 23.2496 77.4811 23.2496C77.8223 23.2496 77.9632 22.8145 77.6931 22.6126C77.4058 22.3982 77.2827 22.0136 77.2124 21.6017C78.925 22.5597 82.114 23.05 81.0939 26.5502Z" stroke="#222124" mask="url(#path-15-outside-1_3175_50695)"/>
</g>
<g clip-path="url(#clip1_3175_50695)">
<path d="M75.6209 77.1892C75.3629 77.9373 74.9372 78.6164 74.3764 79.1747C70.3674 83.1837 60.5064 79.8112 52.3459 71.6507C44.1854 63.4902 40.8129 53.6292 44.8219 49.6202C45.4581 48.9882 46.2417 48.5246 47.1019 48.2712C51.8709 46.7892 59.9744 50.2662 66.8524 57.1442C73.8824 64.1742 77.3594 72.4677 75.6209 77.1892Z" fill="#F5A27E"/>
<path d="M66.8478 57.1446C60.4439 50.7406 52.9807 47.2902 48.1328 48.0436C52.7831 48.6354 58.7453 51.8949 63.9978 57.1474C71.0278 64.1774 74.5048 72.4709 72.7663 77.1924C72.5081 77.9404 72.0825 78.6195 71.5218 79.1779C70.6002 80.0513 69.4201 80.602 68.1588 80.7473C70.7457 81.0836 72.9354 80.6096 74.3699 79.1751C74.9306 78.6167 75.3562 77.9376 75.6144 77.1896C77.3548 72.4681 73.8778 64.1746 66.8478 57.1446Z" fill="#EB8F65"/>
<path d="M74.3722 79.1761C74.6947 78.857 74.9727 78.4959 75.1987 78.1026C73.4701 80.9988 71.3578 83.648 68.9192 85.9781C61.7847 93.0271 50.0332 95.6206 41.5497 93.5876C38.798 93.0231 36.2563 91.7078 34.2062 89.7876C32.286 87.7375 30.9707 85.1958 30.4062 82.4441C28.3732 73.9606 30.9667 62.2091 38.0157 55.0746C40.321 52.6845 42.923 50.5997 45.7582 48.8711C45.4184 49.0863 45.103 49.338 44.8177 49.6216C40.8087 53.6306 44.1812 63.4916 52.3417 71.6521C60.5022 79.8126 70.3632 83.1851 74.3722 79.1761Z" fill="#02A9F4"/>
<path d="M45.7603 48.8711C43.8543 50.0052 42.0658 51.3262 40.4213 52.8145C39.5825 57.6595 43.0253 65.1845 49.4929 71.6521C55.8883 78.0465 63.3163 81.4846 68.1613 80.7483C63.5187 80.1441 57.5831 76.8932 52.3419 71.6521C44.1833 63.4916 40.8108 53.6306 44.8198 49.6216C45.1051 49.338 45.4205 49.0863 45.7603 48.8711Z" fill="#0377BC"/>
<path d="M74.3756 79.1751C73.3439 80.1486 72.0021 80.7274 70.586 80.81C69.2114 82.6416 67.7028 84.3687 66.0726 85.9771C60.8656 91.1223 53.201 93.882 46.1406 94.2126C53.9126 94.5936 63.0041 91.8243 68.9226 85.9771C71.3611 83.6469 73.4734 80.9978 75.2021 78.1016C74.976 78.4949 74.698 78.8559 74.3756 79.1751Z" fill="#0377BC"/>
<path d="M38.779 102.679C38.5354 103.005 38.1044 103.129 37.7245 102.983C35.891 102.071 30.381 98.8025 31.369 92.6275C25.194 93.6155 21.926 88.1055 21.014 86.272C20.8675 85.8921 20.9918 85.4611 21.318 85.2175C23.8509 83.1054 27.129 82.1052 30.4095 82.4435C30.974 85.1952 32.2893 87.7369 34.2095 89.787C36.2597 91.7072 38.8013 93.0225 41.553 93.587C41.8913 96.8675 40.8911 100.146 38.779 102.679Z" fill="#3F51B5"/>
<path d="M41.5534 93.5871C38.8017 93.0226 36.26 91.7074 34.2099 89.7871C32.2896 87.737 30.9744 85.1953 30.4099 82.4436C29.4653 82.3408 28.5118 82.3536 27.5703 82.4816C28.1372 85.2191 29.4485 87.7471 31.3599 89.7871C33.41 91.7074 35.9517 93.0226 38.7034 93.5871C39.0159 96.6483 38.1541 99.7139 36.2923 102.164C36.7546 102.462 37.2328 102.736 37.7249 102.983C38.1048 103.129 38.5358 103.005 38.7794 102.679C40.8914 100.146 41.8917 96.8676 41.5534 93.5871Z" fill="#283593"/>
<path d="M58.3799 62.9203C59.4927 61.8075 58.8913 59.4018 57.0366 57.5471C55.1819 55.6924 52.7762 55.091 51.6634 56.2038C50.5506 57.3166 51.152 59.7223 53.0067 61.577C54.8614 63.4317 57.2671 64.0331 58.3799 62.9203Z" fill="#F5F5F5"/>
<path d="M20.1627 86.6928C21.0424 88.4674 24.2724 93.9451 30.3106 93.6867C30.0607 99.7344 35.5308 102.955 37.3225 103.843C37.5426 103.946 37.7826 103.999 38.0255 103.998C38.61 103.99 39.1598 103.719 39.5227 103.261C41.4772 100.877 42.5534 97.8941 42.5713 94.8115C44.1971 95.1137 45.8472 95.266 47.5008 95.2665C55.2737 95.2665 63.9216 92.2588 69.5902 86.651C72.1987 84.1797 74.4309 81.3394 76.2155 78.2207C76.2269 78.196 76.225 78.1694 76.2355 78.1447C77.308 75.9369 77.2748 72.9273 76.0749 69.4142C74.2183 64.5215 71.2979 60.1024 67.5249 56.4761C59.8584 48.8134 50.9493 45.3526 45.9162 47.7276C45.8982 47.7352 45.8773 47.7333 45.8592 47.7418C42.7096 49.5342 39.8415 51.781 37.3472 54.4099C30.5129 61.3154 27.5461 72.6499 29.1734 81.4269C26.0913 81.4501 23.1103 82.5287 20.727 84.4831C20.0555 85.0038 19.8231 85.9139 20.1627 86.6928ZM66.1778 57.8194C69.7475 61.2399 72.5136 65.41 74.2766 70.0288C75.5752 73.8288 75.371 76.8394 73.7066 78.5076C70.1365 82.072 60.664 78.6273 53.0184 70.9817C45.3728 63.3361 41.9234 53.8608 45.4897 50.2935C49.056 46.7263 58.5313 50.1719 66.1778 57.8194ZM38.6981 55.7399C39.8646 54.5609 41.0938 53.4455 42.3803 52.3987C41.3192 57.5829 44.8019 65.4508 51.6723 72.3212C57.7314 78.3803 64.5742 81.8212 69.6615 81.8212C70.309 81.8226 70.9551 81.7589 71.59 81.6312C70.5448 82.9122 69.4323 84.1369 68.2574 85.3001C58.6244 94.8276 41.2897 95.5278 34.882 89.1191C28.4742 82.7104 29.1706 65.3738 38.6981 55.7399ZM29.6161 83.344C30.2872 86.0139 31.6375 88.4648 33.5358 90.4586C35.5306 92.3514 37.9807 93.6967 40.6485 94.364C40.7635 97.1688 39.8298 99.9158 38.0293 102.069C35.9298 101.003 31.4572 98.069 32.3103 92.7728C32.3588 92.4716 32.2596 92.1655 32.0438 91.9498C31.828 91.7342 31.5218 91.6354 31.2207 91.6841C25.9235 92.5391 22.969 88.0285 21.9202 85.9565C24.0744 84.1648 26.8164 83.2353 29.6161 83.3478V83.344Z" fill="#222124"/>
<path d="M56.884 64.4251C57.359 64.4275 57.8288 64.3273 58.2615 64.1315L63.0961 68.9661C63.4688 69.3261 64.0614 69.321 64.4278 68.9545C64.7943 68.5881 64.7994 67.9955 64.4394 67.6228L59.6086 62.792C59.9408 61.996 59.993 61.1108 59.7568 60.2812C59.3918 58.9873 58.6895 57.8136 57.7219 56.8802C55.4609 54.6182 52.5102 54.0302 51.0045 55.5359C49.4987 57.0417 50.0877 59.9933 52.3478 62.2534C53.5244 63.5336 55.149 64.3113 56.884 64.4251ZM52.3478 56.8802C52.5793 56.6795 52.8809 56.5787 53.1866 56.5999C54.4144 56.729 55.5513 57.3072 56.3786 58.2235C57.1012 58.9164 57.6302 59.7863 57.9129 60.7467C58.1077 61.2488 58.0362 61.8153 57.7229 62.2534C57.0883 62.888 55.2291 62.4434 53.692 60.9101C52.1549 59.3768 51.7141 57.5091 52.3478 56.8802Z" fill="#222124"/>
<path d="M38.9063 84.464C39.1385 84.4584 39.37 84.4359 39.5989 84.3966C39.2978 86.4198 40.3285 88.4079 42.1553 89.3281C43.9822 90.2482 46.1932 89.8928 47.6397 88.4464C47.9997 88.0737 47.9946 87.4811 47.6281 87.1147C47.2617 86.7482 46.6691 86.7431 46.2964 87.1031C45.2992 88.1045 43.7177 88.2212 42.5844 87.377C41.451 86.5328 41.11 84.9842 41.7839 83.742C43.3789 84.7436 45.4177 84.6969 46.9652 83.6233C48.5826 84.7442 50.7257 84.7442 52.3431 83.6233C54.2263 84.9233 56.7695 84.6919 58.387 83.0732C58.6399 82.8361 58.7435 82.4802 58.6575 82.1444C58.5714 81.8087 58.3094 81.5464 57.9737 81.4601C57.638 81.3739 57.2819 81.4773 57.0447 81.7299C56.3245 82.45 55.2748 82.7311 54.2911 82.4674C53.3075 82.2037 52.5392 81.4352 52.2757 80.4515C52.0123 79.4677 52.2936 78.4182 53.0138 77.6981C53.3848 77.3269 53.3846 76.7253 53.0134 76.3543C52.6421 75.9834 52.0405 75.9836 51.6696 76.3548C50.5423 77.4321 48.767 77.4321 47.6397 76.3548C46.5271 75.2419 46.5271 73.4378 47.6397 72.3249C47.9997 71.9522 47.9946 71.3596 47.6281 70.9932C47.2617 70.6267 46.6691 70.6216 46.2964 70.9816C45.5762 71.7018 44.5264 71.9831 43.5426 71.7195C42.5588 71.4559 41.7903 70.6874 41.5267 69.7036C41.2631 68.7198 41.5444 67.67 42.2646 66.9498C42.6246 66.5771 42.6195 65.9845 42.253 65.6181C41.8866 65.2516 41.294 65.2465 40.9213 65.6065C39.3356 67.2394 39.1079 69.7587 40.375 71.6495C39.2634 73.2691 39.2634 75.4059 40.375 77.0255C39.3137 78.5746 39.2646 80.6034 40.2496 82.2021C39.1439 82.7751 37.7965 82.5844 36.8933 81.7271C36.3584 81.1925 36.0579 80.4674 36.0579 79.7112C36.0579 78.955 36.3584 78.2298 36.8933 77.6953C37.2436 77.3206 37.2333 76.7355 36.87 76.3734C36.5066 76.0114 35.9215 76.0031 35.5481 76.3548C34.1893 77.7132 33.7827 79.7563 34.5178 81.5314C35.2529 83.3065 36.985 84.464 38.9063 84.464ZM42.2646 81.7299C41.3812 80.8375 41.186 79.4721 41.7839 78.3679C42.725 78.9829 43.8649 79.2166 44.9721 79.0215C44.9329 79.2504 44.9103 79.4818 44.9046 79.714C44.9064 80.5975 45.1566 81.4626 45.6266 82.2106C44.5224 82.8085 43.157 82.6133 42.2646 81.7299ZM50.3282 79.0424C50.1721 80.142 50.405 81.2616 50.9865 82.2078C49.8833 82.7765 48.5411 82.5861 47.6397 81.7328C46.7454 80.849 46.5468 79.4787 47.1533 78.3774C48.1021 78.9614 49.2247 79.1965 50.3282 79.0424ZM44.954 73.6435C44.9208 73.8741 44.9043 74.1069 44.9046 74.3399C44.9063 75.2204 45.1551 76.0828 45.6228 76.8289C44.5169 77.4027 43.1688 77.2119 42.2655 76.3539C41.3823 75.4642 41.1863 74.101 41.7829 72.9985C42.735 73.5701 43.8543 73.7978 44.954 73.6435Z" fill="#222124"/>
</g>
<defs>
<clipPath id="clip0_3175_50695">
<rect width="82" height="82" fill="white"/>
</clipPath>
<clipPath id="clip1_3175_50695">
<rect width="57" height="57" fill="white" transform="translate(20 47)"/>
</clipPath>
</defs>
</svg>
