<svg width="70" height="70" viewBox="0 0 70 70" fill="none" xmlns="http://www.w3.org/2000/svg">
<path d="M26.2908 66.9173H43.3078C43.7031 66.9173 44.0944 66.8395 44.4595 66.6883C44.8247 66.537 45.1565 66.3154 45.4359 66.0359C45.7154 65.7565 45.9371 65.4247 46.0883 65.0596C46.2396 64.6945 46.3174 64.3031 46.3174 63.9079V60.2348C45.5863 54.6253 45.638 49.6621 46.3174 43.7467V40.446L27.697 37.5039L23.2812 54.1349V63.9079C23.2813 64.7061 23.5984 65.4715 24.1628 66.0359C24.7272 66.6002 25.4927 66.9173 26.2908 66.9173Z" fill="#FFBE71"/>
<path d="M59.9769 21.1635L60.7447 18.1862C60.7683 18.0944 60.822 18.013 60.8972 17.9552C60.9724 17.8974 61.0648 17.8664 61.1597 17.8672C61.2546 17.868 61.3464 17.9005 61.4207 17.9595C61.4949 18.0186 61.5473 18.1008 61.5694 18.193L62.2826 21.1615C62.4468 21.845 62.784 22.4749 63.2617 22.9906C63.7395 23.5064 64.3417 23.8906 65.0108 24.1066L66.5326 24.5978C66.619 24.6257 66.6942 24.6805 66.7472 24.7541C66.8002 24.8278 66.8282 24.9165 66.8271 25.0072C66.8261 25.098 66.796 25.186 66.7413 25.2584C66.6866 25.3308 66.6102 25.3838 66.5232 25.4096L65.0779 25.8393C64.383 26.0458 63.7553 26.4327 63.2586 26.9607C62.7619 27.4888 62.4141 28.139 62.2505 28.8452L61.5902 31.6936C61.5685 31.7874 61.5156 31.8711 61.4402 31.9309C61.3647 31.9907 61.2711 32.0232 61.1748 32.0228C61.0785 32.0225 60.9852 31.9895 60.9101 31.9292C60.835 31.8689 60.7826 31.7849 60.7616 31.6909L60.1342 28.9051C59.9752 28.1988 59.632 27.5472 59.1396 27.0166C58.6472 26.4859 58.0231 26.095 57.3307 25.8836L55.7386 25.3973C55.653 25.3712 55.5778 25.3187 55.5237 25.2474C55.4697 25.1761 55.4395 25.0895 55.4376 25C55.4357 24.9105 55.462 24.8227 55.5129 24.7491C55.5639 24.6754 55.6367 24.6198 55.7211 24.59L57.37 24.008C58.0046 23.7841 58.5742 23.4075 59.0289 22.9114C59.4835 22.4154 59.8091 21.8151 59.9769 21.1635Z" fill="#FFBE71"/>
<path d="M46.3168 43.7461H31.2155C30.5866 43.7461 29.9834 43.9959 29.5386 44.4405C29.0939 44.8852 28.8439 45.4883 28.8438 46.1172V57.862C28.8438 58.491 29.0937 59.0942 29.5385 59.539C29.9833 59.9837 30.5865 60.2336 31.2155 60.2336H46.3168V43.7461Z" fill="white"/>
<path d="M42.5061 50.094H39.6775V47.2656H35.8831V50.094H33.0547V53.8884H35.8831V56.7169H39.6775V53.8884H42.5061V50.094Z" fill="#F74F73"/>
<path d="M59.3049 60.2344H64.502C64.9408 60.2344 65.3754 60.3208 65.7808 60.4888C66.1862 60.6567 66.5546 60.9029 66.8649 61.2132C67.1751 61.5236 67.4212 61.892 67.5891 62.2974C67.757 62.7029 67.8434 63.1374 67.8433 63.5763C67.8433 64.4624 67.4913 65.3123 66.8646 65.9389C66.238 66.5655 65.3882 66.9175 64.502 66.9175H59.3049C58.8129 64.4803 58.6953 62.2028 59.3049 60.2344Z" fill="#BDDEFF"/>
<path d="M54.1067 60.2344H59.3038V66.9169H54.1067C53.2207 66.9169 52.371 66.5649 51.7444 65.9384C51.1179 65.3119 50.7658 64.4623 50.7656 63.5763C50.7655 63.1374 50.8519 62.7029 51.0198 62.2975C51.1876 61.892 51.4337 61.5236 51.744 61.2133C52.0542 60.903 52.4226 60.6568 52.828 60.4888C53.2334 60.3209 53.6679 60.2344 54.1067 60.2344Z" fill="#7AAEED"/>
<path d="M62.3252 52.3551C61.1159 53.0201 59.7213 53.2682 58.3569 53.0611C56.9925 52.854 55.7343 52.2032 54.7769 51.2093L53.2011 48.3445C52.8753 47.0041 52.9999 45.5936 53.5558 44.3311C54.1117 43.0686 55.0678 42.0243 56.2765 41.3594C57.4852 40.6946 58.8791 40.4463 60.243 40.6528C61.607 40.8594 62.8649 41.5093 63.8226 42.5022L65.3984 45.3672C65.725 46.7078 65.601 48.1187 65.0455 49.3818C64.4901 50.6448 63.534 51.6898 62.3252 52.3551Z" fill="#BDDEFF"/>
<path d="M53.2031 48.3456C53.4665 49.4226 54.0101 50.4108 54.7787 51.2098L65.3986 45.3681C65.1353 44.2912 64.5919 43.303 63.8234 42.5039L53.2031 48.3456Z" fill="#7AAEED"/>
<path d="M60.9863 12.957C61.4145 12.957 61.7616 12.6098 61.7616 12.1816C61.7616 11.7534 61.4145 11.4062 60.9863 11.4062C60.5581 11.4062 60.2109 11.7534 60.2109 12.1816C60.2109 12.6098 60.5581 12.957 60.9863 12.957Z" fill="#FFBE71"/>
<path d="M23.2812 35.1719H46.3174V40.4462H23.2812V35.1719Z" fill="#EF8E4D"/>
<path d="M29.6172 38.2183H48.4348V34.1614C48.4348 33.5395 48.1877 32.9431 47.7479 32.5033C47.3082 32.0635 46.7118 31.8165 46.0898 31.8164H32.1631C30.8961 34.0021 29.9316 36.1502 29.6172 38.2183Z" fill="#FFBE71"/>
<path d="M23.5167 31.8164C22.8948 31.8165 22.2984 32.0635 21.8586 32.5033C21.4189 32.9431 21.1719 33.5395 21.1719 34.1614V38.2183H29.6131L32.159 31.8164H23.5167Z" fill="#EF8E4D"/>
<path d="M30.8231 35.1719H23.2812V54.1351L30.8231 35.1719Z" fill="#EF8E4D"/>
<path d="M7.63307 6.26875L8.4008 3.29148C8.42452 3.19965 8.47827 3.11838 8.55349 3.06061C8.62872 3.00285 8.7211 2.97189 8.81594 2.97267C8.91079 2.97345 9.00264 3.00593 9.07691 3.06493C9.15117 3.12393 9.20357 3.20606 9.22577 3.29827L9.93895 6.26669C10.1033 6.95006 10.4404 7.57973 10.9181 8.09528C11.3958 8.61083 11.998 8.99496 12.6669 9.2108L14.1888 9.70204C14.2751 9.72995 14.3503 9.78475 14.4032 9.85843C14.4562 9.93211 14.4842 10.0208 14.4831 10.1115C14.482 10.2023 14.452 10.2903 14.3973 10.3627C14.3427 10.4351 14.2663 10.4881 14.1793 10.514L12.7348 10.9431C12.04 11.1496 11.4123 11.5366 10.9156 12.0646C10.4189 12.5926 10.0711 13.2428 9.90745 13.949L9.24698 16.7976C9.22524 16.8913 9.17232 16.9749 9.09689 17.0346C9.02147 17.0944 8.92799 17.1268 8.83176 17.1265C8.73553 17.1262 8.64225 17.0933 8.56718 17.0331C8.49211 16.9729 8.43969 16.889 8.41851 16.7951L7.79119 14.0093C7.63209 13.303 7.28892 12.6515 6.79653 12.1207C6.30413 11.59 5.68006 11.1991 4.98769 10.9876L3.39477 10.5017C3.30916 10.4756 3.23397 10.4231 3.17993 10.3518C3.12589 10.2804 3.09576 10.1938 3.09385 10.1043C3.09193 10.0148 3.11832 9.92702 3.16925 9.85341C3.22018 9.77981 3.29306 9.72417 3.37748 9.69442L5.02639 9.11239C5.66077 8.88853 6.23035 8.51206 6.68492 8.01616C7.1395 7.52026 7.46511 6.92016 7.63307 6.26875Z" fill="#FFBE71"/>
<path d="M26.5864 15.8782L29.482 17.0271C29.6851 17.1077 29.8479 17.2657 29.9346 17.4663C30.0212 17.6669 30.0246 17.8937 29.944 18.0968L28.9746 20.54L24.547 18.7833L25.5164 16.3403C25.5562 16.2397 25.6156 16.1479 25.6909 16.0702C25.7663 15.9925 25.8563 15.9305 25.9556 15.8875C26.055 15.8446 26.1618 15.8217 26.2701 15.8201C26.3783 15.8185 26.4858 15.8382 26.5864 15.8782Z" fill="#7AAEED"/>
<path d="M24.4739 18.2033L29.425 20.1678C29.597 20.236 29.7539 20.3375 29.8867 20.4663C30.0195 20.5952 30.1256 20.749 30.1989 20.9189C30.2723 21.0888 30.3115 21.2715 30.3143 21.4565C30.317 21.6415 30.2833 21.8253 30.2151 21.9973L28.5579 26.1741L20.9871 23.1702L22.6441 18.994C22.7123 18.8219 22.8137 18.665 22.9426 18.5321C23.0715 18.3992 23.2253 18.293 23.3952 18.2196C23.5651 18.1462 23.7479 18.1069 23.9329 18.1041C24.118 18.1013 24.3019 18.135 24.4739 18.2033Z" fill="white"/>
<path d="M24.1274 18.0658L29.7715 20.3053C29.898 20.3555 30.0134 20.4301 30.1111 20.5249C30.2087 20.6196 30.2868 20.7327 30.3407 20.8577C30.3947 20.9826 30.4235 21.117 30.4255 21.253C30.4276 21.3891 30.4028 21.5243 30.3526 21.6508L28.5579 26.1741L20.9871 23.1702L22.7816 18.6475C22.8318 18.5209 22.9063 18.4054 23.0011 18.3077C23.0959 18.2099 23.209 18.1318 23.334 18.0778C23.4589 18.0238 23.5933 17.9949 23.7295 17.9929C23.8656 17.9908 24.0008 18.0156 24.1274 18.0658Z" fill="#497FCE"/>
<path d="M19.4176 54.9514L7.89844 50.3808L18.7114 23.128C18.7895 22.931 18.9057 22.7513 19.0532 22.5993C19.2008 22.4472 19.3769 22.3257 19.5714 22.2416C19.7659 22.1576 19.9751 22.1127 20.187 22.1096C20.3988 22.1064 20.6093 22.145 20.8062 22.2231L29.3258 25.6031C29.5229 25.6811 29.7026 25.7972 29.8548 25.9448C30.007 26.0923 30.1286 26.2683 30.2127 26.4629C30.2968 26.6574 30.3418 26.8666 30.3451 27.0785C30.3483 27.2904 30.3098 27.5009 30.2317 27.6979L28.9443 30.943C28.7657 31.1129 28.626 31.3196 28.5351 31.5488C28.4441 31.778 28.4041 32.0242 28.4177 32.2704L27.3226 35.0306C27.0165 35.4095 26.8328 35.8725 26.796 36.3582L25.6999 39.1176C25.3713 39.4829 25.1845 39.9538 25.1732 40.4449L24.0781 43.2052C23.7789 43.588 23.5962 44.0487 23.5517 44.5325L22.4564 47.293C22.1787 47.6878 21.9984 48.1426 21.9299 48.6203L19.4176 54.9514Z" fill="#BDDEFF"/>
<path d="M11.3828 52.8984L15.1615 54.3977L12.3243 61.5484L8.54561 60.0491L11.3828 52.8984Z" fill="#497FCE"/>
<path d="M5.051 58.2471L16.0988 62.6306C16.4729 62.779 16.7727 63.0699 16.9322 63.4394C17.0918 63.8088 17.098 64.2265 16.9496 64.6006L16.0164 66.9526L2.1478 61.4499L3.08103 59.0979C3.22944 58.7238 3.52037 58.424 3.88981 58.2645C4.25925 58.1049 4.67694 58.0987 5.051 58.2471Z" fill="#7AAEED"/>
<path d="M20.4622 53.7264L7.9804 48.774C7.40874 48.5472 6.76144 48.8267 6.53462 49.3984L5.86319 51.0906C5.63636 51.6623 5.91592 52.3096 6.48758 52.5364L18.9694 57.4888C19.541 57.7156 20.1883 57.4361 20.4151 56.8644L21.0866 55.1722C21.3134 54.6005 21.0338 53.9532 20.4622 53.7264Z" fill="#7AAEED"/>
<path d="M26.574 30.0046C26.4867 29.9696 26.3934 29.9521 26.2994 29.9532C26.2054 29.9543 26.1125 29.9739 26.0261 30.011C25.9397 30.0481 25.8615 30.1019 25.7959 30.1693C25.7304 30.2367 25.6788 30.3164 25.6441 30.4038C25.6094 30.4912 25.5923 30.5846 25.5938 30.6786C25.5954 30.7726 25.6154 30.8654 25.6529 30.9516C25.6904 31.0379 25.7445 31.1159 25.8122 31.1811C25.8799 31.2464 25.9598 31.2976 26.0473 31.3319L28.415 32.2712L28.9416 30.9439L26.574 30.0046Z" fill="#7AAEED"/>
<path d="M24.9538 34.0933C24.8667 34.0587 24.7735 34.0416 24.6798 34.0431C24.586 34.0445 24.4935 34.0643 24.4074 34.1015C24.3213 34.1387 24.2434 34.1925 24.1781 34.2598C24.1128 34.3271 24.0614 34.4066 24.0268 34.4938C23.9923 34.581 23.9752 34.6741 23.9766 34.7678C23.9781 34.8616 23.9979 34.9542 24.0351 35.0402C24.0723 35.1263 24.1261 35.2042 24.1934 35.2695C24.2607 35.3348 24.3402 35.3862 24.4274 35.4208L26.795 36.36L27.3217 35.0325L24.9538 34.0933Z" fill="#7AAEED"/>
<path d="M21.751 37.5552C21.5755 37.4879 21.3806 37.4924 21.2084 37.568C21.0363 37.6435 20.9009 37.7838 20.8315 37.9586C20.7622 38.1333 20.7646 38.3283 20.8382 38.5013C20.9118 38.6743 21.0506 38.8113 21.2246 38.8825L25.1668 40.4472L25.6935 39.1185L21.751 37.5552Z" fill="#7AAEED"/>
<path d="M21.7068 42.2702C21.6195 42.2352 21.5262 42.2177 21.4322 42.2188C21.3382 42.2199 21.2453 42.2396 21.1589 42.2766C21.0725 42.3137 20.9943 42.3675 20.9287 42.4349C20.8632 42.5023 20.8116 42.582 20.7769 42.6694C20.7422 42.7568 20.7251 42.8502 20.7267 42.9442C20.7282 43.0382 20.7482 43.131 20.7857 43.2173C20.8232 43.3035 20.8773 43.3815 20.945 43.4468C21.0127 43.512 21.0926 43.5633 21.1801 43.5976L23.5478 44.5368L24.0742 43.2095L21.7068 42.2702Z" fill="#7AAEED"/>
<path d="M20.0874 46.3552C19.9114 46.2852 19.7147 46.2881 19.5408 46.3631C19.3668 46.4381 19.2298 46.5792 19.1598 46.7553C19.0899 46.9314 19.0928 47.128 19.1678 47.302C19.2428 47.4759 19.3839 47.6129 19.56 47.6829L21.9276 48.6221L22.4541 47.2948L20.0874 46.3552Z" fill="#7AAEED"/>
<path d="M23.2843 56.4772C23.0949 56.4772 22.9133 56.5524 22.7794 56.6863C22.6455 56.8202 22.5703 57.0018 22.5703 57.1912V63.9075C22.5714 64.8947 22.964 65.8411 23.6621 66.5392C24.3601 67.2372 25.3065 67.6299 26.2937 67.6311H43.3109C44.2981 67.6299 45.2445 67.2372 45.9425 66.5392C46.6406 65.8411 47.0332 64.8947 47.0343 63.9075V38.9313H48.4318C48.6212 38.9313 48.8028 38.856 48.9367 38.7221C49.0706 38.5882 49.1458 38.4066 49.1458 38.2173V34.1604C49.1449 33.3494 48.8223 32.5719 48.2489 31.9985C47.6755 31.425 46.898 31.1025 46.087 31.1016H31.885C31.6957 31.1016 31.5141 31.1768 31.3802 31.3107C31.2463 31.4446 31.171 31.6262 31.171 31.8156C31.171 32.0049 31.2463 32.1865 31.3802 32.3204C31.5141 32.4543 31.6957 32.5296 31.885 32.5296H46.087C46.5194 32.5301 46.9339 32.702 47.2396 33.0078C47.5453 33.3135 47.7173 33.728 47.7178 34.1604V37.5033H29.4602C29.2708 37.5033 29.0892 37.5785 28.9553 37.7124C28.8214 37.8463 28.7462 38.0279 28.7462 38.2173C28.7462 38.4066 28.8214 38.5882 28.9553 38.7221C29.0892 38.856 29.2708 38.9313 29.4602 38.9313H45.6063V42.8278H31.219C30.4009 42.8285 29.6164 43.1537 29.0378 43.7322C28.4593 44.3108 28.134 45.0952 28.1333 45.9134V57.8619C28.1342 58.68 28.4597 59.4643 29.0381 60.0428C29.6166 60.6213 30.4009 60.9467 31.219 60.9477H45.6063V63.9075C45.6056 64.5161 45.3636 65.0995 44.9333 65.5299C44.503 65.9603 43.9195 66.2024 43.3109 66.2031H26.2937C25.6851 66.2024 25.1016 65.9603 24.6713 65.5299C24.241 65.0995 23.999 64.5161 23.9983 63.9075V57.1912C23.9983 57.0974 23.9798 57.0046 23.944 56.9179C23.9081 56.8313 23.8555 56.7526 23.7892 56.6863C23.7229 56.62 23.6442 56.5674 23.5575 56.5315C23.4709 56.4956 23.3781 56.4772 23.2843 56.4772ZM29.5613 57.8621V45.9134C29.5618 45.4739 29.7366 45.0525 30.0474 44.7417C30.3582 44.431 30.7795 44.2561 31.219 44.2556H45.6063V59.5197H31.219C30.7796 59.5192 30.3582 59.3444 30.0475 59.0336C29.7367 58.7229 29.5619 58.3016 29.5613 57.8621Z" fill="#222124"/>
<path d="M1.89666 62.079L15.7587 67.5783C15.8458 67.613 15.9389 67.6301 16.0327 67.6287C16.1264 67.6273 16.219 67.6075 16.305 67.5703C16.3911 67.5331 16.469 67.4793 16.5342 67.4119C16.5994 67.3446 16.6507 67.2651 16.6852 67.1779L17.6178 64.8271C17.8352 64.2771 17.8256 63.6634 17.5911 63.1205C17.3566 62.5776 16.9163 62.1499 16.3669 61.9311L13.3979 60.7533L15.0243 56.6548L18.7096 58.1166C18.9327 58.2051 19.171 58.2488 19.4109 58.2452C19.6508 58.2416 19.8877 58.1908 20.108 58.0957C20.3283 58.0005 20.5277 57.8629 20.6948 57.6907C20.8618 57.5184 20.9934 57.315 21.0818 57.0919L21.7528 55.4008C21.918 54.9825 21.9234 54.518 21.7679 54.096C21.6124 53.674 21.3069 53.324 20.9097 53.113L30.889 27.9587C31.1029 27.4174 31.1064 26.8156 30.8988 26.2719C30.6912 25.7281 30.2876 25.2818 29.7674 25.0208L31.0076 21.8948C31.1752 21.4734 31.1722 21.0032 30.9993 20.5839C30.8263 20.1645 30.4971 19.8289 30.0811 19.6481L30.5983 18.344C30.6729 18.1563 30.7098 17.9557 30.7068 17.7537C30.7038 17.5517 30.6611 17.3523 30.581 17.1668C30.5009 16.9813 30.3851 16.8135 30.2401 16.6728C30.0951 16.5321 29.9239 16.4214 29.7361 16.3469L28.9537 16.0363L33.9873 3.34794C34.0231 3.26055 34.0412 3.16693 34.0406 3.07249C34.04 2.97806 34.0206 2.88469 33.9836 2.79778C33.9467 2.71088 33.8928 2.63218 33.8252 2.56623C33.7576 2.50028 33.6776 2.44839 33.5899 2.41358C33.5021 2.37876 33.4083 2.3617 33.3138 2.3634C33.2194 2.36509 33.1263 2.38549 33.0398 2.42343C32.9533 2.46137 32.8752 2.51609 32.81 2.58442C32.7448 2.65275 32.6938 2.73333 32.66 2.8215L27.6262 15.5096L26.8438 15.1987C26.4646 15.0485 26.0413 15.0549 25.6668 15.2166C25.2924 15.3784 24.9974 15.6821 24.8468 16.0612L24.3294 17.3652C23.9025 17.2117 23.4327 17.2304 23.0193 17.4172C22.6059 17.6039 22.2814 17.9442 22.1145 18.366L20.8745 21.4913C20.3167 21.324 19.7165 21.372 19.1924 21.6258C18.6682 21.8795 18.2583 22.3206 18.0436 22.8619L8.06304 48.0168C7.62918 47.8974 7.16649 47.9423 6.76373 48.143C6.36098 48.3438 6.04652 48.6861 5.88068 49.1045L5.20971 50.7956C5.03171 51.2461 5.03962 51.7488 5.23171 52.1935C5.42379 52.6382 5.78437 52.9885 6.23439 53.1678L9.91969 54.6295L8.29322 58.7278L5.32398 57.55C4.77403 57.3326 4.16034 57.3423 3.61747 57.5767C3.07461 57.8112 2.64687 58.2514 2.42804 58.8007L1.49539 61.1515C1.42578 61.3274 1.42885 61.5238 1.50393 61.6976C1.57901 61.8713 1.71996 62.0081 1.89583 62.0779L1.89666 62.079ZM26.3155 16.5267L29.2096 17.6747C29.223 17.68 29.2353 17.6878 29.2456 17.6979C29.256 17.7079 29.2643 17.7199 29.27 17.7331C29.2758 17.7463 29.2789 17.7606 29.2791 17.775C29.2793 17.7894 29.2767 17.8037 29.2714 17.8171L28.7552 19.1187L25.6571 17.8896L26.1735 16.5882C26.1842 16.5612 26.2051 16.5396 26.2318 16.5281C26.2584 16.5165 26.2885 16.516 26.3155 16.5267ZM23.4406 18.8929C23.4722 18.8136 23.5339 18.7501 23.6123 18.7163C23.6906 18.6825 23.7792 18.6811 23.8585 18.7125L29.4997 20.9505C29.579 20.982 29.6426 21.0437 29.6764 21.1221C29.7102 21.2005 29.7115 21.2891 29.6801 21.3684L28.4437 24.4846L22.2043 22.0087L23.4406 18.8929ZM19.3699 23.3881C19.4134 23.2783 19.4782 23.1781 19.5604 23.0933C19.6427 23.0085 19.7409 22.9407 19.8494 22.8939C19.9578 22.847 20.0745 22.822 20.1926 22.8203C20.3107 22.8185 20.4281 22.8401 20.5379 22.8837L29.0573 26.2637C29.1671 26.3072 29.2673 26.372 29.352 26.4543C29.4368 26.5365 29.5046 26.6347 29.5514 26.7432C29.5983 26.8516 29.6233 26.9683 29.625 27.0864C29.6268 27.2045 29.6053 27.3218 29.5617 27.4316L19.5865 52.5761L9.3953 48.5327L19.3699 23.3881ZM6.53724 51.322L7.20821 49.6309C7.26608 49.55 7.34491 49.4865 7.43623 49.4471C7.52754 49.4077 7.62788 49.3939 7.72642 49.4073L20.2015 54.3563C20.2998 54.3954 20.3786 54.472 20.4206 54.5691C20.4625 54.6663 20.4642 54.7761 20.4252 54.8745L19.7543 56.5659C19.735 56.6146 19.7062 56.659 19.6697 56.6966C19.6333 56.7342 19.5897 56.7643 19.5416 56.785C19.4935 56.8058 19.4418 56.8169 19.3894 56.8177C19.337 56.8185 19.285 56.809 19.2363 56.7896L6.76104 51.8411C6.71226 51.8217 6.66778 51.7929 6.63013 51.7563C6.59248 51.7197 6.56241 51.6761 6.54163 51.6279C6.52084 51.5797 6.50976 51.5279 6.50901 51.4754C6.50826 51.4229 6.51785 51.3708 6.53724 51.322ZM11.2472 55.1558L13.6972 56.1275L12.0707 60.226L9.62074 59.2543L11.2472 55.1558ZM3.75618 59.3278C3.83476 59.13 3.98864 58.9715 4.18402 58.8871C4.3794 58.8027 4.60029 58.7993 4.79816 58.8777L15.8409 63.2587C16.0387 63.3372 16.1972 63.4911 16.2816 63.6865C16.3659 63.8819 16.3693 64.1028 16.2909 64.3006L15.6216 65.9876L3.08666 61.015L3.75618 59.3278Z" fill="#222124"/>
<path d="M64.4974 59.5201H54.1032C53.5647 59.5107 53.0297 59.6087 52.5295 59.8083C52.0293 60.0079 51.5738 60.3051 51.1896 60.6826C50.8055 61.0601 50.5004 61.5103 50.2921 62.007C50.0838 62.5036 49.9766 63.0368 49.9766 63.5754C49.9766 64.114 50.0838 64.6472 50.2921 65.1439C50.5004 65.6406 50.8055 66.0908 51.1896 66.4683C51.5738 66.8458 52.0293 67.143 52.5295 67.3426C53.0297 67.5421 53.5647 67.6401 54.1032 67.6307H64.4974C65.5607 67.6121 66.5741 67.1767 67.3195 66.4182C68.0648 65.6597 68.4825 64.6388 68.4825 63.5754C68.4825 62.512 68.0648 61.4911 67.3195 60.7326C66.5741 59.9741 65.5607 59.5387 64.4974 59.5201ZM51.4758 63.576C51.4766 62.8795 51.7537 62.2116 52.2462 61.7191C52.7388 61.2266 53.4066 60.9495 54.1032 60.9488H58.5863V66.2033H54.1032C53.4065 66.2025 52.7386 65.9254 52.246 65.4327C51.7534 64.9401 51.4764 64.2721 51.4758 63.5754V63.576ZM64.4974 66.2033H60.0147V60.9481H64.4978C65.1946 60.9481 65.8629 61.225 66.3556 61.7177C66.8483 62.2104 67.1251 62.8786 67.1251 63.5754C67.1251 64.2722 66.8483 64.9405 66.3556 65.4332C65.8629 65.9259 65.1946 66.2027 64.4978 66.2027L64.4974 66.2033Z" fill="#222124"/>
<path d="M65.4214 43.4849C65.128 42.9519 64.7664 42.4595 64.3457 42.02C64.3414 42.0153 64.3385 42.0097 64.3342 42.0052C63.2679 40.8981 61.8666 40.1732 60.347 39.9425C58.8273 39.7118 57.274 39.9883 55.9272 40.7291C54.5804 41.4699 53.5153 42.6338 52.8965 44.0408C52.2776 45.4478 52.1396 47.0194 52.5038 48.5127C52.5058 48.5212 52.5095 48.5284 52.5118 48.5366C52.8048 49.7202 53.4029 50.8062 54.2464 51.6866C54.2509 51.6916 54.254 51.6973 54.2585 51.7023C55.3248 52.8094 56.7261 53.5344 58.2458 53.7651C59.7655 53.9958 61.3188 53.7193 62.6656 52.9785C64.0124 52.2376 65.0776 51.0737 65.6964 49.6666C66.3152 48.2596 66.4531 46.6879 66.0889 45.1945C66.0873 45.1884 66.0842 45.1828 66.0825 45.1766C65.9365 44.5864 65.7142 44.0178 65.4214 43.4849ZM56.6154 41.9801C57.5441 41.4704 58.5988 41.236 59.656 41.3043C60.7131 41.3725 61.7289 41.7407 62.5844 42.3655L53.7465 47.227C53.6768 46.1702 53.9096 45.1155 54.4177 44.1862C54.9258 43.257 55.6882 42.4918 56.6154 41.9801ZM63.6593 43.4034C64.0427 43.888 64.3426 44.4331 64.5466 45.0165L54.9334 50.3045C54.5501 49.8198 54.2503 49.2747 54.046 48.6915L63.6593 43.4034ZM61.9772 51.7278C61.0487 52.2373 59.9942 52.4717 58.9372 52.4035C57.8803 52.3353 56.8647 51.9673 56.0093 51.3426L64.8472 46.4811C64.9169 47.538 64.6839 48.5928 64.1756 49.522C63.6673 50.4512 62.9047 51.2164 61.9772 51.7278Z" fill="#222124"/>
</svg>
