<svg width="92" height="92" viewBox="0 0 92 92" fill="none" xmlns="http://www.w3.org/2000/svg">
<path fill-rule="evenodd" clip-rule="evenodd" d="M88.5907 74.9751C88.5907 75.4566 88.1954 75.852 87.7138 75.852H61.1506L61.6016 74.8403C61.7885 74.4216 61.8712 73.9598 61.8568 73.5016L61.8532 73.3795C61.828 72.5188 61.4381 71.7641 60.7589 71.2358C60.0743 70.7057 59.2693 70.5368 58.423 70.7057L49.7656 72.4181V48.9258H62.3635V54.7207C62.3635 54.9184 62.4713 55.1016 62.6456 55.1951C62.8199 55.2885 63.0338 55.2795 63.1991 55.1699L69.1791 51.2294L75.1573 55.1699C75.2453 55.2274 75.3477 55.2598 75.4537 55.2598C75.5436 55.2598 75.6316 55.2364 75.7089 55.1951C75.8832 55.1016 75.9928 54.9202 75.9928 54.7207V48.9258H88.5907V74.9751Z" fill="#FFE177"/>
<path fill-rule="evenodd" clip-rule="evenodd" d="M75.9922 47.8453V41.5742H87.7132C88.1948 41.5742 88.5901 41.9695 88.5901 42.4511V47.8453H75.9922Z" fill="#FFE177"/>
<path fill-rule="evenodd" clip-rule="evenodd" d="M74.9105 53.7175L69.4714 50.1309C69.2917 50.0123 69.0563 50.0123 68.8766 50.1309L63.4375 53.7175V41.5742H74.9105V53.7175Z" fill="#F0F0F0"/>
<path fill-rule="evenodd" clip-rule="evenodd" d="M62.3635 47.8453H49.7656V42.4511C49.7656 41.9695 50.1609 41.5742 50.6425 41.5742H62.3635V47.8453Z" fill="#FFE177"/>
<path fill-rule="evenodd" clip-rule="evenodd" d="M69.4821 79.7627C69.4677 80.6648 68.7885 81.4159 67.8811 81.4823L53.2545 82.5317C49.4398 82.8048 45.6735 83.4373 41.9486 84.2998C38.4285 85.1138 34.9677 86.1291 31.5141 87.1874C30.533 87.4875 29.6328 87.5127 28.6176 87.5324C28.4756 87.536 28.3319 87.5396 28.1899 87.5432C25.9277 87.5989 24.1649 86.4112 22.4651 85.0473L12.2031 76.8177L23.0796 71.2617L27.3077 76.3577C28.0246 77.222 29.1027 77.6047 30.2042 77.3873L58.6326 71.763C59.168 71.657 59.6658 71.7505 60.0988 72.0865C60.5319 72.4207 60.7619 72.8717 60.778 73.418L60.7816 73.5402C60.8032 74.293 60.3845 75.0693 59.6119 75.2526L50.2214 77.4825C49.9519 77.5472 49.774 77.8041 49.8117 78.0791C49.8495 78.354 50.0884 78.5552 50.3652 78.5463L67.6565 77.9443C68.1596 77.9263 68.5909 78.0863 68.952 78.4384C69.3132 78.7888 69.4893 79.2093 69.4857 79.7142V79.7268L69.4821 79.7627Z" fill="#F2D1B4"/>
<path fill-rule="evenodd" clip-rule="evenodd" d="M29.9862 76.3283C29.2656 76.4702 28.599 76.233 28.13 75.6688L23.6773 70.3016L19.2498 59.8491C19.1348 59.576 18.815 59.4466 18.5419 59.5634C18.2687 59.6802 18.1412 59.9965 18.258 60.2696L22.5202 70.3339L7.13172 78.197L3.50563 58.3308C3.31156 57.267 3.42297 56.1781 3.86859 55.188C4.31242 54.198 5.05094 53.3912 5.97453 52.827L16.1377 46.6367L21.433 54.0075C21.5355 54.1495 21.6972 54.2321 21.8715 54.2321C21.9541 54.2321 22.0386 54.2123 22.1123 54.1746L29.3627 50.5467L34.0112 58.6398C34.1064 58.807 34.2861 58.9112 34.4784 58.9112C34.5017 58.9112 34.5269 58.9094 34.5502 58.9058C34.7677 58.8752 34.9455 58.7171 34.9995 58.5051L37.091 50.3221L41.9947 54.1207C42.0899 54.1944 42.2049 54.2339 42.3253 54.2339C42.39 54.2339 42.4529 54.2231 42.5122 54.1998C42.6865 54.1351 42.8159 53.9841 42.8536 53.8009L44.5337 45.4688L48.6827 48.3473V72.6321L29.9862 76.3283Z" fill="#02A9F4"/>
<path fill-rule="evenodd" clip-rule="evenodd" d="M22.0434 53.0049L17.0625 46.0744L22.295 42.8867L28.5589 49.7418L22.0434 53.0049Z" fill="#FFE177"/>
<path fill-rule="evenodd" clip-rule="evenodd" d="M38.8203 43.5586L43.4922 45.192L41.972 52.7352L37.3828 49.1846L38.8203 43.5586Z" fill="#FFE177"/>
<path fill-rule="evenodd" clip-rule="evenodd" d="M31.9276 36.9917C31.2915 37.1085 30.6626 37.1498 30.0175 37.1678C26.6538 37.2559 23.6728 35.786 21.698 33.0602C20.6953 31.6766 19.8598 30.1348 19.1428 28.5877C19.0512 28.3901 18.841 28.2643 18.6235 28.2769C17.8509 28.32 16.9039 28.3056 16.2085 27.9211C15.6838 27.63 15.4143 27.2131 15.2149 26.6687C14.9166 25.8547 14.8195 24.8107 14.9651 23.9554C15.0693 23.3463 15.3173 22.6832 15.8545 22.3274L16.0342 22.2088L17.4843 22.2106C18.0988 22.2106 18.7152 22.2124 19.3297 22.2124C22.6108 22.2124 25.8901 22.1945 29.1712 22.1226C32.7003 22.0453 36.2383 21.9123 39.7566 21.6374L40.5203 21.5781L40.531 22.3436C40.5598 24.3615 40.3891 26.3632 40.0513 28.3523L40.0477 28.3703L40.0441 28.3883C39.8698 29.1717 39.6488 29.948 39.3667 30.6991C38.1286 34.0197 35.4279 36.3484 31.9276 36.9917Z" fill="#F2D1B4"/>
<path fill-rule="evenodd" clip-rule="evenodd" d="M26.3222 19.8566C28.2107 17.9501 31.0192 16.7893 33.5852 16.1532C35.5438 15.668 37.5778 15.4219 39.5957 15.4219C42.8157 15.4219 46.5047 16.0705 49.2395 17.8638L50.5441 18.7191L49.0473 19.1558C47.6259 19.5691 46.1166 19.8296 44.6521 20.0363C42.8283 20.2932 40.9865 20.4657 39.1501 20.6023C35.0622 20.9041 30.9437 21.0227 26.8451 21.082L25.0859 21.1072L26.3222 19.8566Z" fill="#FFE177"/>
<path fill-rule="evenodd" clip-rule="evenodd" d="M23.6356 21.1143C21.5836 21.1287 19.5297 21.1287 17.4777 21.1269L16.3457 21.1251L16.2037 20.5914C15.3736 17.4685 15.1022 13.97 16.3726 10.9243C17.555 8.09059 19.8334 6.23442 22.7102 5.24434C25.5205 4.27762 28.7765 4.20395 31.6425 4.96043C34.0215 5.58934 36.6773 6.97832 37.6746 9.36817C38.2298 10.6979 38.7204 12.0581 39.1318 13.4399L39.396 14.3222L38.476 14.3635C36.7402 14.4407 35.008 14.6905 33.3207 15.1092C29.9965 15.9339 26.0793 17.7093 24.2465 20.7675L24.0381 21.1143H23.6356Z" fill="#02A9F4"/>
<path fill-rule="evenodd" clip-rule="evenodd" d="M23.0156 42.0765L24.8556 37.1692L25.5402 37.4477C26.8717 37.9904 28.2859 38.2491 29.7216 38.2491C29.8294 38.2491 29.9372 38.2473 30.045 38.2455C30.7458 38.2258 31.4304 38.1791 32.1222 38.0533C32.9685 37.8987 33.7951 37.6436 34.5821 37.295L35.238 37.0039L37.8794 42.9066L34.2892 56.9546L30.3936 50.1714C30.3738 50.1391 30.3505 50.1031 30.3217 50.0726L23.0156 42.0765Z" fill="#F2D1B4"/>
<path fill-rule="evenodd" clip-rule="evenodd" d="M84.4128 70.178C84.4128 70.8734 83.8504 71.4358 83.155 71.4358H70.0845C69.3909 71.4358 68.8267 70.8734 68.8267 70.178C68.8267 69.4826 69.3909 68.9202 70.0845 68.9202H83.155C83.8504 68.9202 84.4128 69.4844 84.4128 70.178ZM84.4128 64.9114C84.4128 65.6067 83.8504 66.1692 83.155 66.1692H73.7933C73.0979 66.1692 72.5355 65.6067 72.5355 64.9114C72.5355 64.216 73.0979 63.6535 73.7933 63.6535H83.155C83.8504 63.6535 84.4128 64.216 84.4128 64.9114ZM87.7119 75.132C87.7963 75.132 87.87 75.0583 87.87 74.9739V49.6433H76.7096V54.7195C76.7096 55.1831 76.4562 55.6071 76.0484 55.8264C75.8615 55.927 75.6566 55.9773 75.4518 55.9773C75.211 55.9773 74.9702 55.9072 74.76 55.7688L69.1771 52.0889L63.5924 55.7688C63.2061 56.024 62.7119 56.0456 62.3041 55.8264C61.8962 55.6071 61.6428 55.1831 61.6428 54.7195V49.6433H50.4824V71.5418L58.2809 69.9983C59.3518 69.7863 60.3616 70.0181 61.1972 70.6667C62.0471 71.3262 62.5341 72.2821 62.57 73.3567L62.5736 73.4789C62.5934 74.0718 62.4784 74.6342 62.2555 75.132H87.7119ZM68.762 79.7428C68.7566 80.289 68.3559 80.7274 67.8277 80.7652L53.2011 81.8146C45.2409 82.3842 38.0175 84.4416 31.3026 86.499C30.3969 86.7775 29.6045 86.7937 28.6019 86.8135C28.4617 86.8171 28.318 86.8206 28.1706 86.8242C26.2821 86.871 24.7584 85.9653 22.913 84.4865L13.5171 76.9522L22.8914 72.1635L26.7511 76.8157C27.6369 77.883 28.9792 78.361 30.3394 78.0914L58.7678 72.4672C59.12 72.3971 59.4003 72.4564 59.6555 72.6541C59.9178 72.8571 60.0454 73.1069 60.0562 73.4393L60.0598 73.5615C60.0741 73.9784 59.8657 74.4528 59.4434 74.5534L50.053 76.7833C49.4241 76.9324 49.0108 77.5344 49.097 78.1759C49.1833 78.8156 49.7403 79.2881 50.3872 79.2648L67.6785 78.6628C67.993 78.6539 68.2284 78.7419 68.4476 78.9539C68.6686 79.1678 68.7656 79.4014 68.7638 79.7086L68.762 79.7428ZM7.66828 77.1157L21.6012 69.9983L17.5996 60.5503C17.3283 59.9106 17.6266 59.1721 18.2662 58.9008C18.9059 58.6295 19.6444 58.9296 19.9158 59.5692L24.3019 69.9246L28.6881 75.2092C28.9882 75.5704 29.3889 75.7142 29.8507 75.6225L47.9668 72.0396V48.7215L45.0253 46.6803L43.5609 53.9414C43.4746 54.3673 43.1745 54.7195 42.7666 54.8722C42.6247 54.9243 42.4755 54.9513 42.3282 54.9513C42.0533 54.9513 41.7819 54.8614 41.5573 54.6889L37.5198 51.5624L35.6995 58.6852C35.5737 59.1811 35.1587 59.5513 34.6519 59.6195C34.5944 59.6285 34.5369 59.6321 34.4812 59.6321C34.0356 59.6321 33.6169 59.3949 33.3905 59.0014L29.0798 51.4977L22.4368 54.8219C22.2571 54.9117 22.063 54.9549 21.8744 54.9549C21.4791 54.9549 21.0945 54.7698 20.8519 54.4302L15.9447 47.6003L6.35117 53.4437C4.68367 54.4589 3.86609 56.2828 4.21648 58.2036L7.66828 77.1157ZM22.1637 43.8088L27.3872 49.5265L22.2697 52.0889L18.0991 46.2849L22.1637 43.8088ZM29.7177 38.9681C29.8327 38.9681 29.9477 38.9663 30.0609 38.9645C30.6809 38.9483 31.4248 38.9106 32.2477 38.7596C33.1659 38.5907 34.0446 38.3176 34.8712 37.951L37.1173 42.9715L34.0284 55.0609L31.0115 49.8086C30.9648 49.7296 30.9109 49.6541 30.8498 49.5876L23.8402 41.9185L25.2651 38.1164C26.6397 38.6734 28.1365 38.9681 29.7177 38.9681ZM19.7918 28.2838C19.5744 27.8167 19.0928 27.5274 18.5807 27.5561C16.5161 27.6711 16.1387 27.1087 15.8872 26.4187C15.632 25.7215 15.5458 24.8015 15.6698 24.072C15.7273 23.7324 15.8764 23.1699 16.2484 22.9238H17.481C18.065 22.9256 18.6795 22.9256 19.3264 22.9256C25.0602 22.9256 33.0509 22.8788 39.8108 22.347C39.8377 24.2678 39.685 26.2031 39.3418 28.2246C39.1675 29.008 38.9501 29.7537 38.6931 30.4401C37.5269 33.5631 35.0113 35.6924 31.7949 36.2817C31.2684 36.3788 30.7473 36.4255 29.9962 36.4453C26.8589 36.5261 24.1187 35.1749 22.2769 32.6341C21.418 31.4517 20.5806 29.9873 19.7918 28.2838ZM22.9489 5.92533C28.4725 4.02603 35.4408 5.86783 37.0166 9.64666C37.5773 10.9889 38.0552 12.3294 38.4487 13.6465C36.695 13.7238 34.9107 13.9753 33.1534 14.412C28.6917 15.5171 25.2633 17.6823 23.6353 20.3992C21.3659 20.4153 19.2653 20.4135 17.4828 20.4117H16.9024C14.9798 13.1847 17.1773 7.91088 22.9489 5.92533ZM26.8337 20.365C34.9017 20.2482 44.1305 19.8403 48.8455 18.4675C46.5293 16.9492 43.1781 16.1442 39.5969 16.1442C37.6761 16.1442 35.6887 16.376 33.7589 16.8539C30.7635 17.596 28.3503 18.8323 26.8337 20.365ZM42.6642 45.6614L41.4962 51.4563L38.1972 48.903L39.3238 44.4935L42.6642 45.6614ZM50.6405 42.2941H61.6428V47.1277H50.4824V42.4522C50.4824 42.366 50.5561 42.2941 50.6405 42.2941ZM64.1584 42.2941H74.194V52.3835L69.8689 49.5319C69.4484 49.2552 68.904 49.2552 68.4835 49.5319L64.1584 52.3835V42.2941ZM87.87 42.4522V47.1277H76.7096V42.2941H87.7119C87.7963 42.2941 87.87 42.366 87.87 42.4522ZM87.7119 39.7785H50.6405C49.1671 39.7785 47.9668 40.977 47.9668 42.4522V45.6614L45.7548 44.1269C45.6614 44.0622 45.559 44.0101 45.453 43.9742L39.3723 41.8485L37.058 36.6771C38.8369 35.3546 40.2294 33.5181 41.0506 31.3242C41.3507 30.5192 41.6041 29.6495 41.8053 28.7403C41.8107 28.7205 41.8143 28.7007 41.8179 28.6792C42.2006 26.4259 42.3659 24.2696 42.3246 22.1224C45.1852 21.8277 47.7116 21.4234 49.5894 20.8717C50.5112 20.6004 51.2443 19.7433 51.4114 18.7353C51.5569 17.8728 51.2515 17.0803 50.5956 16.6149C48.1501 14.8792 44.7612 13.8675 41.0686 13.6591C40.6158 12.0203 40.0372 10.3492 39.3382 8.67635C38.3014 6.19307 35.7175 4.22189 32.2495 3.26775C28.9612 2.36393 25.2723 2.46635 22.1313 3.54627C15.0391 5.98463 12.1856 12.545 14.4838 21.1089C13.8208 21.6947 13.3734 22.5644 13.1901 23.6515C12.9924 24.8141 13.1182 26.1707 13.5243 27.2812C14.4066 29.698 16.4963 30.0699 17.8673 30.0915C18.6202 31.6278 19.4162 32.9773 20.2392 34.1129C21.1341 35.3474 22.196 36.3554 23.3873 37.1317L23.001 36.9861L21.3677 41.3471L5.04304 51.291C2.46453 52.8615 1.19953 55.6808 1.74039 58.651L5.24968 77.8794C5.38085 78.5964 5.83007 79.1911 6.48234 79.5128C7.1346 79.8362 7.87851 79.8308 8.52718 79.5002L11.0608 78.2064L21.3407 86.4469C23.0909 87.8503 25.1896 89.3399 28.0269 89.3399C28.0951 89.3399 28.1652 89.3381 28.2353 89.3363C28.3773 89.3327 28.5174 89.3309 28.654 89.3273C29.7573 89.3039 30.7994 89.2824 32.0393 88.9032C38.6176 86.8871 45.683 84.8728 53.3808 84.3212L68.0073 83.2736C69.8527 83.1406 71.2597 81.6331 71.2776 79.7661L71.2794 79.7302C71.2866 78.9593 71.062 78.2495 70.6272 77.6458H87.7119C89.1871 77.6458 90.3856 76.4455 90.3856 74.9721V42.4486C90.3856 40.977 89.1871 39.7785 87.7119 39.7785Z" fill="#222124"/>
</svg>
