<svg width="24" height="24" viewBox="0 0 24 24" fill="none" xmlns="http://www.w3.org/2000/svg">
<mask id="mask0_3175_108327" style="mask-type:alpha" maskUnits="userSpaceOnUse" x="0" y="0" width="24" height="24">
<rect x="0.9" y="0.9" width="22.2" height="22.2" rx="11.1" fill="#1143F4" stroke="#D7D7D7" stroke-width="0.2"/>
</mask>
<g mask="url(#mask0_3175_108327)">
<rect x="0.9" y="0.9" width="22.2" height="22.2" rx="11.1" fill="url(#paint0_linear_3175_108327)" stroke="#D7D7D7" stroke-width="0.2"/>
<path d="M14.0469 4.844C14.0469 4.844 16.906 3.63198 17.9199 5.92136C18.8961 8.12394 15.0199 10.2248 15.0199 10.2248L14.0469 4.84101V4.844Z" fill="#1E0B02"/>
<path d="M8.69739 13.9856C8.72887 15.0031 7.88498 15.853 6.81438 15.8799C5.74377 15.9098 4.84951 15.1078 4.82117 14.0903C4.78968 13.0728 5.63357 12.2229 6.70417 12.196C7.77478 12.169 8.66905 12.9681 8.69739 13.9856Z" fill="#C67D69"/>
<path d="M17.7209 15.8822C18.7922 15.8822 19.6606 15.0569 19.6606 14.0388C19.6606 13.0207 18.7922 12.1953 17.7209 12.1953C16.6497 12.1953 15.7812 13.0207 15.7812 14.0388C15.7812 15.0569 16.6497 15.8822 17.7209 15.8822Z" fill="#C67D69"/>
<path d="M14.7245 18.2833C14.7245 18.2833 13.6318 19.0165 12.6336 19.199C11.6355 19.3786 10.6688 18.8309 10.6562 18.8249C10.6436 18.8189 9.4911 18.1875 9.4911 18.1875L9.01562 24.2566L9.14473 24.3583C10.8357 25.6841 13.2697 25.699 14.9795 24.3972L15.2283 24.2057L14.7245 18.2863V18.2833Z" fill="#C67D69"/>
<path d="M17.4716 10.8218C17.4842 12.9047 17.1788 14.7062 16.8733 15.9841C16.5742 17.235 15.7177 18.1119 14.5022 18.8211L14.2818 18.9498C12.9971 19.7009 11.3345 19.7249 10.0214 19.0156C8.69893 18.3004 7.77002 17.3517 7.47718 16.011C6.94817 13.575 6.87575 10.8727 6.87575 10.8727C6.87575 10.8727 6.12948 5.23452 11.8446 5.30933C17.5566 5.38415 17.4684 10.8218 17.4684 10.8218H17.4716Z" fill="#C67D69"/>
<path d="M7.07957 13.5469C7.07957 13.5469 7.9266 7.45084 7.51096 6.44531C7.51096 6.44531 4.63292 8.70775 7.07957 13.5469Z" fill="#1E0B02"/>
<path d="M17.2564 13.4927C17.2564 13.4927 16.3054 7.66898 16.5699 5.99609C16.5699 5.99609 19.3472 8.33634 17.2564 13.4927Z" fill="#1E0B02"/>
<path d="M16.3734 5.57962L13.7378 5.19956L13.5048 4.76562L12.113 4.96613L10.7213 4.76562L10.4882 5.19956L7.85267 5.57962L7.5 6.92033L7.58817 8.46453C7.58817 8.46453 8.00381 6.71384 9.45543 7.06098C9.79865 7.14178 10.208 7.27944 10.6866 7.37222C11.1338 7.46499 11.562 7.50689 11.9619 7.51287C12.0091 7.51287 12.0595 7.51287 12.1068 7.51287C12.154 7.51287 12.2044 7.51287 12.2516 7.51287C12.6546 7.50689 13.0797 7.46499 13.5269 7.37222C14.0055 7.27944 14.4243 7.17171 14.7581 7.06098C16.1026 6.61508 16.6001 8.38373 16.6001 8.38373L16.7135 6.92033L16.3608 5.57962H16.3734Z" fill="#1E0B02"/>
<path d="M16.3126 7.10434C16.3126 7.10434 14.5997 8.55876 12.4049 7.43951C12.4049 7.43951 6.82203 10.7075 5.24446 7.14923C3.9314 4.18352 9.38519 0.15542 15.0122 4.69227L16.3126 7.10134V7.10434Z" fill="#1E0B02"/>
</g>
<defs>
<linearGradient id="paint0_linear_3175_108327" x1="1" y1="1" x2="25.6012" y2="3.05772" gradientUnits="userSpaceOnUse">
<stop stop-color="#7511F4"/>
<stop offset="1" stop-color="#BD08DA"/>
</linearGradient>
</defs>
</svg>
