<svg width="107" height="29" viewBox="0 0 107 29" fill="none" xmlns="http://www.w3.org/2000/svg">
<path d="M52.52 12C52.4133 12 52.3173 11.9627 52.232 11.888C52.1573 11.8133 52.12 11.7173 52.12 11.6V1.2C52.12 1.08267 52.1573 0.986666 52.232 0.912C52.3173 0.837333 52.4133 0.799999 52.52 0.799999H54.248C54.4187 0.799999 54.5467 0.847999 54.632 0.943999C54.728 1.02933 54.7867 1.09867 54.808 1.152L57.624 6.208L60.44 1.152C60.472 1.09867 60.5253 1.02933 60.6 0.943999C60.6853 0.847999 60.8187 0.799999 61 0.799999H62.712C62.8293 0.799999 62.9253 0.837333 63 0.912C63.0853 0.986666 63.128 1.08267 63.128 1.2V11.6C63.128 11.7173 63.0853 11.8133 63 11.888C62.9253 11.9627 62.8293 12 62.712 12H60.808C60.6907 12 60.5893 11.9627 60.504 11.888C60.4293 11.8133 60.392 11.7173 60.392 11.6V5.6L58.584 8.944C58.5413 9.04 58.4773 9.12533 58.392 9.2C58.3067 9.27467 58.1893 9.312 58.04 9.312H57.208C57.0587 9.312 56.9413 9.27467 56.856 9.2C56.7707 9.12533 56.7013 9.04 56.648 8.944L54.84 5.6V11.6C54.84 11.7173 54.8027 11.8133 54.728 11.888C54.6533 11.9627 54.5573 12 54.44 12H52.52ZM69.1144 12.16C68.2184 12.16 67.461 12.016 66.8424 11.728C66.2344 11.44 65.765 11.0293 65.4344 10.496C65.1144 9.952 64.933 9.30667 64.8904 8.56C64.8797 8.34667 64.8744 8.10667 64.8744 7.84C64.8744 7.56267 64.8797 7.32267 64.8904 7.12C64.933 6.36267 65.125 5.71733 65.4664 5.184C65.8077 4.65067 66.2824 4.24 66.8904 3.952C67.509 3.664 68.2504 3.52 69.1144 3.52C69.989 3.52 70.7304 3.664 71.3384 3.952C71.957 4.24 72.437 4.65067 72.7784 5.184C73.1197 5.71733 73.3117 6.36267 73.3544 7.12C73.365 7.32267 73.3704 7.56267 73.3704 7.84C73.3704 8.10667 73.365 8.34667 73.3544 8.56C73.3117 9.30667 73.125 9.952 72.7944 10.496C72.4744 11.0293 72.005 11.44 71.3864 11.728C70.7784 12.016 70.021 12.16 69.1144 12.16ZM69.1144 10.208C69.5944 10.208 69.941 10.064 70.1544 9.776C70.3784 9.488 70.5064 9.056 70.5384 8.48C70.549 8.32 70.5544 8.10667 70.5544 7.84C70.5544 7.57333 70.549 7.36 70.5384 7.2C70.5064 6.63467 70.3784 6.208 70.1544 5.92C69.941 5.62133 69.5944 5.472 69.1144 5.472C68.645 5.472 68.2984 5.62133 68.0744 5.92C67.8504 6.208 67.7277 6.63467 67.7064 7.2C67.6957 7.36 67.6904 7.57333 67.6904 7.84C67.6904 8.10667 67.6957 8.32 67.7064 8.48C67.7277 9.056 67.8504 9.488 68.0744 9.776C68.2984 10.064 68.645 10.208 69.1144 10.208ZM52.52 28C52.4133 28 52.3173 27.9627 52.232 27.888C52.1573 27.8133 52.12 27.7173 52.12 27.6V17.2C52.12 17.0827 52.1573 16.9867 52.232 16.912C52.3173 16.8373 52.4133 16.8 52.52 16.8H54.248C54.4187 16.8 54.5467 16.848 54.632 16.944C54.728 17.0293 54.7867 17.0987 54.808 17.152L57.624 22.208L60.44 17.152C60.472 17.0987 60.5253 17.0293 60.6 16.944C60.6853 16.848 60.8187 16.8 61 16.8H62.712C62.8293 16.8 62.9253 16.8373 63 16.912C63.0853 16.9867 63.128 17.0827 63.128 17.2V27.6C63.128 27.7173 63.0853 27.8133 63 27.888C62.9253 27.9627 62.8293 28 62.712 28H60.808C60.6907 28 60.5893 27.9627 60.504 27.888C60.4293 27.8133 60.392 27.7173 60.392 27.6V21.6L58.584 24.944C58.5413 25.04 58.4773 25.1253 58.392 25.2C58.3067 25.2747 58.1893 25.312 58.04 25.312H57.208C57.0587 25.312 56.9413 25.2747 56.856 25.2C56.7707 25.1253 56.7013 25.04 56.648 24.944L54.84 21.6V27.6C54.84 27.7173 54.8027 27.8133 54.728 27.888C54.6533 27.9627 54.5573 28 54.44 28H52.52ZM67.6744 28.16C67.0984 28.16 66.581 28.0533 66.1224 27.84C65.6744 27.616 65.317 27.3173 65.0504 26.944C64.7837 26.5707 64.6504 26.1493 64.6504 25.68C64.6504 24.9227 64.9597 24.3253 65.5784 23.888C66.197 23.44 67.0184 23.136 68.0424 22.976L70.0424 22.672V22.448C70.0424 22.064 69.9624 21.7707 69.8024 21.568C69.6424 21.3653 69.349 21.264 68.9224 21.264C68.6237 21.264 68.3784 21.3227 68.1864 21.44C68.005 21.5573 67.861 21.7173 67.7544 21.92C67.6584 22.0587 67.525 22.128 67.3544 22.128H65.5624C65.445 22.128 65.3544 22.096 65.2904 22.032C65.2264 21.9573 65.1997 21.872 65.2104 21.776C65.2104 21.584 65.2797 21.3653 65.4184 21.12C65.5677 20.864 65.7917 20.6133 66.0904 20.368C66.389 20.1227 66.773 19.92 67.2424 19.76C67.7117 19.6 68.277 19.52 68.9384 19.52C69.6317 19.52 70.2237 19.6 70.7144 19.76C71.205 19.92 71.5997 20.144 71.8984 20.432C72.2077 20.72 72.437 21.0613 72.5864 21.456C72.7357 21.84 72.8104 22.2667 72.8104 22.736V27.6C72.8104 27.7173 72.7677 27.8133 72.6824 27.888C72.6077 27.9627 72.517 28 72.4104 28H70.5544C70.437 28 70.341 27.9627 70.2664 27.888C70.1917 27.8133 70.1544 27.7173 70.1544 27.6V27.04C70.0157 27.2427 69.829 27.4293 69.5944 27.6C69.3597 27.7707 69.0824 27.904 68.7624 28C68.453 28.1067 68.0904 28.16 67.6744 28.16ZM68.4264 26.336C68.7357 26.336 69.013 26.272 69.2584 26.144C69.5144 26.0053 69.7117 25.7973 69.8504 25.52C69.9997 25.232 70.0744 24.8747 70.0744 24.448V24.224L68.7144 24.464C68.213 24.5493 67.845 24.6827 67.6104 24.864C67.3864 25.0347 67.2744 25.2373 67.2744 25.472C67.2744 25.6533 67.3277 25.808 67.4344 25.936C67.541 26.064 67.6797 26.1653 67.8504 26.24C68.021 26.304 68.213 26.336 68.4264 26.336ZM75.0159 28C74.8985 28 74.8025 27.9627 74.7279 27.888C74.6532 27.8133 74.6159 27.7173 74.6159 27.6V20.08C74.6159 19.9733 74.6532 19.8827 74.7279 19.808C74.8025 19.7227 74.8985 19.68 75.0159 19.68H76.8559C76.9732 19.68 77.0692 19.7227 77.1439 19.808C77.2185 19.8827 77.2559 19.9733 77.2559 20.08V20.72C77.5439 20.3893 77.8852 20.1333 78.2799 19.952C78.6852 19.7707 79.1385 19.68 79.6399 19.68H80.3439C80.4505 19.68 80.5412 19.7173 80.6159 19.792C80.7012 19.8667 80.7439 19.9627 80.7439 20.08V21.728C80.7439 21.8347 80.7012 21.9307 80.6159 22.016C80.5412 22.0907 80.4505 22.128 80.3439 22.128H78.7919C78.3545 22.128 78.0132 22.2507 77.7679 22.496C77.5332 22.7307 77.4159 23.0667 77.4159 23.504V27.6C77.4159 27.7173 77.3732 27.8133 77.2879 27.888C77.2132 27.9627 77.1172 28 76.9999 28H75.0159ZM82.2815 28C82.1642 28 82.0682 27.9627 81.9935 27.888C81.9188 27.8133 81.8815 27.7173 81.8815 27.6V17.04C81.8815 16.9227 81.9188 16.8267 81.9935 16.752C82.0682 16.6773 82.1642 16.64 82.2815 16.64H84.1375C84.2442 16.64 84.3348 16.6773 84.4095 16.752C84.4948 16.8267 84.5375 16.9227 84.5375 17.04V22.4L86.7615 19.952C86.8255 19.8773 86.8948 19.8133 86.9695 19.76C87.0442 19.7067 87.1508 19.68 87.2895 19.68H89.4335C89.5295 19.68 89.6095 19.7173 89.6735 19.792C89.7482 19.856 89.7855 19.936 89.7855 20.032C89.7855 20.0747 89.7748 20.1227 89.7535 20.176C89.7322 20.2293 89.7002 20.272 89.6575 20.304L86.7775 23.408L90.0575 27.392C90.1428 27.4773 90.1855 27.5627 90.1855 27.648C90.1855 27.744 90.1482 27.8293 90.0735 27.904C90.0095 27.968 89.9242 28 89.8175 28H87.6255C87.4655 28 87.3482 27.9733 87.2735 27.92C87.1988 27.856 87.1295 27.792 87.0655 27.728L84.5375 24.688V27.6C84.5375 27.7173 84.4948 27.8133 84.4095 27.888C84.3348 27.9627 84.2442 28 84.1375 28H82.2815ZM94.6903 28.16C93.4316 28.16 92.4289 27.8187 91.6823 27.136C90.9356 26.4533 90.5463 25.44 90.5143 24.096C90.5143 24.0213 90.5143 23.9253 90.5143 23.808C90.5143 23.6907 90.5143 23.6 90.5143 23.536C90.5463 22.6933 90.7329 21.9733 91.0743 21.376C91.4263 20.768 91.9063 20.3093 92.5143 20C93.1329 19.68 93.8529 19.52 94.6743 19.52C95.6129 19.52 96.3863 19.7067 96.9943 20.08C97.6129 20.4533 98.0769 20.96 98.3863 21.6C98.6956 22.24 98.8503 22.9707 98.8503 23.792V24.176C98.8503 24.2933 98.8076 24.3893 98.7222 24.464C98.6476 24.5387 98.5569 24.576 98.4503 24.576H93.3303C93.3303 24.5867 93.3303 24.6027 93.3303 24.624C93.3303 24.6453 93.3303 24.6667 93.3303 24.688C93.3409 24.9973 93.3943 25.28 93.4903 25.536C93.5863 25.792 93.7356 25.9947 93.9383 26.144C94.1409 26.2933 94.3863 26.368 94.6743 26.368C94.8876 26.368 95.0636 26.336 95.2023 26.272C95.3516 26.1973 95.4743 26.1173 95.5703 26.032C95.6663 25.936 95.7409 25.856 95.7943 25.792C95.8903 25.6853 95.9649 25.6213 96.0183 25.6C96.0823 25.568 96.1783 25.552 96.3063 25.552H98.2903C98.3969 25.552 98.4823 25.584 98.5463 25.648C98.6209 25.7013 98.6529 25.7813 98.6423 25.888C98.6316 26.0693 98.5409 26.288 98.3703 26.544C98.1996 26.8 97.9489 27.056 97.6183 27.312C97.2983 27.5573 96.8929 27.76 96.4023 27.92C95.9116 28.08 95.3409 28.16 94.6903 28.16ZM93.3303 22.992H96.0343V22.96C96.0343 22.6187 95.9809 22.32 95.8743 22.064C95.7783 21.808 95.6236 21.6107 95.4103 21.472C95.2076 21.3333 94.9623 21.264 94.6743 21.264C94.3863 21.264 94.1409 21.3333 93.9383 21.472C93.7463 21.6107 93.5969 21.808 93.4903 22.064C93.3836 22.32 93.3303 22.6187 93.3303 22.96V22.992ZM104.591 28C103.908 28 103.316 27.8933 102.815 27.68C102.324 27.456 101.945 27.1147 101.679 26.656C101.412 26.1867 101.279 25.584 101.279 24.848V21.776H100.031C99.9133 21.776 99.812 21.7387 99.7266 21.664C99.652 21.5893 99.6146 21.4933 99.6146 21.376V20.08C99.6146 19.9627 99.652 19.8667 99.7266 19.792C99.812 19.7173 99.9133 19.68 100.031 19.68H101.279V17.04C101.279 16.9227 101.316 16.8267 101.391 16.752C101.476 16.6773 101.572 16.64 101.679 16.64H103.535C103.652 16.64 103.748 16.6773 103.823 16.752C103.897 16.8267 103.935 16.9227 103.935 17.04V19.68H105.935C106.052 19.68 106.148 19.7173 106.223 19.792C106.297 19.8667 106.335 19.9627 106.335 20.08V21.376C106.335 21.4933 106.297 21.5893 106.223 21.664C106.148 21.7387 106.052 21.776 105.935 21.776H103.935V24.624C103.935 24.9867 104.004 25.2747 104.143 25.488C104.281 25.7013 104.516 25.808 104.847 25.808H106.079C106.196 25.808 106.292 25.8453 106.367 25.92C106.441 25.9947 106.479 26.0907 106.479 26.208V27.6C106.479 27.7173 106.441 27.8133 106.367 27.888C106.292 27.9627 106.196 28 106.079 28H104.591Z" fill="black"/>
<g clip-path="url(#clip0_2503_9150)">
<mask id="mask0_2503_9150" style="mask-type:luminance" maskUnits="userSpaceOnUse" x="0" y="10" width="13" height="13">
<path d="M8.15938 12.5268L12.1511 20.1118L11.106 21.5149C9.70962 23.3909 6.23755 23.3909 4.84118 21.5149L0.66657 15.905C0.00176823 15.0131 0.00176823 13.9907 0.66657 13.0989C3.18933 9.70949 6.76301 10.6509 8.15938 12.5268Z" fill="white"/>
</mask>
<g mask="url(#mask0_2503_9150)">
<path d="M12.1464 9.71094H0V23.3923H12.1464V9.71094Z" fill="#1159E5"/>
</g>
<g opacity="0.1">
<path fill-rule="evenodd" clip-rule="evenodd" d="M12.1499 20.1115L11.1048 21.5145C10.9568 21.7149 10.7826 21.8929 10.5939 22.0505L6.21605 13.5804C5.39158 11.8171 2.17208 11.5491 0.703125 13.0512C2.12272 11.2225 5.54544 11.2383 6.9302 13.0985L12.1499 20.1115Z" fill="#01052D"/>
</g>
<mask id="mask1_2503_9150" style="mask-type:luminance" maskUnits="userSpaceOnUse" x="28" y="10" width="13" height="13">
<path d="M32.8433 12.5268L28.8516 20.1118L29.8967 21.5149C31.293 23.3909 34.7651 23.3909 36.1615 21.5149L40.3361 15.905C41.0009 15.0131 41.0009 13.9907 40.3361 13.0989C37.8133 9.70949 34.2397 10.6509 32.8433 12.5268Z" fill="white"/>
</mask>
<g mask="url(#mask1_2503_9150)">
<path d="M40.998 9.71094H28.8516V23.3923H40.998V9.71094Z" fill="#1159E5"/>
</g>
<mask id="mask2_2503_9150" style="mask-type:luminance" maskUnits="userSpaceOnUse" x="20" y="0" width="21" height="19">
<path d="M23.6208 15.5655L24.6659 16.9686C26.0594 18.84 29.8711 18.7297 31.2704 16.865L34.0718 13.1017C35.4682 11.2258 38.9403 11.2258 40.3366 13.1017L31.9845 1.87964C30.5882 0.00366113 27.1161 0.00366113 25.7197 1.87964L20.5 8.89261L23.6208 15.5655Z" fill="white"/>
</mask>
<g mask="url(#mask2_2503_9150)">
<path d="M40.3327 0H20.4961V18.8386H40.3327V0Z" fill="#1159E5"/>
</g>
<mask id="mask3_2503_9150" style="mask-type:luminance" maskUnits="userSpaceOnUse" x="0" y="0" width="32" height="29">
<path d="M27.8077 21.5138L31.9765 15.9129C30.5744 17.7799 27.1139 17.7754 25.7204 15.9039L15.2781 1.87574C13.8817 -0.000245094 10.4126 -0.000245094 9.01618 1.87574L0.664062 13.0978C2.06044 11.2219 5.5325 11.2219 6.92888 13.0978L17.3683 27.126C18.7647 29.002 22.2367 29.002 23.6331 27.126L27.8077 21.5161V21.5138Z" fill="white"/>
</mask>
<g mask="url(#mask3_2503_9150)">
<path d="M31.9765 0H0.664062V29H31.9765V0Z" fill="#1159E5"/>
</g>
<path fill-rule="evenodd" clip-rule="evenodd" d="M27.8076 21.5135L31.9764 15.9126C30.5742 17.7796 27.1137 17.7751 25.7203 15.9036L20.5006 8.89062L12.1484 20.1127L17.3682 27.1257C18.7645 29.0017 22.2366 29.0017 23.633 27.1257L27.8076 21.5158V21.5135Z" fill="#1159E5"/>
<path fill-rule="evenodd" clip-rule="evenodd" d="M1.11984 12.4858L0.687287 13.0668L0.664062 13.0983C2.06044 11.2224 5.5325 11.2224 6.92888 13.0983L17.3683 27.1265C18.7647 29.0025 22.2367 29.0025 23.6331 27.1265C22.3703 28.8223 18.9331 28.6872 17.6702 26.9914L7.22789 12.9632C6.71696 12.2786 5.66024 11.6773 4.49611 11.4971C3.39004 11.326 1.93851 11.6818 1.11984 12.4858Z" fill="white"/>
<path fill-rule="evenodd" clip-rule="evenodd" d="M31.6799 16.3116L31.976 15.9129C30.5738 17.7799 27.1133 17.7754 25.7199 15.9039L15.2804 1.87574C13.8841 -0.000245064 10.412 -0.000245064 9.01562 1.87574C10.2785 0.179921 13.7157 0.315046 14.9785 2.01086L25.4179 16.039C25.9637 16.7732 26.9972 17.3903 28.26 17.5097C29.398 17.6178 30.7741 17.352 31.677 16.3116" fill="white"/>
<path opacity="0.1" fill-rule="evenodd" clip-rule="evenodd" d="M28.8516 20.1112L29.8967 21.5142C30.0447 21.7146 30.2189 21.8926 30.4076 22.0502L34.7854 13.5824C35.6099 11.819 38.8294 11.551 40.2984 13.0532C38.8788 11.2245 35.456 11.2402 34.0713 13.1004L28.8516 20.1134V20.1112Z" fill="#01052D"/>
<path fill-rule="evenodd" clip-rule="evenodd" d="M39.8805 12.4858L40.313 13.0668L40.3362 13.0983C38.9399 11.2224 35.4678 11.2224 34.0714 13.0983L23.632 27.1265C22.2356 29.0025 18.7636 29.0025 17.3672 27.1265C18.63 28.8223 22.0673 28.6872 23.3301 26.9914L33.7695 12.9632C34.2805 12.2786 35.3372 11.6773 36.5013 11.4971C37.6103 11.326 39.0589 11.6818 39.8776 12.4858" fill="white"/>
<path fill-rule="evenodd" clip-rule="evenodd" d="M39.8805 12.4858L40.313 13.0668L40.3362 13.0983C38.9399 11.2224 35.4678 11.2224 34.0714 13.0983L23.632 27.1265C22.2356 29.0025 18.7636 29.0025 17.3672 27.1265C18.63 28.8223 22.0673 28.6872 23.3301 26.9914L33.7695 12.9632C34.2805 12.2786 35.3372 11.6773 36.5013 11.4971C37.6103 11.326 39.0589 11.6818 39.8776 12.4858" fill="white"/>
<path opacity="0.1" fill-rule="evenodd" clip-rule="evenodd" d="M20.5 8.88818L22.0299 6.83203L26.4339 15.4192C27.2583 17.1826 30.4778 17.4506 31.9468 15.9484C30.5272 17.7771 27.1045 17.7614 25.7197 15.9011L20.5 8.88818Z" fill="#01052D"/>
</g>
<defs>
<clipPath id="clip0_2503_9150">
<rect width="41" height="29" fill="white"/>
</clipPath>
</defs>
</svg>
