<svg width="18" height="18" viewBox="0 0 18 18" fill="none" xmlns="http://www.w3.org/2000/svg">
<path d="M9.00147 0.625C6.79129 0.625 4.67163 1.50299 3.10879 3.06583C1.54596 4.62866 0.667969 6.74832 0.667969 8.9585C0.667969 11.1687 1.54596 13.2883 3.10879 14.8512C4.67163 16.414 6.79129 17.292 9.00147 17.292H13.1685V15.625H9.00147C7.24012 15.603 5.55712 14.8935 4.31156 13.6479C3.066 12.4024 2.35651 10.7193 2.33447 8.958C2.35651 7.19665 3.066 5.51365 4.31156 4.26809C5.55712 3.02253 7.24012 2.31304 9.00147 2.291C10.7628 2.31304 12.4458 3.02253 13.6914 4.26809C14.9369 5.51365 15.6464 7.19665 15.6685 8.958V10.15C15.6596 10.4843 15.5268 10.8033 15.2958 11.0451C15.0647 11.2869 14.752 11.434 14.4185 11.458C14.0849 11.434 13.7722 11.2869 13.5412 11.0451C13.3101 10.8033 13.1773 10.4843 13.1685 10.15V8.958C13.1688 7.99342 12.8346 7.05858 12.2228 6.31287C11.6109 5.56715 10.7594 5.05672 9.81335 4.8686C8.86729 4.68048 7.88527 4.82631 7.03471 5.28124C6.18415 5.73616 5.5177 6.47202 5.14899 7.36334C4.78028 8.25467 4.73213 9.24629 5.01276 10.1692C5.29338 11.092 5.8854 11.889 6.68789 12.4242C7.49038 12.9593 8.45365 13.1996 9.41348 13.104C10.3733 13.0085 11.2703 12.5829 11.9515 11.9C12.2397 12.2813 12.6126 12.5904 13.0407 12.803C13.4688 13.0156 13.9405 13.1258 14.4185 13.125C14.8061 13.1237 15.1896 13.0455 15.5467 12.8948C15.9038 12.7441 16.2275 12.524 16.4988 12.2472C16.7702 11.9705 16.9839 11.6426 17.1275 11.2825C17.2711 10.9225 17.3418 10.5376 17.3355 10.15V8.958C17.3347 6.74802 16.4563 4.6288 14.8936 3.0662C13.3308 1.50361 11.2114 0.62553 9.00147 0.625ZM9.00147 11.458C8.50702 11.458 8.02367 11.3114 7.61254 11.0367C7.20142 10.762 6.88099 10.3715 6.69177 9.91471C6.50255 9.45789 6.45304 8.95523 6.54951 8.47027C6.64597 7.98532 6.88407 7.53986 7.2337 7.19023C7.58333 6.8406 8.02879 6.6025 8.51374 6.50604C8.9987 6.40957 9.50136 6.45908 9.95818 6.6483C10.415 6.83752 10.8054 7.15795 11.0801 7.56907C11.3548 7.9802 11.5015 8.46355 11.5015 8.958C11.5015 9.62104 11.2381 10.2569 10.7692 10.7258C10.3004 11.1946 9.66451 11.458 9.00147 11.458Z" fill="#5E5E5E"/>
</svg>
