<svg width="24" height="24" viewBox="0 0 24 24" fill="none" xmlns="http://www.w3.org/2000/svg">
<g clip-path="url(#clip0_3246_101106)">
<path d="M22.4029 12.3109C22.3064 12.1134 22.3064 11.8868 22.4029 11.6892L23.2981 9.85808C23.7964 8.8385 23.4016 7.62328 22.3991 7.09139L20.5986 6.13608C20.4044 6.03305 20.2712 5.84968 20.2332 5.63316L19.8811 3.62557C19.685 2.50779 18.651 1.75667 17.5276 1.91562L15.5095 2.20109C15.2917 2.23184 15.0763 2.16181 14.9183 2.00895L13.4534 0.591834C12.6377 -0.197255 11.3599 -0.197302 10.5443 0.591834L9.07937 2.00909C8.92131 2.162 8.70592 2.23189 8.48814 2.20123L6.47004 1.91576C5.34622 1.75672 4.31263 2.50793 4.11656 3.62571L3.76443 5.63321C3.72642 5.84977 3.59325 6.0331 3.39905 6.13618L1.59859 7.09148C0.596125 7.62332 0.201252 8.83865 0.699624 9.85822L1.5947 11.6893C1.69126 11.8869 1.69126 12.1135 1.5947 12.311L0.699577 14.1421C0.201205 15.1617 0.596078 16.3769 1.59854 16.9088L3.399 17.8641C3.59325 17.9672 3.72642 18.1505 3.76443 18.3671L4.11656 20.3747C4.29506 21.3922 5.16758 22.1058 6.17037 22.1057C6.26914 22.1057 6.36936 22.0988 6.47009 22.0846L8.48819 21.7991C8.70583 21.7682 8.92136 21.8384 9.07942 21.9912L10.5443 23.4083C10.9522 23.8029 11.4754 24.0002 11.9988 24.0001C12.5221 24.0001 13.0456 23.8028 13.4533 23.4083L14.9183 21.9912C15.0763 21.8384 15.2918 21.7685 15.5095 21.7991L17.5276 22.0846C18.6516 22.2436 19.685 21.4924 19.8811 20.3746L20.2333 18.3671C20.2713 18.1505 20.4044 17.9672 20.5986 17.8641L22.3991 16.9088C23.4016 16.377 23.7964 15.1617 23.2981 14.1421L22.4029 12.3109ZM9.23036 5.77112C10.6297 5.77112 11.7681 6.90956 11.7681 8.30887C11.7681 9.70817 10.6297 10.8466 9.23036 10.8466C7.83105 10.8466 6.6926 9.70817 6.6926 8.30887C6.6926 6.90956 7.83105 5.77112 9.23036 5.77112ZM7.92049 17.0571C7.78535 17.1923 7.60821 17.2599 7.43112 17.2599C7.25402 17.2599 7.07684 17.1923 6.94174 17.0571C6.67146 16.7869 6.67146 16.3486 6.94174 16.0784L16.0771 6.94299C16.3473 6.67271 16.7856 6.67271 17.0559 6.94299C17.3262 7.21326 17.3262 7.6515 17.0559 7.92178L7.92049 17.0571ZM14.7672 18.2291C13.3679 18.2291 12.2294 17.0907 12.2294 15.6914C12.2294 14.2921 13.3679 13.1536 14.7672 13.1536C16.1665 13.1536 17.3049 14.2921 17.3049 15.6914C17.3049 17.0907 16.1665 18.2291 14.7672 18.2291Z" fill="url(#paint0_linear_3246_101106)"/>
<path d="M14.7707 14.5391C14.1347 14.5391 13.6172 15.0565 13.6172 15.6926C13.6172 16.3286 14.1346 16.846 14.7707 16.846C15.4068 16.846 15.9242 16.3286 15.9242 15.6926C15.9242 15.0565 15.4068 14.5391 14.7707 14.5391Z" fill="url(#paint1_linear_3246_101106)"/>
<path d="M9.23162 7.15625C8.59558 7.15625 8.07812 7.6737 8.07812 8.30974C8.07812 8.94579 8.59558 9.46328 9.23162 9.46328C9.86766 9.46328 10.3852 8.94583 10.3852 8.30974C10.3851 7.67375 9.86766 7.15625 9.23162 7.15625Z" fill="url(#paint2_linear_3246_101106)"/>
</g>
<defs>
<linearGradient id="paint0_linear_3246_101106" x1="11.9988" y1="0" x2="11.9988" y2="24.0001" gradientUnits="userSpaceOnUse">
<stop stop-color="#3D7DF9"/>
<stop offset="1" stop-color="#00359B"/>
</linearGradient>
<linearGradient id="paint1_linear_3246_101106" x1="14.7707" y1="14.5391" x2="14.7707" y2="16.846" gradientUnits="userSpaceOnUse">
<stop stop-color="#3D7DF9"/>
<stop offset="1" stop-color="#00359B"/>
</linearGradient>
<linearGradient id="paint2_linear_3246_101106" x1="9.23164" y1="7.15625" x2="9.23164" y2="9.46328" gradientUnits="userSpaceOnUse">
<stop stop-color="#3D7DF9"/>
<stop offset="1" stop-color="#00359B"/>
</linearGradient>
<clipPath id="clip0_3246_101106">
<rect width="24" height="24" fill="white"/>
</clipPath>
</defs>
</svg>
