<svg width="16" height="16" viewBox="0 0 16 16" fill="none" xmlns="http://www.w3.org/2000/svg">
<path d="M8.00335 14.8588C8.28906 14.8588 8.57478 14.7445 8.80335 14.516C10.2891 13.0874 13.7176 9.3731 13.7176 6.85882C13.7176 3.71596 11.1462 1.14453 8.00335 1.14453C4.86049 1.14453 2.28906 3.71596 2.28906 6.85882C2.28906 9.3731 5.71763 13.0302 7.20335 14.516C7.43192 14.7445 7.71763 14.8588 8.00335 14.8588ZM5.66049 6.85882C5.66049 5.60167 6.68906 4.5731 8.00335 4.5731C9.26049 4.5731 10.3462 5.60167 10.3462 6.85882C10.3462 8.11596 9.31763 9.20167 8.00335 9.20167C6.74621 9.20167 5.66049 8.1731 5.66049 6.85882Z" fill="#1159E5"/>
</svg>
