<svg width="16" height="20" viewBox="0 0 16 20" fill="none" xmlns="http://www.w3.org/2000/svg">
<path d="M8 0C3.77832 0 0.34375 3.43457 0.34375 7.65625C0.34375 9.00758 0.700781 10.3361 1.37621 11.4982C1.53367 11.7692 1.70969 12.0332 1.89945 12.283L7.66734 20H8.33262L14.1005 12.283C14.2903 12.0332 14.4663 11.7692 14.6238 11.4983C15.2992 10.3361 15.6562 9.00758 15.6562 7.65625C15.6562 3.43457 12.2217 0 8 0ZM8 10.1953C6.59996 10.1953 5.46094 9.05629 5.46094 7.65625C5.46094 6.25621 6.59996 5.11719 8 5.11719C9.40004 5.11719 10.5391 6.25621 10.5391 7.65625C10.5391 9.05629 9.40004 10.1953 8 10.1953Z" fill="white"/>
</svg>
