<svg width="20" height="20" viewBox="0 0 20 20" fill="none" xmlns="http://www.w3.org/2000/svg">
<g clip-path="url(#clip0_3246_100484)">
<path d="M3.89813 18.1971C5.49424 18.1776 6.77234 16.868 6.75284 15.2721C6.73334 13.6762 5.42363 12.3983 3.82752 12.4178C2.23141 12.4373 0.953307 13.7469 0.972805 15.3428C0.992304 16.9386 2.30202 18.2166 3.89813 18.1971Z" fill="white"/>
<path d="M17.0856 18.1971C18.6817 18.1776 19.9598 16.868 19.9403 15.2721C19.9208 13.6762 18.6111 12.3983 17.015 12.4178C15.4189 12.4373 14.1408 13.7469 14.1603 15.3428C14.1798 16.9386 15.4895 18.2166 17.0856 18.1971Z" fill="white"/>
<path d="M11.2221 4.12533C11.3933 4.29525 11.6242 4.39144 11.8654 4.3933L13.433 10.0374C13.7158 11.055 13.4627 12.1562 12.7365 12.9234C12.7365 12.9234 11.8037 13.9285 10.4072 13.93C9.96664 13.9269 9.54517 13.7497 9.2348 13.437C8.92443 13.1243 8.75036 12.7015 8.75058 12.2609C8.75049 11.651 8.81862 11.0431 8.9537 10.4484C9.12792 9.76595 9.24159 9.5433 9.45058 9.11517C10.1326 9.02181 10.3959 8.0183 9.89159 7.20111C9.36269 6.34173 8.20331 6.2433 6.80566 6.73236C5.408 7.22142 4.10214 6.95775 2.29745 6.64916C0.482999 6.339 0.199014 9.12298 1.50956 9.12298H2.30175C1.36514 9.68067 0.604268 10.4905 0.106046 11.4601C0.0489968 11.5699 0.0141497 11.6899 0.00349639 11.8132C-0.00715696 11.9365 0.00659226 12.0607 0.0439581 12.1786C0.081324 12.2966 0.141574 12.4061 0.221264 12.5007C0.300954 12.5954 0.398521 12.6735 0.508389 12.7304C0.613256 12.7831 0.731933 12.8018 0.847931 12.784C0.963929 12.7661 1.07149 12.7126 1.15565 12.6308C1.59153 12.1876 2.13014 11.859 2.72362 11.6742C3.09352 11.5635 3.47702 11.5049 3.86308 11.4999C4.87165 11.5011 5.83859 11.9023 6.55173 12.6155C7.26486 13.3287 7.66595 14.2957 7.66698 15.3042C7.66698 15.3824 7.66464 15.4611 7.65995 15.5406C7.65824 15.5672 7.66203 15.594 7.67107 15.6191C7.68012 15.6443 7.69423 15.6673 7.71254 15.6868C7.73085 15.7063 7.75297 15.7218 7.77752 15.7324C7.80207 15.743 7.82853 15.7484 7.85526 15.7484H12.2693C12.5201 15.7413 12.76 15.6442 12.9451 15.4749C13.1302 15.3055 13.2482 15.0753 13.2775 14.8261C13.3692 14.1037 13.6662 13.4228 14.1333 12.8642C14.6004 12.3056 15.218 11.8927 15.9127 11.6745C16.2826 11.5639 16.6661 11.5052 17.0521 11.5003C17.9307 11.4996 18.7822 11.8043 19.4607 12.3624C19.7373 12.5894 20.1299 12.2703 19.96 11.9554L19.9553 11.9472C19.3909 10.9463 18.5338 10.1421 17.499 9.64252C17.351 9.57064 17.201 9.50619 17.0502 9.4472C16.9994 6.8347 13.967 4.39447 13.967 4.39447C14.7814 4.44213 14.81 3.63119 14.81 3.63119C14.86 2.64798 14.1943 1.86009 13.276 1.80619C13.0446 1.79419 12.8153 1.85439 12.6197 1.97845L12.0885 2.31205C11.9106 2.42661 11.7229 2.52505 11.5275 2.60619C11.3931 2.66058 11.2732 2.74573 11.1777 2.85482C11.0821 2.9639 11.0134 3.09388 10.9771 3.23431C10.9771 3.23431 10.7322 3.30697 10.6424 3.39056C10.5788 3.44486 10.5324 3.51638 10.5085 3.5965C10.4847 3.67662 10.4846 3.76192 10.5082 3.8421C10.5318 3.92229 10.578 3.99395 10.6414 4.04843C10.7048 4.10291 10.7826 4.13789 10.8654 4.14916C10.8654 4.14916 10.9904 4.17025 11.2221 4.12533Z" fill="white"/>
</g>
<defs>
<clipPath id="clip0_3246_100484">
<rect width="20" height="20" fill="white"/>
</clipPath>
</defs>
</svg>
