<svg width="20" height="20" viewBox="0 0 20 20" fill="none" xmlns="http://www.w3.org/2000/svg">
<g clip-path="url(#clip0_4827_263740)">
<path d="M18.8715 1.50595e-06H1.79693C1.49578 -0.000593372 1.2197 0.175093 1.08204 0.454883C0.942474 0.73844 0.966969 1.0799 1.14527 1.33887L7.40065 10.5412C7.40274 10.5444 7.40502 10.5473 7.40711 10.5505C7.6344 10.871 7.75725 11.259 7.75801 11.658V19.1605C7.75668 19.3828 7.84023 19.5962 7.99023 19.7538C8.14024 19.9115 8.34417 19.9999 8.55683 19.9999C8.66506 19.9999 8.77196 19.9773 8.87184 19.9341L12.3869 18.5343C12.7019 18.434 12.911 18.1237 12.911 17.7499V11.658C12.9115 11.2592 13.0346 10.871 13.2617 10.5505C13.2638 10.5473 13.266 10.5444 13.2681 10.5412L19.5233 1.33847C19.7016 1.0797 19.7261 0.73844 19.5865 0.454883C19.4489 0.175093 19.1728 -0.000593372 18.8715 1.50595e-06ZM12.4778 9.94909C12.1285 10.4442 11.9395 11.0429 11.9384 11.658V17.6266L8.73019 18.904V11.658C8.72905 11.0429 8.54012 10.4442 8.19055 9.94909L2.11764 1.01526H18.5509L12.4778 9.94909Z" fill="#303030"/>
</g>
<defs>
<clipPath id="clip0_4827_263740">
<rect width="19.1515" height="20" fill="white" transform="translate(0.75)"/>
</clipPath>
</defs>
</svg>
