<svg width="20" height="18" viewBox="0 0 20 18" fill="none" xmlns="http://www.w3.org/2000/svg">
<path d="M10.1671 17.0763C10.0468 17.1444 9.90189 17.1353 9.78819 17.0491C8.8012 16.3009 4.5651 12.9724 1.98807 9.07863C0.501782 6.8329 0.681313 3.88337 2.26303 2.10978C3.84471 0.336199 6.30381 0.606588 7.99069 2.10978C8.77764 2.81105 9.38249 3.5411 9.71417 3.97303C9.8637 4.16782 10.133 4.16782 10.2825 3.97303C10.6141 3.54106 11.219 2.81105 12.006 2.10978C13.6928 0.606588 16.1519 0.336199 17.7336 2.10978C17.9075 2.30474 18.0644 2.5139 18.204 2.73478C19.3351 4.52334 19.3318 7.07934 18.0087 9.0785C15.4317 12.9723 11.1956 16.3008 10.2086 17.049C10.1952 17.0592 10.1813 17.0683 10.1671 17.0763Z" fill="#C7C7C7"/>
</svg>
