<svg width="20" height="20" viewBox="0 0 20 20" fill="none" xmlns="http://www.w3.org/2000/svg">
<mask id="mask0_3175_52212" style="mask-type:alpha" maskUnits="userSpaceOnUse" x="0" y="0" width="20" height="20">
<rect width="20" height="20" fill="#D9D9D9"/>
</mask>
<g mask="url(#mask0_3175_52212)">
<path d="M14.9974 17.5026H5.83073V6.66927L11.6641 0.835938L12.7057 1.8776C12.803 1.97483 12.8828 2.10677 12.9453 2.27344C13.0078 2.4401 13.0391 2.59983 13.0391 2.7526V3.04427L12.1224 6.66927H17.4974C17.9418 6.66927 18.3307 6.83594 18.6641 7.16927C18.9974 7.5026 19.1641 7.89149 19.1641 8.33594V10.0026C19.1641 10.0998 19.1502 10.204 19.1224 10.3151C19.0946 10.4262 19.0668 10.5304 19.0391 10.6276L16.5391 16.5026C16.4141 16.7804 16.2057 17.0165 15.9141 17.2109C15.6224 17.4054 15.3168 17.5026 14.9974 17.5026ZM7.4974 15.8359H14.9974L17.4974 10.0026V8.33594H9.9974L11.1224 3.7526L7.4974 7.3776V15.8359ZM5.83073 6.66927V8.33594H3.33073V15.8359H5.83073V17.5026H1.66406V6.66927H5.83073Z" fill="#5F5F5F"/>
</g>
</svg>
