<svg width="16" height="16" viewBox="0 0 16 16" fill="none" xmlns="http://www.w3.org/2000/svg">
<path d="M12.7867 1.98207C11.5086 0.703908 9.80914 0 8.00158 0C6.19401 0 4.49457 0.703908 3.21644 1.98207C1.93828 3.26026 1.23438 4.95963 1.23438 6.76717C1.23438 10.4238 4.69182 13.4652 6.54929 15.0992C6.80742 15.3262 7.03032 15.5223 7.20792 15.6882C7.43042 15.896 7.71601 16 8.00154 16C8.28714 16 8.57267 15.896 8.7952 15.6882C8.9728 15.5223 9.1957 15.3262 9.45383 15.0992C11.3113 13.4652 14.7687 10.4238 14.7687 6.76717C14.7687 4.95963 14.0648 3.26026 12.7867 1.98207ZM8.83476 14.3955C8.57098 14.6275 8.3432 14.8279 8.15539 15.0033C8.06911 15.0838 7.93398 15.0839 7.84767 15.0033C7.65989 14.8278 7.43208 14.6275 7.16829 14.3954C5.42204 12.8593 2.17156 9.99999 2.17156 6.7672C2.17156 3.55257 4.78685 0.937283 8.00151 0.937283C11.2161 0.937283 13.8314 3.55257 13.8314 6.7672C13.8315 9.99999 10.581 12.8593 8.83476 14.3955Z" fill="black"/>
<path d="M7.99785 3.53125C6.35344 3.53125 5.01562 4.86903 5.01562 6.51344C5.01562 8.15785 6.35344 9.49564 7.99785 9.49564C9.64226 9.49564 10.98 8.15785 10.98 6.51344C10.98 4.86903 9.64226 3.53125 7.99785 3.53125ZM7.99785 8.55835C6.87025 8.55835 5.95288 7.64098 5.95288 6.51341C5.95288 5.38585 6.87025 4.46847 7.99785 4.46847C9.12545 4.46847 10.0428 5.38585 10.0428 6.51341C10.0428 7.64098 9.12545 8.55835 7.99785 8.55835Z" fill="black"/>
</svg>
