<svg width="14" height="18" viewBox="0 0 14 18" fill="none" xmlns="http://www.w3.org/2000/svg">
<path d="M11.375 6.5V4.44375C11.3733 3.33201 10.931 2.26627 10.1449 1.48015C9.35873 0.694024 8.29299 0.251653 7.18125 0.25H6.81875C5.70701 0.251653 4.64127 0.694024 3.85515 1.48015C3.06902 2.26627 2.62665 3.33201 2.625 4.44375V6.5C2.12772 6.5 1.65081 6.69754 1.29917 7.04917C0.947544 7.40081 0.75 7.87772 0.75 8.375V14.1875C0.751652 15.1318 1.12752 16.037 1.79526 16.7047C2.463 17.3725 3.36817 17.7483 4.3125 17.75H9.6875C10.6318 17.7483 11.537 17.3725 12.2047 16.7047C12.8725 16.037 13.2483 15.1318 13.25 14.1875V8.375C13.25 7.87772 13.0525 7.40081 12.7008 7.04917C12.3492 6.69754 11.8723 6.5 11.375 6.5ZM3.875 4.44375C3.875 3.66302 4.18514 2.91426 4.7372 2.3622C5.28926 1.81014 6.03802 1.5 6.81875 1.5H7.18125C7.96198 1.5 8.71074 1.81014 9.2628 2.3622C9.81486 2.91426 10.125 3.66302 10.125 4.44375V6.5H3.875V4.44375ZM12 14.1875C12 14.8008 11.7564 15.389 11.3227 15.8227C10.889 16.2564 10.3008 16.5 9.6875 16.5H4.3125C3.69919 16.5 3.11099 16.2564 2.67732 15.8227C2.24364 15.389 2 14.8008 2 14.1875V8.375C2 8.20924 2.06585 8.05027 2.18306 7.93306C2.30027 7.81585 2.45924 7.75 2.625 7.75H11.375C11.5408 7.75 11.6997 7.81585 11.8169 7.93306C11.9342 8.05027 12 8.20924 12 8.375V14.1875Z" fill="#5E5E5E"/>
<path d="M7.625 11.9497V13.9997C7.625 14.1655 7.55915 14.3245 7.44194 14.4417C7.32473 14.5589 7.16576 14.6247 7 14.6247C6.83424 14.6247 6.67527 14.5589 6.55806 14.4417C6.44085 14.3245 6.375 14.1655 6.375 13.9997V11.9497C6.1367 11.8121 5.95045 11.5998 5.84515 11.3455C5.73985 11.0913 5.72137 10.8095 5.79259 10.5437C5.86381 10.2779 6.02074 10.043 6.23905 9.8755C6.45735 9.70798 6.72483 9.61719 7 9.61719C7.27517 9.61719 7.54265 9.70798 7.76095 9.8755C7.97926 10.043 8.13619 10.2779 8.20741 10.5437C8.27863 10.8095 8.26015 11.0913 8.15485 11.3455C8.04955 11.5998 7.8633 11.8121 7.625 11.9497Z" fill="#5E5E5E"/>
</svg>
