<svg width="23" height="23" viewBox="0 0 23 23" fill="none" xmlns="http://www.w3.org/2000/svg">
<path d="M13.7042 12.1649C13.2837 12.1693 12.8674 12.0804 12.4853 11.9046C12.1032 11.7289 11.7648 11.4706 11.4945 11.1484C11.2221 11.4683 10.8833 11.7249 10.5017 11.9005C10.1201 12.076 9.70477 12.1663 9.2847 12.1649C8.86414 12.1693 8.44785 12.0804 8.06576 11.9046C7.68367 11.7289 7.34528 11.4706 7.07493 11.1484C6.99344 11.2462 6.9048 11.3378 6.80975 11.4225C6.51218 11.6932 6.16059 11.8978 5.77816 12.0227C5.39574 12.1477 4.99117 12.1901 4.59115 12.1473C3.86713 12.058 3.20153 11.7047 2.72196 11.155C2.2424 10.6053 1.98263 9.89792 1.99246 9.16849V8.54092C1.99174 8.09046 2.06336 7.6428 2.20459 7.21506L3.59233 3.06069C3.69447 2.75216 3.89119 2.48364 4.15458 2.29325C4.41796 2.10285 4.73462 2.00025 5.05962 2H17.9293C18.2543 2.00025 18.571 2.10285 18.8344 2.29325C19.0977 2.48364 19.2945 2.75216 19.3966 3.06069L20.7843 7.21506C20.9256 7.6428 20.9972 8.09046 20.9965 8.54092V9.16849C21.0068 9.89523 20.7495 10.6004 20.2736 11.1497C19.7976 11.699 19.1363 12.054 18.4155 12.1473C18.0154 12.1913 17.6105 12.1494 17.2279 12.0244C16.8453 11.8994 16.4938 11.6942 16.1969 11.4225C16.0996 11.3341 16.0024 11.228 15.914 11.1308C15.643 11.4534 15.3048 11.713 14.9232 11.8916C14.5416 12.0702 14.1256 12.1635 13.7042 12.1649ZM5.05962 3.32586C5.01322 3.32656 4.96812 3.3413 4.93026 3.36812C4.89239 3.39494 4.86354 3.43259 4.84748 3.47613L3.46858 7.63049C3.37282 7.91552 3.32213 8.21374 3.31832 8.5144V9.14197C3.30535 9.54101 3.4396 9.93087 3.69551 10.2373C3.95142 10.5437 4.3111 10.7453 4.70605 10.8037C4.9192 10.8258 5.13461 10.8033 5.33863 10.7378C5.54264 10.6722 5.73081 10.565 5.8912 10.4229C6.05159 10.2808 6.1807 10.1069 6.27035 9.91226C6.36 9.71763 6.40824 9.50649 6.412 9.29224C6.412 9.11642 6.48184 8.9478 6.60616 8.82348C6.73049 8.69915 6.89911 8.62931 7.07493 8.62931C7.25075 8.62931 7.41937 8.69915 7.54369 8.82348C7.66801 8.9478 7.73786 9.11642 7.73786 9.29224C7.72774 9.49805 7.76082 9.7037 7.83498 9.89595C7.90913 10.0882 8.02272 10.2628 8.16842 10.4085C8.31413 10.5542 8.48873 10.6678 8.68098 10.742C8.87324 10.8161 9.07889 10.8492 9.2847 10.8391C9.69423 10.8368 10.0863 10.673 10.3759 10.3835C10.6655 10.0939 10.8292 9.70177 10.8315 9.29224C10.8315 9.11642 10.9014 8.9478 11.0257 8.82348C11.15 8.69915 11.3186 8.62931 11.4945 8.62931C11.6703 8.62931 11.8389 8.69915 11.9632 8.82348C12.0876 8.9478 12.1574 9.11642 12.1574 9.29224C12.1473 9.49805 12.1804 9.7037 12.2545 9.89595C12.3287 10.0882 12.4423 10.2628 12.588 10.4085C12.7337 10.5542 12.9083 10.6678 13.1005 10.742C13.2928 10.8161 13.4984 10.8492 13.7042 10.8391C14.1138 10.8368 14.5059 10.673 14.7955 10.3835C15.085 10.0939 15.2488 9.70177 15.2511 9.29224C15.2511 9.11642 15.3209 8.9478 15.4452 8.82348C15.5696 8.69915 15.7382 8.62931 15.914 8.62931C16.0898 8.62931 16.2584 8.69915 16.3828 8.82348C16.5071 8.9478 16.5769 9.11642 16.5769 9.29224C16.577 9.50874 16.6226 9.72281 16.7106 9.9206C16.7986 10.1184 16.9272 10.2955 17.088 10.4405C17.2488 10.5854 17.4382 10.695 17.6441 10.7622C17.8499 10.8293 18.0675 10.8525 18.2829 10.8302C18.6778 10.7719 19.0375 10.5703 19.2934 10.2638C19.5493 9.95738 19.6836 9.56752 19.6706 9.16849V8.54092C19.6668 8.24026 19.6161 7.94204 19.5203 7.65701L18.1415 3.50264C18.1254 3.45911 18.0965 3.42145 18.0587 3.39463C18.0208 3.36781 17.9757 3.35308 17.9293 3.35238L5.05962 3.32586Z" fill="#4E4E4E"/>
<path d="M18.5644 21.0045H4.42184C4.01231 21.0022 3.62021 20.8385 3.33062 20.5489C3.04104 20.2593 2.87732 19.8672 2.875 19.4577V11.0429C2.875 10.867 2.94484 10.6984 3.06917 10.5741C3.19349 10.4498 3.36211 10.3799 3.53793 10.3799C3.71375 10.3799 3.88237 10.4498 4.00669 10.5741C4.13102 10.6984 4.20086 10.867 4.20086 11.0429V19.4577C4.20086 19.5163 4.22414 19.5725 4.26558 19.6139C4.30703 19.6554 4.36323 19.6786 4.42184 19.6786H18.5644C18.623 19.6786 18.6792 19.6554 18.7206 19.6139C18.7621 19.5725 18.7853 19.5163 18.7853 19.4577V11.034C18.7853 10.8582 18.8552 10.6896 18.9795 10.5653C19.1038 10.4409 19.2725 10.3711 19.4483 10.3711C19.6241 10.3711 19.7927 10.4409 19.917 10.5653C20.0414 10.6896 20.1112 10.8582 20.1112 11.034V19.4577C20.1089 19.8672 19.9452 20.2593 19.6556 20.5489C19.366 20.8385 18.9739 21.0022 18.5644 21.0045Z" fill="#4E4E4E"/>
<path d="M14.5842 21.0038H8.39726C8.22216 21.0015 8.05488 20.931 7.93106 20.8071C7.80724 20.6833 7.73666 20.516 7.73438 20.3409V15.9217C7.7367 15.5122 7.9004 15.1202 8.18996 14.8306C8.47953 14.541 8.8716 14.3773 9.2811 14.375H13.7003C14.1098 14.3773 14.5019 14.541 14.7915 14.8306C15.081 15.1202 15.2447 15.5122 15.247 15.9217V20.3409C15.2448 20.516 15.1742 20.6833 15.0504 20.8071C14.9265 20.931 14.7593 21.0015 14.5842 21.0038ZM9.06014 19.6781H13.9213V15.9217C13.9213 15.8631 13.898 15.8069 13.8566 15.7655C13.8151 15.724 13.7589 15.7008 13.7003 15.7008H9.2811C9.2225 15.7008 9.1663 15.724 9.12486 15.7655C9.08342 15.8069 9.06014 15.8631 9.06014 15.9217V19.6781Z" fill="#4E4E4E"/>
</svg>
