<svg width="20" height="20" viewBox="0 0 20 20" fill="none" xmlns="http://www.w3.org/2000/svg">
<path d="M17.1892 13.3324C17.1244 13.2543 17.0607 13.1762 16.9982 13.1008C16.1388 12.0613 15.6189 11.434 15.6189 8.49141C15.6189 6.96797 15.2545 5.71797 14.5361 4.78047C14.0064 4.08789 13.2904 3.5625 12.3467 3.17422C12.3345 3.16746 12.3237 3.1586 12.3146 3.14805C11.9752 2.01133 11.0463 1.25 9.99861 1.25C8.95095 1.25 8.02244 2.01133 7.68299 3.14687C7.67393 3.15704 7.66323 3.16562 7.65135 3.17227C5.449 4.07891 4.37869 5.81836 4.37869 8.49023C4.37869 11.434 3.85955 12.0613 2.99939 13.0996C2.93689 13.175 2.87322 13.2516 2.80838 13.3313C2.64088 13.5333 2.53475 13.779 2.50256 14.0394C2.47037 14.2999 2.51346 14.5641 2.62674 14.8008C2.86775 15.3086 3.38142 15.6238 3.96775 15.6238H16.0338C16.6174 15.6238 17.1275 15.309 17.3693 14.8035C17.4831 14.5668 17.5266 14.3023 17.4947 14.0416C17.4627 13.7809 17.3567 13.5348 17.1892 13.3324Z" fill="#2D6EEC"/>
<path d="M10.0037 18.75C10.5681 18.7495 11.122 18.5963 11.6064 18.3066C12.0908 18.0168 12.4878 17.6014 12.7552 17.1043C12.7678 17.0805 12.7741 17.0538 12.7733 17.0269C12.7725 16.9999 12.7648 16.9736 12.7509 16.9506C12.737 16.9275 12.7173 16.9084 12.6939 16.8952C12.6704 16.8819 12.6439 16.875 12.617 16.875H7.39117C7.36419 16.8749 7.33764 16.8818 7.31412 16.895C7.29059 16.9082 7.27089 16.9273 7.25692 16.9504C7.24296 16.9735 7.23521 16.9998 7.23444 17.0268C7.23366 17.0537 7.23989 17.0804 7.2525 17.1043C7.5199 17.6013 7.91682 18.0167 8.40118 18.3065C8.88553 18.5962 9.43927 18.7495 10.0037 18.75Z" fill="#2D6EEC"/>
</svg>
