<svg width="20" height="20" viewBox="0 0 20 20" fill="none" xmlns="http://www.w3.org/2000/svg">
<path d="M17.6607 4.99897C17.4306 4.74156 17.1496 4.53463 16.8355 4.3912C16.5214 4.24778 16.181 4.17097 15.8357 4.16564H14.0857C13.8945 3.22373 13.3835 2.37691 12.6393 1.76865C11.8951 1.1604 10.9635 0.828125 10.0024 0.828125C9.04129 0.828125 8.10971 1.1604 7.36553 1.76865C6.62136 2.37691 6.11034 3.22373 5.91908 4.16564H4.16908C3.82702 4.16495 3.48845 4.23447 3.17434 4.36989C2.86022 4.50531 2.57723 4.70375 2.34289 4.95293C2.10855 5.20211 1.92784 5.49674 1.81194 5.81857C1.69604 6.1404 1.64742 6.48259 1.66908 6.82397L2.19408 15.2573C2.25991 16.317 2.72779 17.3116 3.50217 18.038C4.27655 18.7643 5.29902 19.1677 6.36075 19.1656H13.6441C14.7058 19.1677 15.7283 18.7643 16.5027 18.038C17.277 17.3116 17.7449 16.317 17.8107 15.2573L18.3357 6.82397C18.3509 6.4901 18.299 6.15657 18.1831 5.8431C18.0672 5.52964 17.8895 5.2426 17.6607 4.99897ZM10.0024 2.49897C10.5182 2.50042 11.0209 2.66137 11.4416 2.95975C11.8624 3.25813 12.1805 3.67934 12.3524 4.16564H7.65242C7.82434 3.67934 8.14247 3.25813 8.56319 2.95975C8.98391 2.66137 9.48663 2.50042 10.0024 2.49897Z" fill="#2D6EEC"/>
</svg>
