<svg width="18" height="18" viewBox="0 0 18 18" fill="none" xmlns="http://www.w3.org/2000/svg">
<path d="M16.8125 9.75H13.0937C12.611 9.75 12.148 9.94178 11.8066 10.2832C11.4652 10.6245 11.2734 11.0875 11.2734 11.5703C11.2734 12.0531 11.4652 12.5161 11.8066 12.8575C12.148 13.1988 12.611 13.3906 13.0937 13.3906H16.8125C17.0609 13.3899 17.299 13.2909 17.4746 13.1152C17.6503 12.9396 17.7493 12.7015 17.75 12.4531V10.6875C17.7498 10.4389 17.651 10.2006 17.4752 10.0248C17.2994 9.84903 17.0611 9.7502 16.8125 9.75ZM13.6344 12.5875C13.3662 12.5845 13.11 12.4758 12.9215 12.285C12.7329 12.0943 12.6271 11.8369 12.6271 11.5687C12.6271 11.3005 12.7329 11.0431 12.9215 10.8524C13.11 10.6617 13.3662 10.553 13.6344 10.55C13.9026 10.553 14.1588 10.6617 14.3473 10.8524C14.5359 11.0432 14.6416 11.3006 14.6416 11.5688C14.6416 11.837 14.5359 12.0944 14.3473 12.2851C14.1587 12.4758 13.9026 12.5845 13.6344 12.5875Z" fill="white"/>
<path d="M14.2906 4.60905L13.0125 2.55593C12.808 2.22991 12.4856 1.99534 12.1125 1.90104C11.7394 1.80674 11.3442 1.85998 11.0094 2.04968C10.9844 2.06218 6.90625 4.60905 6.90625 4.60905H14.2906Z" fill="white"/>
<path d="M13.0938 14.1719C9.64529 14.0415 9.64529 9.09654 13.0938 8.96875H16.25V6.95312C16.2493 6.53893 16.0845 6.1419 15.7916 5.84902C15.4987 5.55614 15.1017 5.39131 14.6875 5.39062H1.8125C1.39831 5.39131 1.00128 5.55614 0.708398 5.84902C0.41552 6.1419 0.250681 6.53893 0.25 6.95312V16.1656C0.25015 16.58 0.414818 16.9773 0.707811 17.2703C1.0008 17.5633 1.39815 17.728 1.8125 17.7281H14.6875C15.1019 17.728 15.4992 17.5633 15.7922 17.2703C16.0852 16.9773 16.2499 16.58 16.25 16.1656V14.1719C15.8678 14.1693 13.5322 14.1737 13.0938 14.1719Z" fill="white"/>
<path d="M5.42813 4.60791C5.42813 4.60791 10.5669 1.38675 10.6844 1.33291C10.2487 0.786351 9.72056 0.26537 8.97186 0.27046C8.72385 0.262467 8.47688 0.306117 8.24664 0.398638C8.01639 0.49116 7.8079 0.630533 7.63437 0.807914L3.875 4.60791C4.26268 4.60416 5.04641 4.61063 5.42813 4.60791Z" fill="white"/>
<path d="M13.6377 11.1719C13.5343 11.1735 13.4357 11.2157 13.3632 11.2893C13.2907 11.363 13.25 11.4622 13.25 11.5656C13.25 11.669 13.2907 11.7683 13.3632 11.8419C13.4357 11.9156 13.5344 11.9578 13.6377 11.9594C13.7411 11.9578 13.8397 11.9156 13.9122 11.8419C13.9848 11.7682 14.0254 11.669 14.0254 11.5656C14.0254 11.4622 13.9848 11.363 13.9122 11.2893C13.8397 11.2157 13.7411 11.1735 13.6377 11.1719Z" fill="white"/>
</svg>
