<svg width="16" height="16" viewBox="0 0 16 16" fill="none" xmlns="http://www.w3.org/2000/svg">
<g clip-path="url(#clip0_3228_117288)">
<path d="M4.66927 2.66536V1.33203H11.3359V2.66536H14.6693V3.9987H13.3359V13.9987C13.3359 14.1755 13.2657 14.3451 13.1407 14.4701C13.0157 14.5951 12.8461 14.6654 12.6693 14.6654H3.33594C3.15913 14.6654 2.98956 14.5951 2.86453 14.4701C2.73951 14.3451 2.66927 14.1755 2.66927 13.9987V3.9987H1.33594V2.66536H4.66927ZM4.0026 3.9987V13.332H12.0026V3.9987H4.0026ZM6.0026 5.9987H7.33594V11.332H6.0026V5.9987ZM8.66927 5.9987H10.0026V11.332H8.66927V5.9987Z" fill="#F11515"/>
</g>
<defs>
<clipPath id="clip0_3228_117288">
<rect width="16" height="16" fill="white"/>
</clipPath>
</defs>
</svg>
