<svg width="13" height="11" viewBox="0 0 13 11" fill="none" xmlns="http://www.w3.org/2000/svg">
<path d="M1.31961 6.90998C1.45782 6.90998 1.59465 6.84825 1.68495 6.7303L1.88537 6.47C2.18529 8.24928 3.43152 9.77148 5.20066 10.3856C5.74523 10.5745 6.30408 10.6653 6.85555 10.6653C8.50675 10.6653 10.0958 9.85072 11.0471 8.41652C11.1876 8.20459 11.1296 7.91849 10.9177 7.77797C10.7048 7.63653 10.4201 7.6955 10.2787 7.90743C9.24251 9.47109 7.27849 10.1327 5.50335 9.51532C4.03045 9.00393 3.00306 7.72176 2.78376 6.23273L3.17813 6.53634C3.38038 6.69068 3.66925 6.65383 3.82405 6.45203C3.97931 6.25024 3.94199 5.96137 3.7402 5.80611C3.7402 5.80611 2.65061 4.96715 2.64785 4.96531C2.41887 4.78885 2.09315 4.6898 1.88583 4.96024L0.955183 6.16869C0.799922 6.37049 0.83724 6.65935 1.03903 6.81461C1.12242 6.87865 1.22148 6.90998 1.31961 6.90998Z" fill="#FDFDFD"/>
<path d="M2.76865 3.48129C2.98012 3.62181 3.26622 3.56376 3.40766 3.35183C4.4438 1.78863 6.40967 1.12704 8.18296 1.74394C9.65587 2.25533 10.6833 3.5375 10.9026 5.02653L10.5082 4.72292C10.3059 4.56812 10.0171 4.60497 9.86227 4.80723C9.707 5.00902 9.74432 5.29789 9.94611 5.45315C9.94611 5.45315 11.0357 6.29165 11.0385 6.29395C11.2716 6.47317 11.5899 6.57361 11.8005 6.29902L12.7311 5.09057C12.8864 4.88877 12.8491 4.59991 12.6473 4.44465C12.4455 4.28938 12.1562 4.32716 12.0014 4.52896L11.801 4.78926C11.501 3.00998 10.2548 1.48778 8.48565 0.873649C6.31108 0.118999 3.90799 0.928474 2.63919 2.84228C2.49867 3.05467 2.55672 3.34031 2.76865 3.48129Z" fill="#FDFDFD"/>
</svg>
