<svg width="16" height="16" viewBox="0 0 16 16" fill="none" xmlns="http://www.w3.org/2000/svg">
<g clip-path="url(#clip0_2998_53293)">
<path d="M15.4937 14.5735L11.6857 10.6129C12.6648 9.44901 13.2012 7.98455 13.2012 6.45999C13.2012 2.89801 10.3032 0 6.74124 0C3.17926 0 0.28125 2.89801 0.28125 6.45999C0.28125 10.022 3.17926 12.92 6.74124 12.92C8.07846 12.92 9.35277 12.5167 10.4423 11.751L14.2792 15.7416C14.4396 15.9082 14.6553 16 14.8865 16C15.1053 16 15.3128 15.9166 15.4704 15.7649C15.8052 15.4428 15.8159 14.9085 15.4937 14.5735ZM6.74124 1.68522C9.37411 1.68522 11.516 3.82713 11.516 6.45999C11.516 9.09286 9.37411 11.2348 6.74124 11.2348C4.10838 11.2348 1.96647 9.09286 1.96647 6.45999C1.96647 3.82713 4.10838 1.68522 6.74124 1.68522Z" fill="#696969"/>
</g>
<defs>
<clipPath id="clip0_2998_53293">
<rect width="16" height="16" fill="white"/>
</clipPath>
</defs>
</svg>
