<svg width="23" height="23" viewBox="0 0 23 23" fill="none" xmlns="http://www.w3.org/2000/svg">
<g clip-path="url(#clip0_3175_98118)">
<path d="M16.6641 19.5898C15.7728 19.5898 15.0469 18.8639 15.0469 17.9727C15.0469 17.0814 15.7728 16.3555 16.6641 16.3555C17.5553 16.3555 18.2812 17.0814 18.2812 17.9727C18.2812 18.8639 17.5553 19.5898 16.6641 19.5898ZM16.6641 17.4336C16.3672 17.4336 16.125 17.6758 16.125 17.9727C16.125 18.2695 16.3672 18.5117 16.6641 18.5117C16.9609 18.5117 17.2031 18.2695 17.2031 17.9727C17.2031 17.6758 16.9609 17.4336 16.6641 17.4336Z" fill="#4E4E4E"/>
<path d="M22.148 7.21446L21.021 8.15458C20.8679 8.28252 20.6458 8.28252 20.4927 8.15458L19.3657 7.21446C19.1372 7.02399 19.1063 6.68402 19.2967 6.45546C19.4872 6.2269 19.8279 6.19599 20.0565 6.38718L20.7565 6.97152L21.4566 6.38718C21.6851 6.19599 22.0251 6.2269 22.2163 6.45546C22.4068 6.68402 22.3766 7.02399 22.148 7.21446Z" fill="#4E4E4E"/>
<path d="M17.3438 9.86719C17.6415 9.86719 17.8828 9.62584 17.8828 9.32812C17.8828 9.03041 17.6415 8.78906 17.3438 8.78906C17.046 8.78906 16.8047 9.03041 16.8047 9.32812C16.8047 9.62584 17.046 9.86719 17.3438 9.86719Z" fill="#4E4E4E"/>
<path d="M17.3438 11.9297C17.6415 11.9297 17.8828 11.6883 17.8828 11.3906C17.8828 11.0929 17.6415 10.8516 17.3438 10.8516C17.046 10.8516 16.8047 11.0929 16.8047 11.3906C16.8047 11.6883 17.046 11.9297 17.3438 11.9297Z" fill="#4E4E4E"/>
<path d="M21.2969 7.37891H20.2188C20.2188 4.90209 18.2034 2.88672 15.7266 2.88672H14.8281C14.5306 2.88672 14.2891 2.64522 14.2891 2.34766C14.2891 2.05009 14.5306 1.80859 14.8281 1.80859H15.7266C18.7978 1.80859 21.2969 4.30769 21.2969 7.37891Z" fill="#4E4E4E"/>
<path d="M8.33594 11.3203C6.05678 11.3203 4.20312 9.46666 4.20312 7.1875C4.20312 4.90834 6.05678 3.05469 8.33594 3.05469C10.6151 3.05469 12.4688 4.90834 12.4688 7.1875C12.4688 9.46666 10.6151 11.3203 8.33594 11.3203ZM8.33594 4.13281C6.65119 4.13281 5.28125 5.50275 5.28125 7.1875C5.28125 8.87225 6.65119 10.2422 8.33594 10.2422C10.0207 10.2422 11.3906 8.87225 11.3906 7.1875C11.3906 5.50275 10.0207 4.13281 8.33594 4.13281Z" fill="#4E4E4E"/>
<path d="M13.1991 5.30941C12.4286 3.31631 10.4743 1.97656 8.33606 1.97656C6.21287 1.97656 4.31969 3.24588 3.51397 5.21022L2.51562 4.80053C3.48953 2.43009 5.77372 0.898438 8.33678 0.898438C10.9164 0.898438 13.2746 2.51491 14.2047 4.92056L13.1991 5.30941Z" fill="#4E4E4E"/>
<path d="M13.3672 10.0742C12.2768 10.0742 11.3906 9.188 11.3906 8.09766V6.66016C11.3906 5.56981 12.2768 4.68359 13.3672 4.68359C14.4575 4.68359 15.3438 5.56981 15.3438 6.66016V8.09766C15.3438 9.188 14.4575 10.0742 13.3672 10.0742ZM13.3672 5.76172C12.872 5.76172 12.4688 6.16494 12.4688 6.66016V8.09766C12.4688 8.59288 12.872 8.99609 13.3672 8.99609C13.8624 8.99609 14.2656 8.59288 14.2656 8.09766V6.66016C14.2656 6.16494 13.8624 5.76172 13.3672 5.76172Z" fill="#4E4E4E"/>
<path d="M3.30469 10.0742C2.21434 10.0742 1.32812 9.188 1.32812 8.09766V6.66016C1.32812 5.56981 2.21434 4.68359 3.30469 4.68359C4.39503 4.68359 5.28125 5.56981 5.28125 6.66016V8.09766C5.28125 9.188 4.39503 10.0742 3.30469 10.0742ZM3.30469 5.76172C2.80947 5.76172 2.40625 6.16494 2.40625 6.66016V8.09766C2.40625 8.59288 2.80947 8.99609 3.30469 8.99609C3.79991 8.99609 4.20312 8.59288 4.20312 8.09766V6.66016C4.20312 6.16494 3.79991 5.76172 3.30469 5.76172Z" fill="#4E4E4E"/>
<path d="M19.3479 22.1002H12.2193C11.6234 22.1002 11.0657 21.8357 10.6884 21.3742C10.311 20.9128 10.1637 20.3133 10.2823 19.7297L11.1361 15.5351C11.323 14.6187 12.1381 13.9531 13.0732 13.9531H20.2017C20.7976 13.9531 21.3553 14.2176 21.7327 14.6791C22.11 15.1405 22.2574 15.7399 22.1388 16.3236L21.2849 20.5175C21.098 21.4346 20.2829 22.1002 19.3479 22.1002ZM13.0732 15.0312C12.6477 15.0312 12.2775 15.3338 12.1927 15.75L11.3388 19.9446C11.2849 20.2098 11.3525 20.4822 11.5235 20.6921C11.6946 20.902 11.9483 21.022 12.2193 21.022H19.3479C19.7734 21.022 20.1435 20.7194 20.2283 20.3026L21.0822 16.1087C21.1361 15.8434 21.0685 15.571 20.8975 15.3612C20.7264 15.1513 20.4727 15.0312 20.2017 15.0312H13.0732Z" fill="#4E4E4E"/>
<path d="M12.2175 22.1016H7.82812C7.53056 22.1016 7.28906 21.8601 7.28906 21.5625C7.28906 21.2649 7.53056 21.0234 7.82812 21.0234H12.2175V22.1016Z" fill="#4E4E4E"/>
<path d="M5.06874 22.1006H3.59386C2.82193 22.1006 2.08521 21.7685 1.57346 21.1885C1.06171 20.6092 0.823084 19.8372 0.919396 19.071L1.25433 16.3951C1.32549 15.8252 1.64102 15.3148 2.11899 14.9964L5.50215 12.741C7.21852 11.5967 9.45527 11.5967 11.1716 12.741L11.4433 12.9221C11.6913 13.0874 11.7581 13.4217 11.5928 13.6696C11.4275 13.9176 11.0933 13.9844 10.8453 13.8191L10.5736 13.638C9.2188 12.7352 7.45427 12.7345 6.09943 13.638L2.71555 15.8934C2.49849 16.0379 2.35546 16.2693 2.32311 16.5281L1.98818 19.204C1.93068 19.664 2.07371 20.1269 2.38061 20.4755C2.68824 20.8226 3.12955 21.0224 3.59315 21.0224H5.06802C5.22974 21.0224 5.37349 20.9463 5.46333 20.8118C5.55318 20.6782 5.56971 20.5157 5.50933 20.3662L4.38233 17.5962C4.27021 17.3202 4.40246 17.0061 4.67846 16.8939C4.95374 16.7818 5.26855 16.9148 5.37996 17.1901L6.50696 19.9608C6.70246 20.441 6.6464 20.9843 6.35674 21.4142C6.0678 21.844 5.58552 22.1006 5.0673 22.1006H5.06874Z" fill="#4E4E4E"/>
<path d="M8.33681 16.0673C7.50522 16.0673 6.75988 15.6389 6.34156 14.9202L5.32812 13.1787L6.26034 12.6367L7.27378 14.3783C7.49659 14.7606 7.89334 14.9892 8.33681 14.9892C8.78028 14.9892 9.17703 14.7613 9.39984 14.3783L10.4126 12.6367L11.3448 13.1787L10.3321 14.9202C9.91375 15.6389 9.16769 16.0673 8.33681 16.0673Z" fill="#4E4E4E"/>
</g>
<defs>
<clipPath id="clip0_3175_98118">
<rect width="23" height="23" fill="white"/>
</clipPath>
</defs>
</svg>
