<svg width="20" height="20" viewBox="0 0 20 20" fill="none" xmlns="http://www.w3.org/2000/svg">
<path d="M14.875 18.75H5.125C3.0625 18.75 1.375 17.0625 1.375 15V14.875L1.75 4.875C1.8125 2.8125 3.5 1.25 5.5 1.25H14.5C16.5 1.25 18.1875 2.8125 18.25 4.875L18.625 14.875C18.6875 15.875 18.3125 16.8125 17.625 17.5625C16.9375 18.3125 16 18.75 15 18.75C15 18.75 14.9375 18.75 14.875 18.75ZM5.5 2.5C4.125 2.5 3.0625 3.5625 3 4.875L2.625 15C2.625 16.375 3.75 17.5 5.125 17.5H15C15.6875 17.5 16.3125 17.1875 16.75 16.6875C17.1875 16.1875 17.4375 15.5625 17.4375 14.875L17.0625 4.875C17 3.5 15.9375 2.5 14.5625 2.5H5.5Z" fill="#4B4B4B"/>
<path d="M10 8.75C7.5625 8.75 5.625 6.8125 5.625 4.375C5.625 4 5.875 3.75 6.25 3.75C6.625 3.75 6.875 4 6.875 4.375C6.875 6.125 8.25 7.5 10 7.5C11.75 7.5 13.125 6.125 13.125 4.375C13.125 4 13.375 3.75 13.75 3.75C14.125 3.75 14.375 4 14.375 4.375C14.375 6.8125 12.4375 8.75 10 8.75Z" fill="#4B4B4B"/>
</svg>
