<svg width="24" height="25" viewBox="0 0 24 25" fill="none" xmlns="http://www.w3.org/2000/svg">
<path d="M12 4.82812C16.4113 4.82812 20 8.41679 20 12.8281C20 17.2395 16.4113 20.8281 12 20.8281C7.58867 20.8281 4 17.2395 4 12.8281C4 8.41679 7.58867 4.82812 12 4.82812ZM15.454 11.7875C15.7143 11.5271 15.7143 11.1051 15.454 10.8448C15.1937 10.5845 14.7717 10.5845 14.5113 10.8448L11.471 13.8851L9.77 12.1841C9.50967 11.9238 9.08767 11.9238 8.82733 12.1841C8.567 12.4445 8.567 12.8665 8.82733 13.1268L10.9997 15.2991C11.1247 15.4245 11.2943 15.4948 11.471 15.4948C11.6477 15.4948 11.8173 15.4245 11.9423 15.2995L15.454 11.7875Z" fill="#5F5F5F"/>
</svg>
