<svg width="16" height="16" viewBox="0 0 16 16" fill="none" xmlns="http://www.w3.org/2000/svg">
<g clip-path="url(#clip0_3175_111956)">
<path d="M8.73389 0.667969C7.12172 0.675815 5.55769 1.21825 4.28685 2.21029C3.01601 3.20232 2.11016 4.58791 1.71122 6.14997L1.22322 5.41197C1.17702 5.33471 1.11566 5.2676 1.04282 5.2147C0.969981 5.16179 0.887183 5.12419 0.799419 5.10415C0.711654 5.08412 0.620741 5.08206 0.532161 5.09812C0.443581 5.11417 0.35917 5.148 0.284018 5.19756C0.208866 5.24712 0.14453 5.31139 0.0948898 5.38648C0.0452496 5.46158 0.0113334 5.54596 -0.00481349 5.63452C-0.0209603 5.72308 -0.0190033 5.814 0.000939595 5.90179C0.0208825 5.98957 0.0583981 6.07241 0.111224 6.1453L1.57789 8.36797C1.67977 8.51053 1.82998 8.61122 2.00056 8.6513C2.17474 8.68586 2.35552 8.65118 2.50456 8.55464L4.70456 7.07264C4.78041 7.02527 4.84596 6.96312 4.8973 6.8899C4.94864 6.81667 4.98472 6.73387 5.0034 6.64641C5.02208 6.55896 5.02297 6.46864 5.00602 6.38083C4.98907 6.29302 4.95463 6.20952 4.90475 6.1353C4.85486 6.06107 4.79056 5.99765 4.71565 5.94879C4.64075 5.89993 4.55678 5.86664 4.46875 5.85091C4.38071 5.83517 4.29041 5.83731 4.20322 5.85719C4.11603 5.87707 4.03373 5.91429 3.96122 5.96664L2.96056 6.6413C3.22688 5.56023 3.79171 4.57578 4.59061 3.80028C5.38951 3.02478 6.39031 2.48945 7.47882 2.25538C8.56734 2.0213 9.69972 2.09791 10.7468 2.47645C11.7939 2.85499 12.7134 3.52023 13.4006 4.39626C14.0878 5.2723 14.5149 6.32385 14.6332 7.43094C14.7515 8.53803 14.5562 9.65609 14.0696 10.6575C13.5831 11.659 12.8248 12.5035 11.8814 13.0947C10.9379 13.686 9.84728 14.0001 8.73389 14.0013C7.77945 13.9987 6.83974 13.7657 5.99466 13.3221C5.14957 12.8785 4.42409 12.2374 3.87989 11.4533C3.83115 11.3785 3.76787 11.3142 3.69381 11.2643C3.61975 11.2144 3.53641 11.1798 3.44875 11.1628C3.36108 11.1457 3.27088 11.1464 3.1835 11.1648C3.09611 11.1833 3.01333 11.2191 2.94006 11.2702C2.86678 11.3212 2.80452 11.3865 2.75696 11.4621C2.7094 11.5377 2.67752 11.6221 2.6632 11.7102C2.64888 11.7984 2.65242 11.8885 2.67361 11.9753C2.6948 12.0621 2.73321 12.1437 2.78656 12.2153C3.67127 13.4907 4.94178 14.4488 6.41136 14.9486C7.88095 15.4483 9.4721 15.4635 10.951 14.9919C12.4298 14.5203 13.7184 13.5867 14.6273 12.3284C15.5363 11.0701 16.0176 9.55346 16.0006 8.0013C16.0071 6.06591 15.2458 4.20693 13.8835 2.83216C12.5212 1.45739 10.6693 0.67908 8.73389 0.667969Z" fill="#9C9C9C"/>
<path d="M8.66667 3.96875C8.48986 3.96875 8.32029 4.03899 8.19526 4.16401C8.07024 4.28904 8 4.45861 8 4.63542V8.00208C8.00284 8.17831 8.07268 8.34684 8.19533 8.47342L10.1953 10.4914C10.3208 10.6149 10.4896 10.6846 10.6657 10.6854C10.8418 10.6863 11.0113 10.6184 11.138 10.4961C11.2635 10.3716 11.3344 10.2024 11.3352 10.0256C11.3359 9.8488 11.2665 9.67896 11.142 9.55342L9.33333 7.72808V4.63542C9.33333 4.45861 9.2631 4.28904 9.13807 4.16401C9.01305 4.03899 8.84348 3.96875 8.66667 3.96875Z" fill="#9C9C9C"/>
</g>
<defs>
<clipPath id="clip0_3175_111956">
<rect width="16" height="16" fill="white"/>
</clipPath>
</defs>
</svg>
