<svg width="20" height="20" viewBox="0 0 20 20" fill="none" xmlns="http://www.w3.org/2000/svg">
<path d="M17.3648 3.79549C16.4768 2.9108 15.2745 2.41406 14.021 2.41406C12.7676 2.41406 11.5652 2.9108 10.6773 3.79549L10.0023 4.47049L9.32728 3.79549C8.43933 2.9108 7.23697 2.41406 5.98353 2.41406C4.73009 2.41406 3.52773 2.9108 2.63978 3.79549C1.75471 4.6845 1.25781 5.88789 1.25781 7.14236C1.25781 8.39683 1.75471 9.60023 2.63978 10.4892L9.55853 17.408C9.61663 17.4666 9.68576 17.5131 9.76192 17.5448C9.83808 17.5765 9.91977 17.5929 10.0023 17.5929C10.0848 17.5929 10.1665 17.5765 10.2426 17.5448C10.3188 17.5131 10.3879 17.4666 10.446 17.408L17.3648 10.4892C18.2498 9.60023 18.7467 8.39683 18.7467 7.14236C18.7467 5.88789 18.2498 4.6845 17.3648 3.79549Z" fill="#2D6EEC"/>
</svg>
