<svg width="19" height="20" viewBox="0 0 19 20" fill="none" xmlns="http://www.w3.org/2000/svg">
<path d="M17.1467 8.22612C17.2233 7.84069 16.917 7.37817 16.5343 7.37817L12.1707 6.76147L10.1803 2.75294C10.1038 2.59877 10.0272 2.52168 9.87409 2.44459C9.49132 2.21333 9.032 2.36751 8.80234 2.75294L6.88849 6.76147L2.52492 7.37817C2.29526 7.37817 2.14215 7.45525 2.0656 7.60943C1.75938 7.91777 1.75938 8.3803 2.0656 8.68864L5.20431 11.7721L4.43877 16.1661C4.43877 16.3203 4.43877 16.4744 4.51532 16.6286C4.74498 17.014 5.20431 17.1682 5.58708 16.937L9.49132 14.8556L13.3956 16.937C13.4721 17.014 13.6252 17.014 13.7783 17.014C13.8549 17.014 13.8549 17.014 13.9314 17.014C14.3142 16.937 14.6204 16.5515 14.5439 16.089L13.7783 11.695L16.917 8.61156C17.0702 8.53447 17.1467 8.3803 17.1467 8.22612Z" fill="#C08617"/>
</svg>
